<svg id="レイヤー_3" data-name="レイヤー 3" xmlns="http://www.w3.org/2000/svg" viewBox="0 0 1000 1000"><defs><style>.cls-1{fill:#fff7e5;}.cls-2{fill:#daaf91;}.cls-3{fill:#ffd7c0;}.cls-4{fill:#fffaf5;}.cls-5{fill:#ddb399;}.cls-6{fill:#e4bcaf;}.cls-7{fill:#467ee5;}.cls-8{fill:#c79990;}.cls-9{fill:#e4bab3;}.cls-10{fill:#fff6e3;}.cls-11{fill:#f7c2ad;}.cls-12{fill:#d1997f;}</style></defs><path class="cls-1" d="M677.77,115.14c.14,3.51-3.51-3.65-4-4.21-1.59-2.31-3.75-4.16-5.3-6.49-2.87-3.8-7-6.35-10.68-9.27-6.29-5.38-13.33-10.53-21.61-12.15-10.45-2-21.76,3-30.73,8a68.11,68.11,0,0,0-13,9.89c-3.78,3.12-6.6,7.16-9.2,11.28-1.43,2.18-3.08,4.23-4.49,6.42-1.5,2-2.86,5.77-3.91,8.05.77-5.88,4-10.92,7.37-15.67,2.61-3.91,5-8,7.82-11.74,6.19-8.12,16.32-17.57,26.17-20.69,4.72-1.34,9.56-3.17,14.53-2.52,3.5.49,7.13,0,10.53,1.14,2.59,1.21,5.11,2.59,7.77,3.66a27.91,27.91,0,0,1,5.77,3.85c1.78,1.38,3.61,2.74,5.27,4.28,3,2.82,6.28,5.38,8.77,8.71a68.42,68.42,0,0,1,6,7.68A28.46,28.46,0,0,1,677.77,115.14Z"/><path class="cls-1" d="M671.65,120.93c-7.35-3.62-15.83-4.09-23.93-3.82-3,.19-6-.15-9,.08a101.49,101.49,0,0,0-20.92,4.23,85.85,85.85,0,0,1-9.59,2.58,18.56,18.56,0,0,0-10.37,4.8c7.15-7.46,17.61-10.13,27-13.62,4.23-1,8.35-2.77,12.69-3.28,3.7.06,7.44-.83,11.12-.19,2,.36,4.06.42,6,.9s4,1.37,5.95,2C664.62,116.13,668.58,117.94,671.65,120.93Z"/><path class="cls-1" d="M606.1,134c-.11,2-1.87,3.61-2.65,5.43-2.08,4.26-3.76,8.74-6.21,12.8-2.07,3.15-3.61,3.9-5.07-.14-.48-.83-1.54-4.49-2.77-3.74a13.46,13.46,0,0,0-1.31,2.86,75.48,75.48,0,0,0-3.85,15.22c-.65,1,.14,26.09-2.19,19.1-.89-2.31-1.86-4.6-2.54-7a66.63,66.63,0,0,1-1.41-8.65,73.54,73.54,0,0,1,1.27-25.61c1.67-8.36,3-17.37,9.1-23.79,0,.15-3.45,5.22-3.13,5.39a13.12,13.12,0,0,1,.38,1.4,13.48,13.48,0,0,0,1.4,4.4c1.14,1.84,3.44,2.34,4.79,4a1.74,1.74,0,0,0,2.65.14,15.38,15.38,0,0,1,4.15-2C600.43,133.36,605.32,131.76,606.1,134Z"/><path class="cls-2" d="M693.68,124.55c.25,5.08.15,10.18.83,15.24.92,6.86,1.91,8.81.5,16-.57,2.81-2.12,5.32-2.84,8.09-1.45,4.17-2.26,8.51-3.29,12.79-.54,2.32-1.88,4.29-2.93,6.4a84.51,84.51,0,0,1-3.34,8.82c-1.8,3.5-3.2,7.25-5.73,10.31a96.33,96.33,0,0,1-6.58,7.69c-1.25,1.49-2.22,3.2-3.38,4.75s-2.52,3.15-3.6,4.85a43.86,43.86,0,0,1-4.32,6,23.47,23.47,0,0,1-4.07,3.57c-1.87,1.41-3.68,2.91-5.55,4.33a65,65,0,0,0-10.49,9.1c-3.8,3.62-7.39,7.45-11.19,11.06-1.26,1.11-2.7,2-4,3a25.55,25.55,0,0,1-4,2.85c-2.13,1.15-4.36,2.12-6.44,3.36a34.49,34.49,0,0,0-7,5.91c-2,2.37-4.22,4.8-5.3,7.77-.79,1.89-.05,4-.79,5.9-.25.68-.52,1.55-1.31,1.69a9.07,9.07,0,0,1-1.56-.16c-1.89-.2-4-.76-4.51-2.84a12.5,12.5,0,0,1,.25-3.28,50.8,50.8,0,0,0,.68-5.49,2.9,2.9,0,0,0-.93-2.16,63.53,63.53,0,0,0-4.07-5c-1.05-1-2.22-1.9-3.22-3-2.4-2.94-4.5-6.12-6.66-9.24-5.35-6.15-5.19-7.87-4.3-15.78,1-8.14,1.61-8.32,6.9-14.29,4.79-4.72,9.26-9.78,14.26-14.3,4-3.61,6.64-8.14,8.85-13A130.4,130.4,0,0,0,615.12,170c1.15-4.87,1.27-9.92,2-14.85a83.27,83.27,0,0,1,3.94-15.38c2.12-8,7.38-14.52,12.14-21.12.59-1.28,2.21-.91,3.39-1.19a44.55,44.55,0,0,1,7.83-.24c4.84-.06,9.7-.34,14.52.3a35.32,35.32,0,0,1,12.15,3.24c1.18.6-.2-.39-.5-.68-4.42-3.77-10.17-5.51-15.59-7.33a81.71,81.71,0,0,0-8.68-1.25c-2.73,0-5.45.43-8.18.42,2.42-3.29,5.81-5.61,8.64-8.5,3.11-3.42,4.84-7.89,5.92-12.33,2.14,1.61,4.16,3.39,6.24,5.07a63.07,63.07,0,0,1,7.85,6.36c1.25,1.21,2.15,2.75,3.28,4.08s2.44,2.6,3.47,4.06c1.31,1.75,2,4,3.72,5.45,1.33.59-.42-5.42-.56-6-1-4.12-3.6-7.44-6.33-10.55a53.06,53.06,0,0,0-7.94-8.33,75.82,75.82,0,0,0-5.74-5l-2.31-1.8c-.45-.31-.83-.59-.69-1.19-.13-5.15-1.14-10.52-4-14.92-2.89-4.23-6.94-7.51-10.51-11.15.81-.13,4-3.27,4.91-2.6a18.61,18.61,0,0,1,5.28,1.42,41.69,41.69,0,0,1,7,3.6c2.63,1.76,5.06,3.8,7.68,5.58A22.89,22.89,0,0,1,667.47,68a61,61,0,0,1,5.26,5.64c.9,1.11,1.54,2.39,2.33,3.56,1.15,1.74,2.33,3.45,3.46,5.19,2.19,3.33,3.24,7.25,5.22,10.7.75,1.42,1.31,2.93,2.07,4.34a40,40,0,0,1,3.81,8.34c.88,2.51,1.26,5.16,2,7.73.46,1.73,1.06,3.44,1.38,5.21C693.34,120.6,693.46,122.59,693.68,124.55Z"/><path class="cls-3" d="M653,57.5c-2.72-1.25-5.49-2.64-8.5-3-1-.68-4.38,2.18-5.2,2.58,3.62,3.7,7.77,7,10.65,11.37,2.8,4.54,3.77,10.06,3.81,15.34-3.23-2.8-7.42-3.9-11.06-6-3.22-1.74-7-1.29-10.54-1.6-4.86-.9-9.61.52-14.24,1.87-9.47,2.58-17.13,9.35-23.76,16.32-4.33,4.6-7.61,10-11,15.31-3.56,5.21-7.42,10.54-8.24,17,1.08-2.31,2.45-6,3.91-8.05s3.06-4.24,4.49-6.42c2.52-3.95,5.18-7.88,8.79-10.92a69.89,69.89,0,0,1,12.79-9.88c8.84-5.1,20.26-10.19,30.64-8.5,5.85.89,11.06,3.85,15.87,7.16,1.24.88,1.58.75,1,2.39a29.11,29.11,0,0,1-1.23,3.62c-2.88,8.12-7.88,9.43-12.74,15.49-.23.49-.91.28-1.35.37a16.88,16.88,0,0,0-2.42.45c-4,1.21-8.14,2.19-12.1,3.57-8.65,3.29-18.18,5.9-24.71,12.84,4.37-4.41,10.42-4.54,16-6.18a113.51,113.51,0,0,1,20-4.82c-3.38,4.75-7.05,9.35-9.83,14.5A92.73,92.73,0,0,0,617.49,153c-1.32,8-1.28,16.4-4.71,24a119.49,119.49,0,0,1-8.24,18.54c-1.57,3-2.84,6.24-5,8.84a72,72,0,0,1-7.45,7.57c-2.43,2.31-4.56,4.94-7,7.26a62,62,0,0,0-6.09,6.46A13,13,0,0,0,575.6,231a56.54,56.54,0,0,0-1.36,9.25,18.47,18.47,0,0,0-.13,4c-5.7-4.18-4.44-5.64-7.28-11.29-.87-1.81-2.1-3.4-3.07-5.16-1.41-2.64-2.75-5.32-4.3-7.88-.89-1.39-1.57-2.91-2.38-4.34a46.74,46.74,0,0,1-2.67-4.79c-1.28-2.75-1.77-5.79-3-8.57-1.47-3.7-3.82-7-4.63-11-.4-1.77-.72-3.57-1.22-5.32s-1.12-3.42-1.49-5.19c-1.06-4.71-1.82-9.49-2.66-14.25-.79-4.51-1.53-9-2-13.56a72.62,72.62,0,0,1-.66-13.66c.18-2,.55-4.07.57-6.13a45.76,45.76,0,0,1,1-9.55,61,61,0,0,1,4.44-13.1q2.36-5.86,5-11.6c1.47-3.4,2.67-6.94,4.44-10.21,1.42-2.33,3.21-4.42,4.82-6.61a43.93,43.93,0,0,1,5.39-6.39c2.23-1.91,4.74-3.49,7-5.42,2.58-2,5-4.22,7.87-5.82,4.5-2.37,9.46-3.67,14.19-5.49,3.83-1.23,7.32-3.28,11.07-4.71a63.73,63.73,0,0,1,7.85-2.46A40.42,40.42,0,0,1,620,50.35c3.94-.28,7.77.93,11.65,1.41,4.35.66,8.75,1,13.09,1.67A14.4,14.4,0,0,1,653,57.5Zm-46.85,76.6c-.55-2.45-6-.69-7.66-.27a15.8,15.8,0,0,0-4,2,1.75,1.75,0,0,1-2.65-.29c-1.38-1.64-3.75-2.13-4.81-4.08a15.38,15.38,0,0,1-1.32-4.36,8.87,8.87,0,0,0-.34-1.25c-.32-.17,3.18-5.24,3.13-5.39-6.12,6.42-7.43,15.43-9.1,23.79a73.54,73.54,0,0,0-1.27,25.61,66.63,66.63,0,0,0,1.41,8.65c.69,2.43,1.69,4.77,2.59,7.13,1.85,5.26,1.78-11.23,1.73-12.07a54.07,54.07,0,0,1,.66-8.8A69,69,0,0,1,589,149c1.2-2.76,2.76,2.39,3.3,3.33,1.85,5.41,4.58.67,6-2.07,2-3.62,3.43-7.51,5.29-11.19C604.39,137.42,605.91,136,606.12,134.1Z"/><path d="M597.37,272.63c.71.63,1.42,1.25,2.09,1.92,10.4-11.69,23.79-19.86,36.24-29.08,4.06-3.09,7.45-6.88,10.95-10.55,4.09-3.92,8.11-7.9,12-12.06,2.75-2.77,5.58-5.49,8.06-8.52,5.8-7,11.37-14.39,14.6-23,3.73-10,7.8-19.89,10.9-30.09,2.21-8.19,2.12-16.71,1.06-25.06-.91-8-1.82-15.87-4-23.61-2.61-9.51-5.93-18.82-11.09-27.27-6.33-10.69-14.53-20.07-25.44-26.24-5.44-3.37-11.77-4.26-17.93-5.42A58.09,58.09,0,0,0,621.9,52a69.92,69.92,0,0,0-13.74,2c-3.27,1-6.37,2.56-9.54,3.87a116.15,116.15,0,0,0-28.07,15.42c-8.74,6.19-13.57,16-18,25.35-4.63,10-8.52,19.9-10.7,30.64a45.94,45.94,0,0,0-1.31,10.88c.22,4.28.93,8.52,1.41,12.77,1.12,9.63,2,18.87,4.49,28.17a183,183,0,0,0,6.1,17.7A254.36,254.36,0,0,0,569,233c4.8,8.35,8.5,17.36,14.55,24.94C587.9,263.1,591.89,268.68,597.37,272.63Zm1.59,9.66c.74,0,.64-.6.5-1.14-.72-2.31-2.49-4.06-4.28-5.6-.55,2-1.42,4-1.82,6C595,282.53,597.13,282.35,599,282.29Zm-3.12,3.63c-2.36-.16-5.43-.85-6.05-3.51-.4-3.28,2-6.21,2.11-9.43a126.48,126.48,0,0,1-15.16-18.38c-5-7.9-8.75-16.45-13.47-24.5A204.43,204.43,0,0,1,551,204.32a175.46,175.46,0,0,1-8.25-23.25c-2.83-11.2-3.63-22.77-5.16-34.2-1.27-7.23-.41-14.55,1.5-21.59a117.88,117.88,0,0,1,7-20.92c3.81-8.91,7.9-17.79,13.61-25.66,2.87-3.88,6.71-6.9,10.57-9.75a128,128,0,0,1,29.37-15.51c6.52-3.29,13.59-4.62,20.84-5.06,5.85-.4,11.61,1,17.3,2.2,5.92.86,11.86,2.3,17,5.49,10.64,6.07,18.84,15,25.27,25.3,6,9.31,9.9,19.74,12.8,30.4,2.63,9.58,3.65,19.53,4.6,29.4a62.26,62.26,0,0,1-1.93,22c-2,6.87-4.86,13.49-7.24,20.26-1.65,4.51-3.33,9-5.27,13.39-3.48,7.48-8.61,14-13.86,20.37-2.42,2.92-5.17,5.56-7.83,8.23-3.78,4.1-7.71,8-11.76,11.85a111,111,0,0,1-10.26,10.09c-6.93,5.53-14.46,10.25-21.55,15.57a141.66,141.66,0,0,0-16,14.51C605.24,283,602.18,286.87,595.84,285.92Z"/><path d="M605.27,579.88a1.83,1.83,0,0,1-2-1.67q-.52-9.4-1.17-18.82T601,540.84c-.67-12.51-1.4-25-1.63-37.56s-.27-25.3-.3-37.95c0-6.3,0-12.6-.1-18.9s-.2-12.6-.14-18.9c0-3.17.12-6.33.17-9.49s.11-6.43.15-9.64q.12-9.42.14-18.86c0-6.18.17-12.36.23-18.54s.09-12.61.12-18.91c0-3.45,0-6.89,0-10.34-.06-2.53-.14-5.05-.22-7.58s-.13-5.33-.18-7.75c0-.85,0-1.7,0-2.56-.07-3.07-.18-6.14-.36-9.21s-.39-6.11-.58-9.17-.41-6.23-.61-9.34-.48-5.94-.76-8.91l-.24-2.65h0a1.82,1.82,0,1,1,3.63-.3c.23,2.5.47,5,.69,7.52.27,2.95.43,5.92.63,8.87s.39,6.12.59,9.17.42,6.25.52,9.39c.08,2.36.13,4.72.17,6.85,0,.85,0,1.71,0,2.33.11,6.16.4,12.33.41,18.49,0,6.32-.06,12.64-.09,19,0,6.16-.12,12.32-.2,18.48s-.09,12.47-.14,18.7c-.06,6.48-.15,12.94-.31,19.41-.14,6.19-.08,12.39,0,18.58s.15,12.48.17,18.71c0,6.4,0,12.81,0,19.2,0,7.13.09,14.24.19,21.2q.17,9.25.57,18.52c.29,6.36.63,12.73,1,19.09.32,6.13.7,12.26,1.1,18.39s.83,12.33,1.18,18.51l.18,3.26a1.86,1.86,0,0,1-1.65,2Z"/><path d="M618.3,738.15a6.63,6.63,0,0,1-.75-2.84l-.82-5.62c-.57-3.82-1.21-7.62-1.78-11.44-2.4-15.57-4.49-31.19-5.74-46.9-2.84-27.54-3.26-55.25-5.53-82.83a1.83,1.83,0,1,1,3.64-.3c.37,4.08.71,8.17,1,12.26,1.55,31.62,3.25,63.26,7,94.71,1.43,10.73,3,21.45,4.71,32,.49,3.41,1,6.86,1.56,10.21A1.84,1.84,0,0,1,618.3,738.15Z"/><path class="cls-4" d="M518.26,337.59c-.75-.34-1-1.27-1.44-1.94a25.41,25.41,0,0,0-2.23-4,22.49,22.49,0,0,0-3.75-3.61,50.46,50.46,0,0,0-6.45-5c-3.73-2.45-7.55-5-12-5.83a80.9,80.9,0,0,0-24.33-1.81,44.88,44.88,0,0,0-12.14,3.54,69.35,69.35,0,0,0-12.33,6.41c-4.81,3.06-9.22,6.35-11.26,11.91,1.08-3.18,2.24-6.47,4.37-9.12a49.21,49.21,0,0,1,11-9.33c4-2.2,7.62-5.28,12.15-6.26,3.32-.73,6.7-1.21,10.05-1.8,2.53-.41,5-1.22,7.6-1.23a37.79,37.79,0,0,1,9,1.09c2.32.43,4.71.66,6.84,1.75a74.72,74.72,0,0,1,11.27,7.36c2.11,1.78,3.8,4,5.95,5.74,3.06,2.53,5.94,4.17,7.2,8.26C518,334.41,519.14,337.46,518.26,337.59Z"/><path class="cls-4" d="M513.86,355.63c-5.91-3.94-12.86-6-19.84-7.05a85.81,85.81,0,0,0-15.48-1.95c-5.18-.2-10.35.23-15.52.24-5.92-.11-4.95,3.07-8.28-3.19,6.17-.54,12.27-1.87,18.46-2.2,8.16-.29,16.49.21,24.14,3.31C505.16,347.59,509.51,347.5,513.86,355.63Z"/><path class="cls-5" d="M549.08,373.25c0,2.47-.19,4.93-.33,7.39a54.56,54.56,0,0,1-1.44,13.24c-.78,3-2.32,5.8-3.26,8.78a34.15,34.15,0,0,0-2.85,7.89c-1.46,7.71-5.84,14.45-10.46,20.64-1,1.19-2.16,2.21-3.18,3.37-.82.92-1.42,2-2.28,2.91-1.49,1.68-2.78,3.55-4.39,5.13-1.67,1.42-3.18,3-5,4.32s-3.6,1.93-5.21,3.22a41.69,41.69,0,0,1-3.66,2.3c-1,.64-2,1.4-3.07,1.95-1.27.65-2.69.89-4,1.5a31.35,31.35,0,0,0-3.93,1.34,32.52,32.52,0,0,0-3.32,2.16,15.74,15.74,0,0,0-4,2.81c-1,1.16,2,3.54,2.41,4.76.32,1-.41,2-1,2.74a5.28,5.28,0,0,1-3.93,1.8c-1.38.17-3.32.18-4-1.28-.79-2.24-.5-4.75-1.5-6.92-.56-.83-1.58-1.22-2.32-1.88a7.07,7.07,0,0,0-2.25-1.27c-1.09-.34-2.25-.34-3.34-.68A3.57,3.57,0,0,1,470,455.7c.35-.88,1.52-1.34,2.26-1.9,1.64-1,3.28-2,5-2.93,3.18-1.46,5.83-3.75,8.7-5.7,3.2-2,6.61-3.65,9.73-5.75a45.16,45.16,0,0,0,10.91-12.26c3-4,5.51-8.5,8.92-12.22,2.49-2.52,4.69-5.34,7.3-7.73a61.81,61.81,0,0,0,11-10.47c3.25-3.72,5.32-8.22,7.4-12.65,3.13-6.95,5.15-14.75,3.59-22.36C549,365.56,549.07,367.77,549.08,373.25Z"/><path class="cls-6" d="M549.51,366.48c-.27,5.16.09,10.37-.8,15.49.17-4.46.64-8.94.17-13.41-.51-3.57-1.81-4.42-4.12-6.83,1.56,7.61-.46,15.41-3.59,22.36-2,4.27-4,8.64-7.09,12.27a56.45,56.45,0,0,1-10.48,10.18c-2.64,2.13-4.69,4.89-7.06,7.29-3.84,3.82-6.44,8.63-9.69,12.93a49.82,49.82,0,0,1-9.43,11.29c-3.27,2.76-7.24,4.51-10.86,6.74-3.06,1.9-5.73,4.41-9,5.93-1.95,1-3.82,2.18-5.68,3.33-1,.73-2.37,1.31-1.75,2.88-1.78-.47-3.41-1.36-5.18-1.85-2.76-.55-5.55-1-8.34-1.33-1.74-.1-3.29-.93-4.94-1.38-2.21-.64-4.56-1.09-6.5-2.39-1.24-.83-2.35-1.84-3.53-2.76-2.21-1.61-4.43-3.21-6.58-4.9a5.05,5.05,0,0,1-1.64-2c-1-.61-1.94-1.22-2.85-1.92-3-2.8-5.16-6.34-7.89-9.37a19.6,19.6,0,0,1-1.45-2.14c-1.2-1.25-2.84-2.29-3.88-3.76-2.56-3.25-4.25-7.09-6.22-10.7a77,77,0,0,1-4.11-7.57,106.6,106.6,0,0,1-5.59-19.49c-.26-2.48-.72-4.95-1-7.43a114,114,0,0,1,.49-11.69,39.19,39.19,0,0,1,.52-4.95,40.93,40.93,0,0,1,.76-5.52,56.65,56.65,0,0,1,2-6.61c.81-2.85,1.08-5.82,1.84-8.67a28,28,0,0,1,1.75-4.42,88.85,88.85,0,0,1,5.41-8.44c2.41-4.07,4.24-8.51,7.09-12.29,4.46-5.87,10.31-10.44,15.31-15.79.56-.56,1.15-1.13,1.72-1.67a3.05,3.05,0,0,0,1.85-.47c2.1-1.27,4.25-2.46,6.38-3.66a56.43,56.43,0,0,1,7.2-3.63,29.32,29.32,0,0,1,4-1,43.19,43.19,0,0,1,5.76-1.16,35.87,35.87,0,0,0,6.42-1.24c1.23-.42,2.54-.49,3.77-.91.92-.27,1.79-.69,2.73-.89a9.65,9.65,0,0,1,3.39-.06,14.18,14.18,0,0,1,5.27,1.41,18,18,0,0,1,2.21,1.36c.29.49.8.22,1.21.19a20.08,20.08,0,0,1,7.29.09c4.58.46,5.85,1.49,9.62,3.76,1.17.64,2.44,1.07,3.61,1.7s2,1.43,3,2.13c1.16.81,2.16,1.83,3.3,2.67a44.86,44.86,0,0,1,5.36,4.35c1.44,1.55,2.61,3.35,4.14,4.84a51.32,51.32,0,0,1,5.13,6.34c1.14,1.78,2.83,3.06,4.21,4.64,1.61,2.09,3.07,4.29,4.6,6.43a43.53,43.53,0,0,1,3.39,7c.5,1.31,1.17,2.55,1.68,3.85a41.78,41.78,0,0,1,1.24,4.13c1.34,4.28,1.64,8.79,2,13.23-.06,1.05.83,1.72,1.25,2.58A33.37,33.37,0,0,1,549.51,366.48Zm-30.93-29.35a14,14,0,0,0-3.45-7.89c-1.39-1.55-3.26-2.54-4.76-4-2.69-2.26-4.79-5.17-7.74-7.12-3.89-2.51-7.61-5.62-12.14-6.85-4.46-.74-8.89-2-13.44-1.81-2.66.11-5.22,1-7.84,1.33-3.31.63-6.66,1-9.93,1.84-4.38,1.12-7.93,4.13-11.83,6.26a48.93,48.93,0,0,0-11,9.49,30.36,30.36,0,0,0-4.13,8.81c1.93-4.68,4.11-6.92,8.18-9.82a69.56,69.56,0,0,1,11.75-6.9c4.67-2.11,9.46-4.13,14.54-5a77.35,77.35,0,0,1,23.12,1.13,34.72,34.72,0,0,1,7.22,2c1.56.72,3,1.7,4.5,2.55A65.83,65.83,0,0,1,514.11,331a13.15,13.15,0,0,1,1.86,2.9C516.34,334.55,518.14,339,518.58,337.13Zm-4.68,18.48c-4.49-8.09-8.68-8-16.56-10.82-7.65-3.1-16-3.6-24.13-3.31-6.2.33-12.3,1.66-18.47,2.2,3.35,6.25,2.3,3.09,8.28,3.19,5.17,0,10.35-.44,15.52-.24a88.94,88.94,0,0,1,15.84,2A48.48,48.48,0,0,1,513.9,355.61Z"/><path class="cls-7" d="M481.86,466.85c0-2.36,3.69-2.33,3.65,0S481.82,469.21,481.86,466.85Z"/><path class="cls-4" d="M658.21,563.55v.07c-.85-4.32-1.4-8.71-2.46-13-1-3.69-2.51-7.22-3.49-10.91a71.47,71.47,0,0,0-2.48-8.51,59.24,59.24,0,0,0-4.51-8.23,53.71,53.71,0,0,0-3.75-5,20.84,20.84,0,0,0-4.42-4.85c-4.59-3.44-10.18-5.14-15.14-7.95-8.08-5.47-11.85-6.79-21.56-4.77,3.13-1.67,6.22-3.76,9.78-4.31,3-.49,6.15-1,9,.26a31.61,31.61,0,0,0,4.69,2.26c2.11.73,4.36,1.08,6.39,2.05,2.33,1.2,4.88,2,7.15,3.3,4,2.74,6.77,6.95,9,11.19a112.27,112.27,0,0,1,5.48,10.7c.77,2.22,1.3,4.54,2,6.81A107,107,0,0,1,658.21,563.55Z"/><path class="cls-4" d="M654.13,580.48c-1,1.28-2.79-5.35-3.28-6.07A94.14,94.14,0,0,0,644.58,563a25.21,25.21,0,0,0-3.22-4.74c-1.88-1.81-3.73-3.68-5.67-5.43-3.06-2.61-6.07-5.28-9.24-7.76a62.73,62.73,0,0,1-6.65-5.18c-4.27-3.59-9.36-6.07-14.2-8.77-1.79-1.08-3.62-2.1-5.5-3-1.05,0-2.86-4.14-3.37-4.79,4.82,1,9.79,1.43,14.43,3.15,7.85,2.68,14.53,7.92,20.47,13.59C642.7,550.93,652.6,564.57,654.13,580.48Z"/><path class="cls-8" d="M658.6,655.24c-1.8,2.9-5.52,3.77-8.35,5.35-2,.9-3.87,2.26-5.94,3.13a76.14,76.14,0,0,1-8.65,3.1c-2.7.71-9.87.68-10.83,3.86-.22,1.88.32,3.82-.4,5.64a6.09,6.09,0,0,1-1.49,2,1.65,1.65,0,0,1-3-.3c-1.56-1.88-1.24-4.45-.29-6.53.49-1,.51-1.68-.43-2.33a22.64,22.64,0,0,0-2.77-1.31c-1.56-.86-3.18-1.61-4.77-2.43-2.78-1.5-5.39-3.28-8-5a67.58,67.58,0,0,1-8-5.75,62.86,62.86,0,0,1-9.91-9.86c-2.55-2.72-5.89-4.56-8.4-7.34-3.6-3.46-4-5.23-5.95-9.57a54.57,54.57,0,0,0-4.5-7.76c-2-3.56-3.66-7.36-5.78-10.88-1.51-2.3-2.46-4.92-3.9-7.27-1.06-1.8-2.68-3.46-2.66-5.68a54,54,0,0,1,.42-6.6c1.34-3.83,3-8.36,5.32-11.71,2.72-2.2,4.44,6.34,5,8a77.4,77.4,0,0,0,3.18,8,63.92,63.92,0,0,0,8.88,16c4,5.27,8.32,10.42,13.66,14.35,2.93,2.08,6,4.26,9.42,5.35,4.63,1,9.28-1.6,12.43,3.52,4,7.35,8,15.93,16.47,19,10.29,4.07,11.66,4.61,22.47,1.3,1.68-.22,4.69-1.43,6-.16C658.36,653.83,658.91,654.5,658.6,655.24Z"/><path class="cls-9" d="M695.27,606.07c-.78,1.77-1.48,3.58-2.35,5.3-.5,1-1.18,1.9-1.66,2.9-.64,1.56-1.11,3.18-1.82,4.71-.89,1.93-2,3.74-3,5.62a35,35,0,0,1-5.68,8.13c-1.4,2-2.54,4.14-4,6-2,2.18-2.87,5.09-4.61,7.44-1.11,1.55-2.79,2.57-4.14,3.89-1.72,1.39-3.32,2.92-5.13,4.19-1.42.85-2.54,2.09-3.89,3a12.72,12.72,0,0,1-3.27,2.16,41.49,41.49,0,0,0-7.8,2.34c2.32-1.65,11.09-4.27,10.76-7.36a2.52,2.52,0,0,0-2.58-1.72c-5,.45-9.6,2.9-14.65,2.93-3.11.08-6-1.28-8.9-2.32-4.26-1.4-8.35-3.48-11.3-7a44.9,44.9,0,0,1-5.64-8.38c-1.38-2.51-2.41-5.51-4.86-7.17-2.8-1.85-6.23-.6-9.32-1-10.82-3.39-18.85-12.84-25.27-21.77a54.73,54.73,0,0,1-7-12.69,96.28,96.28,0,0,1-3.92-9.94c-.73-2.62-3.1-12-5.93-5.7a46.92,46.92,0,0,0-3.45,7.69,39.18,39.18,0,0,1-1-9.84c.16-2.1.54-4.2.75-6.3a114,114,0,0,1,2.06-14c1.45-7.33,2.74-14.8,5.66-21.72,4.6-9,8.94-18.18,15.19-26.12a56.07,56.07,0,0,1,6.5-5.5c2.25-1.83,4.45-3.75,6.87-5.35a60.62,60.62,0,0,1,10-5,52.4,52.4,0,0,1,6.37-2.58c4.39-1.38,8.49-3.64,13-4.73,1.38-.31,2.81-.54,4.22-.72a13.86,13.86,0,0,0,3.22,0,54.29,54.29,0,0,1,15.64.15,17.6,17.6,0,0,1,6.59,2.88,25,25,0,0,1,8,3.24c1,.54,2,1,3,1.52s1.61,1.11,2.41,1.66c1.61,1.15,3.44,1.92,5.11,3a30.14,30.14,0,0,1,6,4.94c1.39,1.75,2.52,3.71,4.23,5.18,1.54,1.53,3.45,2.61,5,4.1a23.64,23.64,0,0,1,2.64,2.56c1,1.47,2,3,3.18,4.39a33.26,33.26,0,0,0,3.58,4.84c1.33,1.47,2.91,2.79,3.66,4.68s1.23,3.73,2.09,5.5c1.26,3.06,3.2,5.78,4.42,8.85a21.34,21.34,0,0,1,.7,3.88,24,24,0,0,0,.63,2.79c.53,2.31.45,4.71.94,7s.94,4.72,0,6.92a11.16,11.16,0,0,0-1.08,4.24c-.14,3.51-.7,7-1,10.48-.47,2.13-1.22,4.19-1.66,6.34C701.3,592.1,697.87,599,695.27,606.07ZM654.1,580.54c-1.38-15.73-11.21-29.27-22.07-40.14-6-5.83-12.84-11.24-20.87-14-4.64-1.72-9.61-2.17-14.43-3.15.76,1,2.25,4.8,3.67,5,1.78.85,3.5,1.85,5.2,2.86,4.75,2.64,9.71,5.09,13.93,8.54a67,67,0,0,0,6.92,5.41c3.17,2.48,6.18,5.15,9.24,7.76,1.53,1.27,2.82,2.82,4.33,4.11a19.5,19.5,0,0,1,4.28,5.6,100.46,100.46,0,0,1,6.43,11.63C651.39,575.13,652.91,581.4,654.1,580.54Zm4.12-16.92a107.47,107.47,0,0,0-4.35-30.93c-.66-2.27-1.19-4.59-2-6.81a112.27,112.27,0,0,0-5.48-10.7c-2.23-4.24-5-8.45-9-11.19-2.27-1.33-4.82-2.1-7.15-3.3-2-1-4.28-1.32-6.39-2.05a37.9,37.9,0,0,1-4.85-2.33c-3.09-1.24-6.46-.59-9.63-.05-3.24.74-6.1,2.62-9,4.17,9.73-2,13.46-.71,21.56,4.77,5,2.81,10.55,4.51,15.14,7.95a22.81,22.81,0,0,1,4.65,5.15,43.22,43.22,0,0,1,4.06,5.56,51.47,51.47,0,0,1,4.1,7.68,87.9,87.9,0,0,1,2.45,8.56c1,3.56,2.43,7,3.39,10.54C656.82,554.91,657.37,559.3,658.22,563.62Z"/><path class="cls-10" d="M348,528.85c-.21,2.67-1.94-4.9-2.15-5.24a35.14,35.14,0,0,0-2.51-6.43,44.11,44.11,0,0,0-9.23-12.37c-4.83-5.42-10.61-9.88-15.89-14.84a47,47,0,0,0-17.87-8.88c-5.14-1.43-10.72-2.37-15.92-.73-7.15,2.21-13,7.09-18.58,11.93-4.21,3.67-9,7.33-11.92,12.19,1.57-8.08,5.65-13.74,11.37-19.42a46.64,46.64,0,0,1,11-8.5,45,45,0,0,1,8.5-3,30.07,30.07,0,0,1,8.66-.95,27.53,27.53,0,0,1,4.63,0c7.11.92,13.61,4.17,20,7.2a30.34,30.34,0,0,1,7.35,5.54c1,.91,2.22,1.63,3.22,2.58a50.32,50.32,0,0,1,3.6,4.37c2.92,3.64,5.52,5.8,6.75,10.55,2.23,4.87,5.23,9.47,6.47,14.75C346.33,521.34,347.89,525,348,528.85Z"/><path class="cls-10" d="M339.67,528.07v0c-4.36-5.62-12-6.7-18.64-7.55-2.17-.17-4.31-.66-6.46-1a59.83,59.83,0,0,1-6-.87c-6.14-1.07-12.17-2.73-18.32-3.75a32.23,32.23,0,0,0-9.49.67c-.68.36-4.76-.51-5.5-.59a21.78,21.78,0,0,1,18.08-6.68c3.65.48,7.14,1.83,10.76,2.46s7.12,1.84,10.75,2.43a48.55,48.55,0,0,1,9.87,3.64C330.37,519.53,336.2,522.78,339.67,528.07Z"/><path class="cls-11" d="M298.46,630c.14,2.44-7-1.79-7.82-2.33-3.65-2.06-7.32-4.08-10.91-6.25-2.17-1.42-4.35-2.83-6.65-4-4.11-2.29-8.32-4.42-11.92-7.5a41.77,41.77,0,0,1-10-9.28c-4.13-5.32-6.58-11.61-9.75-17.48-1.2-2.3-2.52-4.54-3.74-6.83-1-2.17-1.92-4.4-2.88-6.59a67.34,67.34,0,0,1-5.54-15.83c-.81-4.1-2.18-8.08-2.67-12.24a136,136,0,0,1-1.07-21.53,111,111,0,0,1,5.27-23.22,51.67,51.67,0,0,1,2.4-5.25c.81-1.84,1.57-3.7,2.47-5.5,2-4.23,3.67-8.71,6.63-12.38a47.93,47.93,0,0,1,6.35-6.23c3.61-3.4,7.42-6.59,11.34-9.64a49.85,49.85,0,0,1,14.21-7.62c3.59-1.33,7.39-2.5,11.26-2.19,2.21,0,5.61,1.4,4.64,4.14-1.66,2.4-7.18,3.59-10,4.32-7.94,1.73-14.75,6.64-19.89,12.82-2.2,2.45-4.57,4.78-6.59,7.38a97,97,0,0,0-6.32,10.18,68.36,68.36,0,0,0-9.1,33.1c.32,12.28,4.35,24.06,8.76,35.41,4.2,10.46,8.54,20.88,13.57,31A73.72,73.72,0,0,0,270.74,602a111.79,111.79,0,0,0,12.67,14C288.44,620.55,295.72,623.39,298.46,630Z"/><path class="cls-12" d="M364.31,534.91a76.2,76.2,0,0,1-.83,12.44c-.62,4-1.88,8-2.83,12-1,4.64-2.08,9.25-3.2,13.86-.89,3-2.06,5.85-3,8.81-1.93,4.75-3.44,9.74-6.15,14.13-2.52,4.14-5.46,8-7.87,12.22a134,134,0,0,1-7.91,13,98.76,98.76,0,0,1-6.3,9.18c-1.74,2.29-3.46,4.72-5.81,6.44a13.09,13.09,0,0,0-2.79,1.84c-1,1.31-1.21,3-1.47,4.63-.64,2.53-2.1,6.51-4.91,7.13a7.89,7.89,0,0,1-3.19-2c-1-.85-2.07-2.21-1.31-3.51a22,22,0,0,1,2.35-3.31c.84-1.28,1.66-3.88-.64-4-1.78-.29-3.24-1.41-4.87-2.12-2-1-4.07-1.8-6-2.9-1.64-.84-3.16-1.9-4.78-2.76-2.51-1.44-5.32-2.35-7.72-4-1.28-1.07-2.41-2.32-3.58-3.5,3.41,2,6.87,3.89,10.29,5.85,3.75,2.3,10.08,4.81,4.4-2-4.87-5.5-12-8.5-16.71-14.17a143.33,143.33,0,0,1-15.11-18.75c-7.63-13.17-13.2-27.45-18.8-41.57-7.17-18.84-10.2-33.88-3.56-53.51,2-5.69,5-11,8.06-16.15,2.55-4.64,6.14-8.55,9.77-12.36,4.15-4.91,9.1-9.22,15.14-11.63,4.76-2,10.34-2.11,14.59-5.26,1.33-1.12.53-3.32-.92-3.95-4.35-2-9.4-.43-13.68,1.06,4.7-1.6,9.19-4.29,14.24-4.46a60.48,60.48,0,0,1,9,.6,72.12,72.12,0,0,1,8,1c3.11.5,5.65,2.42,8.47,3.68,3.44,1.51,7.23,2.49,10.12,5a46.32,46.32,0,0,1,5.51,5c1.21,1.47,2.1,3.17,3.38,4.58,1.41,1.69,3.37,2.74,5.06,4.09a55.52,55.52,0,0,1,6.6,6.5,53.16,53.16,0,0,1,3.77,4.57,13,13,0,0,1,2.47,3.91c.58,2.39.8,4.89,1.84,7.15.76,2.08,2.39,3.63,3.49,5.52,2.15,3.87,2.45,8.4,3.46,12.64,1.42,4.09,1.77,8.39,2.36,12.65.32,1.91.84,3.78,1.14,5.69A60.6,60.6,0,0,1,364.31,534.91Zm-16.35-6c0-3.63-1.44-7.05-2.31-10.54-1.22-5.49-4.19-10.3-6.6-15.31-1.43-5.14-3.67-6.83-6.84-10.78a50.32,50.32,0,0,0-3.6-4.37c-1-.95-2.19-1.67-3.22-2.58a30.34,30.34,0,0,0-7.35-5.54c-6.35-3-12.78-6.22-19.82-7.18a27.83,27.83,0,0,0-4.83,0,29.69,29.69,0,0,0-8.86,1,42.11,42.11,0,0,0-8.47,3A47.36,47.36,0,0,0,265,485.32c-5.6,5.57-9.58,11.25-11.12,19.16,3-4.87,7.7-8.51,11.92-12.19,5.55-4.84,11.43-9.72,18.58-11.93,5.2-1.64,10.78-.7,15.92.73A46.89,46.89,0,0,1,318,489.86c5.34,5,11.15,9.49,16,14.95a44,44,0,0,1,9.05,12,35.08,35.08,0,0,1,2.69,6.78C346.2,524.42,347.59,531.14,348,528.94Zm-8.28-.85c-3.38-5.2-9.07-8.41-14.55-11a52.07,52.07,0,0,0-9.94-3.75c-3.72-.61-7.33-1.78-11-2.49s-7.11-2-10.76-2.46A21.78,21.78,0,0,0,275.31,515c.86.1,4.8,1,5.51.59a32.14,32.14,0,0,1,9.48-.67c6.15,1,12.18,2.68,18.32,3.75a59.83,59.83,0,0,0,6,.87c2.26.33,4.51.83,6.79,1C327.9,521.45,335.4,522.55,339.68,528.09Z"/><path d="M309,647.63l.59.84c1.15-2.09,2.49-4.21,3.4-6.28-.35-.38-.73-.74-1.09-1.11a2.08,2.08,0,0,1-.3-.43,32.29,32.29,0,0,0-4.05,5.07C308.05,646.37,308.57,647,309,647.63Zm-.68,4.92a42.45,42.45,0,0,1-2.6-3.44c-.94-1.21-2.2-2.56-1.62-4.21.95-2.46,3-4.35,4.66-6.33.79-.92,1.72-2,3-2a1.77,1.77,0,0,1,1.73,1.57c1.14.37,1.94,1.56,2.67,2.47,1.13,1.77-.39,3.71-1.16,5.32s-1.69,3-2.51,4.48C311.81,652.16,310.35,654.09,308.36,652.55Z"/><path d="M313,637.28a1.92,1.92,0,0,1,.59.42,1.76,1.76,0,0,1,1.53-.88c1.53.33,2.62-1.33,3.65-2.24,1.69-1.92,3.23-4,4.94-5.88,3.36-3.56,7.13-7,9.91-11,5.62-8.78,10.07-18.19,14.51-27.59a160.55,160.55,0,0,0,11.95-34,109.64,109.64,0,0,0,2-23.57c-.52-7.44-2.23-14.75-4.06-22a89.23,89.23,0,0,0-4.94-16.08c-2.21-5.36-4.57-11.06-8.22-15.57-2.31-2.73-4.26-5.23-6.54-7.79a40.45,40.45,0,0,0-5-5.72c-2.28-2-4.66-3.86-7-5.78-4.27-3.42-8.51-7.1-13.47-9.47a59.82,59.82,0,0,0-19.38-2.76,52.17,52.17,0,0,0-8.75.33c-5.42,1.2-10.92,2.24-16,4.55a37.23,37.23,0,0,0-7.17,4.89,70.07,70.07,0,0,0-7.3,6.13c-4.07,3.56-6.9,8.08-10.05,12.3A73.62,73.62,0,0,0,232,496.78a111.45,111.45,0,0,0-4.95,38.29A145.41,145.41,0,0,0,231.39,558c2.35,6,5.14,11.84,8.05,17.58,2.64,5,4.92,10.27,8,15.07,4.35,6.61,9.84,12.41,15.38,18A55.28,55.28,0,0,0,274.07,617a82.86,82.86,0,0,0,8.38,4.71c5.18,3.15,10.8,5.49,16.06,8.49C303.36,632.52,308.37,634.59,313,637.28Zm-1.39,3.22c-4.38-2.49-9-4.53-13.59-6.62-4.88-2.53-9.76-5.08-14.68-7.54-2.74-1.79-5.77-3-8.54-4.72-5-3-9.94-6-14.09-10.12-5.69-5.67-11.27-11.6-15.76-18.27-3.37-5-5.8-10.6-8.59-16-1.89-3.5-3.5-7.13-5.12-10.76a60.12,60.12,0,0,1-3.35-7.94c-2.14-8.71-4.3-17.62-4.43-26.63a115.83,115.83,0,0,1,4.77-35,75.94,75.94,0,0,1,13.32-23.56c3.05-4.05,5.73-8.41,9.54-11.82A81.24,81.24,0,0,1,260,454a36.48,36.48,0,0,1,6.5-4.45,52.59,52.59,0,0,1,12.65-4.11c2.86-.63,5.7-1.48,8.65-1.48,4.52,0,9.05-.12,13.56.24,4.52.72,9.16,1.37,13.45,3,5.87,3,10.87,7.49,16,11.6a46.77,46.77,0,0,1,10.09,10c3.35,4,7,7.86,9.73,12.35a117,117,0,0,1,7.41,16.42c1.94,5.47,3.06,11.17,4.52,16.78a118.62,118.62,0,0,1,2.95,17.33c.3,5.73-.29,11.45-.66,17.16-2.42,17.67-9.18,34.4-17.14,50.25-5.37,10.73-10.48,22-19.66,30.09-3.44,2.78-9.28,14-14.23,10.55A1.76,1.76,0,0,1,311.62,640.5Z"/><path d="M318,910.51a1.77,1.77,0,0,1-1.74-1.77c0-11.66,0-23.32-.06-35q-.06-8.68-.16-17.37-.12-8.92-.33-17.84c-.12-5.65-.31-11.31-.43-17q-.19-9-.25-17.92c0-5.69,0-11.39,0-17.08q0-8.77-.14-17.54c-.09-5.71-.24-11.42-.35-17.13s-.18-11.44-.19-17.16c0-11.44-.21-22.88-.21-34.33q0-8.73,0-17.46c0-5.57,0-11.14.17-16.7.11-4.45.26-8.9.26-13.36V640.82a1.76,1.76,0,1,1,3.51,0v7.24c0,2.77,0,5.54,0,8.3s-.13,5.8-.21,8.71-.11,5.89-.15,8.84c-.06,5.66-.05,11.33-.05,17s0,11.21,0,16.81.13,11.49.16,17.23,0,11.74.07,17.61c.13,11.63.49,23.27.6,34.9.11,11.39,0,22.77.15,34.15.14,11.58.53,23.16.76,34.75.24,11.84.33,23.69.37,35.54q0,13.43,0,26.85a1.77,1.77,0,0,1-1.76,1.74Z"/><path d="M465.7,454.11c3.26.88,6.61,1.43,9.8,2.57a41.12,41.12,0,0,1,6.86,3.67c2.27-.41,4.26-1.64,6.4-2.47a42.58,42.58,0,0,0,4.52-1.74c4.93-2.28,10-4.32,14.68-7.07,6.05-3.23,11-8.09,15.74-12.92a97.6,97.6,0,0,0,14.06-19.72c2.58-4.88,3.88-10.24,5.44-15.48a105.79,105.79,0,0,0,4.11-19.88,118.38,118.38,0,0,0-.76-18.74,161.17,161.17,0,0,0-5-23.08c-1.12-3.59-3.45-6.59-5.17-9.9-3.07-6.55-7.68-12.12-12.08-17.8-3.23-3.5-6.42-7.28-10-10.33-3.7-3.33-8.29-5.28-12.73-7.4a48.3,48.3,0,0,0-8.33-4.23c-5.12-1.67-10.57-2.13-15.93-2.37a24.7,24.7,0,0,0-6.65.24c-2.42.57-4.78,1.39-7.25,1.75a44.08,44.08,0,0,0-13,4.33,51.53,51.53,0,0,0-14.45,8.86,96.17,96.17,0,0,0-12.24,13.27,100.93,100.93,0,0,0-7.75,10.4c-6,10.11-9.89,21.38-12.55,32.8-1.58,6.86-1.4,13.95-1.15,20.93A58.61,58.61,0,0,0,404,390.7a95.2,95.2,0,0,0,6.58,17.23c3,6,6.14,12,10.22,17.32a100.75,100.75,0,0,0,17.94,18.84c4.84,3.07,10.35,5.21,15.67,7.2C458.13,452.47,462,453.1,465.7,454.11Zm19.62,12.12c.32,1.47.59,3,1,4.42,7.53-2,5.77-6.36-1.37-5.94C485.08,465.21,485.2,465.72,485.32,466.23Zm.12,8c-2-.27-2.69-2.39-3-4.13-.49-2.13-.91-4.29-1.55-6.38A29.27,29.27,0,0,0,470.26,459c-4.16-.94-8.29-2-12.4-3a78.34,78.34,0,0,1-20.53-8.42c-5.23-3.61-9.52-8.4-13.76-13.1-7.57-8.22-13.18-18-17.79-28.17-4-8.76-7-18.18-7.28-27.87-.28-7.7-.14-15.48,1.89-23,2.91-11.1,6.75-22.17,12.84-31.95,6.22-9,13.08-17.72,21.45-24.79A59,59,0,0,1,451,289.25c4-2.15,8.57-3,13-3.85,3.63-.85,7.18-2.16,11-1.93,6.82.29,13.83.62,20.3,3A66,66,0,0,1,504,291a47.16,47.16,0,0,1,14.29,8.84,125.67,125.67,0,0,1,11,12.11c3.5,4.58,7.13,9.07,9.63,14.3,1.9,3.87,4.63,7.31,6,11.42a158.92,158.92,0,0,1,5.32,24.21,127.51,127.51,0,0,1,.86,17.69c-.22,6-1.61,11.86-3,17.66-2.11,7.26-3.78,14.74-7.35,21.45A96.66,96.66,0,0,1,515,449a67.91,67.91,0,0,1-12.54,6.94,111.69,111.69,0,0,1-12.89,5.58c5.21,1,7.21,6.41,3.12,10.1C490.67,473.17,488,474.49,485.44,474.26Z"/><path d="M491.68,869.9c-.88-8.17-2.88-16.17-4-24.31q-4.79-38.7-7.52-77.61c-1.86-34.86-.49-69.82-.9-104.71-.1-39.31-.8-78.62,0-117.92.06-26.51,1.49-53,1-79.51,0,0,0,.09,0,.13s0,0,0,.08a1.82,1.82,0,0,1,3.55-.78,11.64,11.64,0,0,1,.1,2.05q.15,17.88-.26,35.76c-.61,17.26-.69,34.53-1,51.8-.52,39.08.22,78.17.21,117.25.33,31.28-.8,62.87.78,94.08,1.19,17.47,2.84,34.9,4.52,52.33,1.31,10.36,2.15,20.78,3.77,31.1,1.16,6.6,2.56,13.16,3.31,19.82a1.82,1.82,0,1,1-3.62.44Z"/><path d="M621.27,677.45l.16.36a18.86,18.86,0,0,0,2.42-5.67,19.12,19.12,0,0,1-2.25-.47c.47,1.23-.77,2.1-1.3,3.06C620.07,675.74,620.94,676.55,621.27,677.45Zm-2.12,4.1c-.85-1.14-1-2.63-1.82-3.83-1.5-2.36-.47-5.38,1.59-7a1.84,1.84,0,0,1,1.18-3.4,7.53,7.53,0,0,1,1.59.63c2,.85,5.61.16,5.95,3.07C627.73,674.24,623.53,685.24,619.15,681.55Z"/><path d="M621.72,668.15a1.69,1.69,0,0,1,1-.59c1.67-.38,3.33-.85,5-1.25,5-1.37,10-2.24,15-3.56a61.45,61.45,0,0,0,13.83-7,53.13,53.13,0,0,0,11.69-10.23c6.72-7.72,13.34-15.71,18-24.86,1.67-3.4,3-6.94,4.51-10.44,4.62-11.59,10-23.21,12.73-35.39,1.38-6.36,2.22-12.91.76-19.34-.4-3.44-.62-6.92-1.73-10.23-1.38-4.31-3.27-8.43-5.06-12.59a69.46,69.46,0,0,0-8.23-13.05,178.7,178.7,0,0,0-13-13.28c-6.45-6.09-13-12.22-21.41-15.33-7.82-2.24-15.52-5.3-23.72-4.63-9.28.62-18.15,4.18-26.72,7.53-7,3.38-12.85,8.39-18.63,13.48-3.61,3.14-7.29,6.22-10.66,9.62a44.87,44.87,0,0,0-6,8.63c-1.31,3-2.41,6.12-3.69,9.15-4.5,10.67-7.52,21.66-7.51,33.25a155.63,155.63,0,0,0-.14,16.87c.05,5.75.16,11.61,1.92,17.14,1.19,3.85,3.3,7.31,5.06,10.91,2,3.93,3.62,8.08,5.93,11.86a36.87,36.87,0,0,0,5.2,6c2.28,2.6,4.3,5.37,6.67,7.88,5,4.94,10.19,9.63,15.09,14.66a68.91,68.91,0,0,0,17.67,11.39C617.47,665.91,619.43,667.35,621.72,668.15Zm-3.88,2.27c-4.59-2.84-9.72-4.67-14.12-7.82a69.3,69.3,0,0,1-9-6.92c-2.66-2.56-5.13-5.32-7.89-7.78a100.59,100.59,0,0,1-12.91-13.75,62.79,62.79,0,0,1-5.39-6,42.31,42.31,0,0,1-4.07-7.37c-3-7-7.6-13.48-9.16-21.08-1.21-5.7-1.08-11.56-1.23-17.36-.38-5.76.18-11.5.28-17.26.36-11.71,4-22.94,8.52-33.65.73-1.77,1.41-3.55,2.11-5.33a39.39,39.39,0,0,1,6.07-9.93c3.83-4.53,8.59-8.14,13-12.08s8.93-7.76,14-10.81c4.9-3.16,10.5-4.88,16-6.78,7.42-2.52,15.19-4.39,23.08-3.68a56.61,56.61,0,0,1,11,2.46c3.66,1.06,7.38,1.89,10.83,3.53,8.84,4,15.71,11.09,22.64,17.61,5.3,5.26,10.83,10.44,14.73,16.87a61.76,61.76,0,0,1,5.28,9.81c1.93,4.5,4,9,5.15,13.76.67,2.84.8,5.75,1.19,8.63a39.69,39.69,0,0,1,.77,8.42,85,85,0,0,1-3.8,20c-2.49,7.41-5.44,14.66-8.34,21.92-3,7-5.51,14.3-9.43,20.88a146.74,146.74,0,0,1-13.71,18.45c-3.8,4.41-7.75,8.81-12.55,12.16a72.05,72.05,0,0,1-15.16,8.24,79,79,0,0,1-11,2.82c-3.7.8-7.35,1.83-11,2.72C622.41,673.33,619.55,671,617.84,670.42Z"/><path d="M592.76,955c-1.23-27.78,2-55.46,4.69-83.06,1-11.29,2.87-22.48,4.3-33.72,1.39-14.13,3.73-28.13,6-42.15,2.07-14,3.06-28.07,4.82-42.08,1.72-15.41,4.1-30.76,4.94-46.26.46-8.54.6-17.17,2-25.61a1.83,1.83,0,0,1,3.42,1.26,2.14,2.14,0,0,0,.06-.27c-1.77,11.8-1.48,23.58-2.69,35.4-1.92,19.59-4.88,39.07-6.61,58.68-1.57,16.75-4.81,33.25-7,49.91-1.41,14.23-3.8,28.34-5.34,42.56-2.09,22.08-4.76,44.12-5.15,66.32-.24,6.52.22,13,.19,19.55A1.82,1.82,0,0,1,592.76,955Z"/></svg>