<?xml version="1.0" encoding="UTF-8"?><svg xmlns="http://www.w3.org/2000/svg" xmlns:xlink="http://www.w3.org/1999/xlink" viewBox="0 0 1000 1000"><defs><style>.cls-1{fill:#7d9103;}.cls-1,.cls-2,.cls-3,.cls-4,.cls-5,.cls-6,.cls-7,.cls-8,.cls-9,.cls-10,.cls-11,.cls-12,.cls-13,.cls-14{stroke-width:0px;}.cls-2{fill:#d5c8be;}.cls-3{fill:#d45318;}.cls-4{fill:#d1d1d3;}.cls-6{fill:#fcc627;}.cls-7{fill:none;}.cls-8{fill:#d5c7be;}.cls-15{clip-path:url(#clippath-1);}.cls-9{fill:#4c413d;}.cls-10{opacity:.2;}.cls-11{fill:#fff;}.cls-16{clip-path:url(#clippath);}.cls-12{fill:#cb9c8c;}.cls-13{fill:#665d58;}.cls-14{fill:#e2a903;}</style><clipPath id="clippath"><path class="cls-7" d="m514.59,518.41h252v119.29h-252v-12l7.06-13.88s46.47-18.47,42.71-22.47-50.12-22.94-50.12-22.94l.35-48Z"/></clipPath><clipPath id="clippath-1"><path class="cls-7" d="m66.35,410.41h353.65s-110.82,110.47-110.65,130.06,10.59,35.47,10.59,35.47l19.76,18.35,80.29,21v28.06H66.35v-232.94Z"/></clipPath></defs><g id="_レイヤー_4"><path class="cls-10" d="m730.58,807.72c.47,9.07-3.42,16.2-12.06,19.55-6.95,2.86-14.45,4.14-21.85,5.24-7.17,1.07-14.46,2.02-21.69,2.65-2.57.22-5.4.47-7.96.71,0,0-1.58.15-1.58.15l-.6.06c-.55.39-1.53.92-2.11,1.3-6.85,4.21-14.34,7.32-22.17,9.12-6.66,1.65-13.4,3.25-20.2,4.28-9.62,1.54-19.46,1.13-29.09,2.57-8.53,1.07-13.46,4.35-20.28,9.16-4.83,3.42-9.33,7.34-14.36,10.49-5.46,3.5-11.69,6.02-18.19,6.6-9.3.67-18.75-.63-27.77-2.86-6.27-1.5-12.25-4.06-18.32-6.18-5.93-2.22-12.33-1.51-18.46-.66-7.9,1.06-15.7,3.01-23.65,3.67-5.62.49-11.32.31-16.96.26-6.44-.11-12.94-.21-19.36-.86-8.59-.83-17.38-3.09-24.33-8.42-2.55-1.95-4.76-4.39-6.86-6.8-1.71-1.92-3.43-4.06-5.86-5.1-3.51-1.48-7.47-1.61-11.22-1.96-8.75-.58-17.59.02-26.35.02-19.18-.14-38.63-.19-57.4-4.59-12.92-2.79-25.35-6.59-31.92-19.19-2.15-4.03-3.4-8.59-3.34-13.16.14-5.02,1.21-10.14,3.45-14.65,2.1-3.92,5.08-7.39,7.98-10.73,4.56-5.12,9.72-9.93,15.24-14,10.16-7.62,22.03-12.61,33.96-16.71,8.86-3.15,17.89-6.3,26.7-9.59,13.86-4.95,27.17-11.41,40.73-17.08,10.74-4.11,21.84-7.38,32.65-11.31,3.81-1.34,7.92-2.87,11.7-4.27.06.02.7-.3.75-.28,0,0,25.91,4.2,25.91,4.2,1.17-.31,3.5-1.02,4.67-1.31,9.73-2.53,19.88-4.34,29.68-6.6,14.13-3.22,28.41-7.07,42.58-10.13,19.57-4.46,39.99-5.51,59.94-3.36,14.57,1.41,29.36,3.78,43.18,8.73,11.21,3.99,21.69,10.23,31.34,17.13,16.23,11.2,29.75,26.74,37.4,45,9.53,4.56,19.65,8.86,27.31,16.34,5.84,5.94,8.4,14.4,8.76,22.57Z"/></g><g id="_レイヤー_5"><path class="cls-3" d="m609.35,226.97c3.8,4.15.78,11.48-4.8,11.81-1.28.86-2.38,1.97-3.51,3.01-8.02,8.24-12.4,19.07-17.92,28.97-12.52,21.34-17.7,45.61-20.87,69.88,3.32-3.75,6.58-7.54,9.87-11.31,6.27-6.89,16.79,2.48,10.67,9.53-6.96,6.24-21.6,30.6-31.45,25.47-8.52-3.9-2.45-27.35-1.71-35.26,1.73-10.95,3.27-21.98,6.9-32.5,3.91-13.53,34.3-86.16,52.82-69.6Z"/><path class="cls-13" d="m756.42,484.3c20.48,56.37,20.32,102.58,6.56,160.31-7.65,40.05-22.67,79.36-46.9,112.36-5.87,6.6-9.95,17.01-17.54,21.8,1.44,5.22,1.72,10.81,1.51,16.19-.12,5.54-1.54,11.01-4.56,15.69-3.49,5.11-11.31,14.55-17.81,13.17-8.53,6.96-20.89,8.67-31.63,7.83-1.32-.05-2.52-.23-3.58-.5-9.38,6.58-22.93,5.82-33.5,2.8-11.52-3.35-10.67-16.04-16.6-24.18-1.5-2.54-4.28-4.23-7.01-5.88-2.78,5.33-5.67,10.59-8.93,15.64-15.46,22.48-32.57,38.06-61.59,35.62-2.57-.14-5.22.07-7.57-1.09-.31,0-.62,0-.93-.01-4.85.31-10.87,1.47-15.29-.91-2.06.65-4.43.33-6.58-1.56-3.82-3.17-6.4-7.08-7.99-11.42-7.83,8.49-19.19,13.83-30.65,12.17-3.22-.51-5.59-1.9-7.29-3.84-1.26.38-2.72.38-4.32-.14-1.11-.3-2.16-.66-3.15-1.08-1.2,1.85-3.29,3.11-6.2,2.91-16.63.3-27.13-10.57-28.47-24.59-.89.32-1.74.65-2.49,1.01-11.53,3.66-27.76,8.31-39.27,2.69-2.29.98-5.41,1.23-9.36.21-10.24-.72-17.66-7.08-19.55-15.43-14.39-6.28-13.5-18.41-7.9-31.21,3.62-7.01,9.71-12.39,14.61-18.49,5.39-5.75,12.25-9.84,17.79-15.44,1.24-1.12,2.38-2.43,3.57-3.66-4.07-5.91-7.9-11.98-11.91-17.91-8.03-10.53-14.28-22.03-19.24-34.29-6.21-12.59-12.48-25.28-15.63-39.04-5.99-26.43-9.67-53.47-8.75-80.62-.36-26.37.78-53.05,8.66-78.38,4.03-13.54,12.56-24.88,18.13-37.72,7.07-16.5,14.51-32.79,24.14-48,4.78-8.57,8.79-17.52,13.77-25.98,3.28-6.33,9.07-12.09,12.34-18.11,5.36-9.75,14.82-16.14,21.92-24.52,5.51-4.62,11.77-8.2,18.11-11.61-7.05-15-5.31-56.75-5.77-66.72.46-25.89,3.84-55.18,22.72-74.48,9.73-6.99,25.14-3.11,30.32,7.75,7.27,16.7,9.94,35.11,14.91,52.59,5.01,18.3,11.62,36.39,13.83,55.3,6.19.11,14.25.92,19.76,3.49,4.74-9,10.29-17.65,15.31-26.1,9.1-15.24,20.48-29.34,31.68-42.77,7.67-7.74,16.12-14.67,24.53-21.57,8.42-5.43,18.2-14.03,28.84-10.28,10.85,4.29,17.97,15.18,21.8,25.79,4.51,27.43,3.39,56.46-5.07,83.08-.58,2.01-1.21,4-1.88,5.97,16.2,2.17,36.49,23.56,48.52,31.7,8.12,6.29,13.42,15.18,20.59,22.37,12.11,11.39,20.72,25.78,30.29,39.25,13.06,21.89,21.01,46.39,30.72,69.86Zm-151.87-245.51c5.58-.34,8.6-7.67,4.8-11.82-18.52-16.56-48.91,56.07-52.82,69.6-3.63,10.52-5.17,21.56-6.9,32.5-.74,7.91-6.81,31.36,1.71,35.26,9.85,5.14,24.49-19.23,31.45-25.47,6.12-7.06-4.39-16.43-10.67-9.53-3.28,3.77-6.55,7.56-9.87,11.31,3.17-24.27,8.35-48.54,20.87-69.88,5.52-9.9,9.91-20.73,17.92-28.97,1.13-1.04,2.23-2.14,3.51-3.01Zm-107.72,532.54c-.31-.72-.51-1.54-.59-2.47-.02-2.09-.36-4.11-.88-6.09-2.14,3.81-4.28,7.62-6.06,11.56-1.1,2.79-2.67,5.99-4.81,8,.88,3,1.53,6.36,1.99,9.87,3.77-6.8,6.36-14.29,10.34-20.87Zm-78.71,53.02s.02,0,.04.01c-.08-.41-.13-.82-.15-1.2v.29c.04.3.07.6.11.9Z"/></g><g id="_レイヤー_1"><path class="cls-9" d="m483.07,300.72c-.03,2.88-.19,7.66-2.12,9.87-.54.63-1.36.93-2.14,1.15-.94.27-1.92.5-2.86.73-3.18.76-6.44,1.27-9.65,1.86-3.91.7-7.97,1.31-11.91.48-1.55-.36-4.94-1.18-4.39-3.32.55-1.2,1.57-2.14,2.3-3.24,1.98-2.63,3.56-5.54,5.29-8.34,3.81-6.1,6.73-12.91,7.72-20.08.83-9.55-.72-19.14-2.05-28.58-.91-6.05-1.61-12.18-2.52-18.23-.78-5.29-1.79-10.6-2.56-15.89.81,3.29,2.87,12.63,3.98,15.6,1.73,5.24,3.55,10.54,4.97,15.87,1.44,5.35,2.97,10.77,4.35,16.14,1.12,4.46,2.1,9.03,3.63,13.38,1.12,3.24,2.48,6.44,4,9.51,2.13,4.06,3.94,8.43,3.96,13.09Z"/><path class="cls-9" d="m562.82,611.56c0,4.84-1.57,9.6-3.57,13.95-1.9,4.01-4.66,7.56-7.57,10.88-7.44,8.73-16.95,15.31-26.33,21.78-12.42,8.39-24.99,16.88-39.04,22.33-6.42,2.53-13.36,3.52-20.22,3.82-4.75.25-9.55-.13-14.27-.62-6.19-.6-12.39-1.94-17.97-4.76-7.73-3.83-14.81-8.94-21.34-14.56-2.15-1.85-4.37-3.72-6.59-5.49-1.66-.68-7.74-8.96-9.02-10.22,12.67,6.69,26.12,10.64,40.5,10.68,6.87.15,13.87.44,20.71-.44,13.27-1.63,26.5-4.23,39.19-8.5,8.79-2.91,16.77-7.85,24.77-12.41,10.44-6.1,20.69-12.72,30.05-20.41,2.56-2.11,5.06-4.39,7.5-6.63,1.65-1.49,2.95-3.19,3.21.6Z"/><path class="cls-9" d="m549.44,704.56c-.06,2.74-3.31,5.48-5.33,7.06-1.73,1.37-3.47,2.75-5.17,4.15-1.67,1.41-3.44,2.71-5.21,3.99-1.94,1.39-3.92,2.79-6.1,3.79-1.53.74-3.14,1.32-4.72,1.93-1.02.42-1.97,1-2.9,1.59-3.74,2.5-8.06,4.8-10.27,8.91-.76,1.71-1.49,3.45-2.25,5.16-.8,1.92-1.67,3.85-2.13,5.88-.93,4.46,0,9.04,1.07,13.39.9,3.68,1.73,7.39,2.43,11.11-1.22-1.84-7.24-10.04-7.83-11.99-1.5-2.74-3.59-6.54-6.87-7.26-1.31-.08-2.28,1.01-3.13,1.85-2.15,2.17-4.28,4.57-5.28,7.51-1.2,3.62-2,7.4-2.95,11.09-.62,2.19-1.04,4.58-2.3,6.51-1.19,1.6-1.93,0-2.42-1.16-.49-1.1-.96-2.23-1.5-3.3-1.09-2.17-2.59-4.12-4.14-5.98-2.51-3.06-5.58-5.66-9.08-7.52-2.8-1.61-5.79-2.91-8.45-4.75-4-2.67-7.21-6.42-9.74-10.48-4.33-2.47-8.24-5.08-9.99-9.99-1.4-3.67-2.61-7.59-2.31-11.56.25-3.15,1.58-8.28,5.67-7.57,5.91,1.93,11.16,5.44,16.79,8,5.14,2.25,10.74,3.34,16.31,3.92,4.23-.47,8.54-1.16,12.58-2.55,5.75-2.05,11.51-4.34,17.1-6.79,7.02-3.1,13.34-7.58,20.04-11.27,3.83-2.31,7.68-4.68,11.84-6.37,3.93-1.54,8.41-3.02,12.59-1.62,1.9.57,3.6,2.22,3.66,4.29Z"/><path class="cls-9" d="m405.9,799.46c-.08,3.67-.34,7.71-2.54,10.8-1.43,1.76-3.32,3.07-5.01,4.57-2.86,2.55-5.43,3.2-9.13,3.7-2.36.24-7.01.97-8.96-.44-.91-.85.29-1.9.86-2.57.74-.83,1.5-1.7,2.21-2.55,2.44-2.86,3.07-4.88,3.44-8.56.5-3.96.58-7.99.24-11.96-.5-6-1.54-12.13-4.21-17.58-2.88-5.43-7.57-9.71-11.86-14.02,3.01,1.99,11.55,6.89,14.02,9.32,2.57,2.28,4.83,4.95,7.35,7.29,6.46,5.74,13.75,12.7,13.59,22.01Z"/><path class="cls-9" d="m699.21,607.57c.14,7.19-.98,14.35-1.85,21.47-.67,5.43-.99,10.96-1.8,16.37-1.14,7.06-2.03,14.23-3.28,21.28-1.12,5.7-3.35,11.16-5.5,16.54-1.85,4.63-3.52,9.39-5.58,13.93-4.35,9.99-11.17,18.62-18.38,26.68-5.24,6.04-9.35,12.85-7.3,21.13.55,2.16,1.68,4.2,3.2,5.83,1.27,1.67,11.18,9.17,6.65,10.24-7.46,1.54-15.36.68-22.6,3.31-4.46,1.62-8.6,4.1-12.49,6.79-3.47,2.43-6.88,5.1-9.63,8.34-5.42,6.39-8.4,14.42-11.26,22.19-.97,2.32-3.65,8.86-5.83,8.21-.86-.36-1.51-1.11-2.23-1.68-1.28-1.13-2.58-2.28-3.87-3.4-2.9-2.47-5.71-5.17-7.47-8.59-1.03-1.92-2.01-4.01-2-6.24,0-2.49.49-5.02,1.47-7.31,1.25-2.59,2.79-5.05,4.29-7.5,2.05-3.21,4.33-6.3,6.26-9.58,2.78-4.65,5.25-9.49,8.31-13.97,4.45-6.72,10.68-12,16.3-17.7,3.57-3.53,6.86-7.43,9.52-11.69,2.37-3.72,4.52-7.6,7.16-11.14,5.69-7.42,11.03-15.19,14.93-23.73,2.34-5.12,3.8-10.6,5.61-15.93,1.4-4.04,2.54-8.16,3.56-12.31,1.61-6.16,2.75-12.44,3.21-18.79.31-5.75.16-11.54-.09-17.29-.22-3.85-.73-7.69-.66-11.55,0-10.48-.43-20.98-1.45-31.4-.98-8.61-2.78-17.12-4.77-25.54-.84-4.47-1.04-9.08-1.55-13.6-1.19-10.62-2.4-21.29-3.57-31.91,1.21,1.39,8.6,8.75,9.08,10.35,1.32,2.45,2.48,5.02,3.85,7.45,2.96,5.54,6.75,10.64,9.35,16.38,1.34,2.88,2.66,5.82,4.15,8.62,1.9,3.6,3.95,7.17,5.45,10.96,2.6,6.5,4.86,13.18,6.68,19.94,2.38,8.07,3.98,16.44,4.13,24.87Z"/><path class="cls-2" d="m385.5,427.78c0,1.63-.15,3.27-.43,4.88-.21,1.17-.53,2.33-.75,3.5-.43,2.01-.46,4.06-.37,6.1.05,1.94.32,3.87.54,5.79.21,2.13.55,4.26.78,6.39.16,2.93.04,5.92-.67,8.77-1.02,3.49-4.47,5.53-7.32,7.4-1.09-.1-2.16-.34-3.22-.56-1-.19-2.03-.32-3.01-.6-2.7-.86-5.39-1.88-7.88-3.25-.95-.53-1.89-1.14-2.56-2.02-.92-1.26-1.81-2.56-2.56-3.93-2.22-4-2.55-8.79-1.63-13.21.84-3.4,2.12-6.69,3.28-9.99.86-2.25,1.3-4.66,2.37-6.84.63-1.35,1.6-2.51,2.53-3.66,1.38-1.77,2.79-3.53,4.45-5.06.59-.58,1.15-1.21,1.81-1.73.65-.49,1.38-.88,2.1-1.26,1.62-.85,3.4-1.59,5.26-1.43,2.02.16,3.89,1.32,5.13,2.88,1.61,2.25,2.05,5.11,2.15,7.81Z"/><path class="cls-2" d="m530.33,465.34c-.1,4.6-1.03,9.23-2.18,13.68-.53,1.92-1.53,3.71-2.9,5.16-.74.8-1.55,1.57-2.55,2.02-1.64.86-3.54.75-5.3.44-2.32-.37-4.7-.92-6.73-2.16-1.7-1.19-3.22-2.63-4.99-3.71-1.72-1.13-3.44-2.28-4.95-3.69-1.26-1.26-2.55-2.54-3.54-4.03-1.53-2.66-2.27-5.98-1.34-8.97.69-1.88,1.86-3.53,2.77-5.31.99-1.87,1.76-3.85,2.49-5.84,1.24-3.32,2.12-6.76,3.42-10.06.7-1.69,1.45-3.38,2.33-4.99.33-.6.66-1.21,1.01-1.8.25-.4.55-.78.66-1.25.79-2.17,1.42-4.82,3.62-5.99,1.79-.76,3.9-.74,5.73-.12,1.02.37,1.82,1.14,2.54,1.92,1.02,1.12,1.98,2.31,2.91,3.51.66.85,1.38,1.67,1.94,2.6.84,1.35,1.2,2.92,1.64,4.42.6,2.09,1.01,4.23,1.35,6.37.36,2,.74,4.01.98,6.03.2,1.83.51,3.66.75,5.49.19,2.07.33,4.17.37,6.25Z"/></g><g id="_レイヤー_6"><path class="cls-12" d="m625.32,235.6c-.41,1.35-4.77,11.38-4.56,12.55-.68,3.56-1.49,7.13-2.77,10.53-1.26,3.37-2.92,6.61-4.11,10.01-1.17,3.39-1.82,6.95-2.61,10.44-1.11,5.11-2.2,10.24-3.28,15.35-1.01,4.82-1.87,9.73-3.77,14.3-1.65,3.99-3.33,8.03-5.45,11.8-3.07,5.14-6.69,10.02-10.88,14.31-3.25,3.49-7.62,5.58-11.88,7.57-2.71,1.29-5.52,2.37-8.31,3.48-2.78.97-6.96,3.07-9.57.91-1.08-.99-1.03-2.6-1.04-3.95.04-1.31.14-2.62.26-3.92.58-5.1,1.42-10.19,2.55-15.19,1.29-5.51,3.06-10.92,4.83-16.3,3.89-12.03,8.58-23.79,13.59-35.39,4.71-11.32,10.05-22.65,18.27-31.89,1.6-1.67,3.48-3.06,5.31-4.46,2.05-1.52,4.1-3.13,6.42-4.22,5.19-2.57,12.44,1.43,16.99,4.06Z"/><path class="cls-8" d="m587.52,558.66c.02.67-.47,1.34-.71,1.94-.6,1.21-1.37,2.49-2.08,3.64-2.3,3.61-4.91,7.1-7.85,10.21-4.44,4.68-10.16,7.82-15.61,11.13-7.77,4.85-15.83,9.31-24.33,12.77-4.22,1.69-8.31,3.77-12.63,5.21-9.85,3.18-20.3,3.7-30.57,3.82-5.64.03-11.31.28-16.94-.17-3.15-.32-6.27-1-9.4-1.47-2.92-.49-5.88-.77-8.82-1.14-5.36-.81-10.69-1.89-15.95-3.16-3.86-.94-7.77-1.84-11.5-3.22-5.72-2.22-10.81-5.82-15.6-9.59-1.88-1.42-3.69-3-5.77-4.14-1.62-.7-3.47-.17-5.06.38-1.94.7-3.69,1.84-5.43,2.94-2.29,1.46-4.65,2.89-7.04,4.19-1.99,1.1-4.05,2.15-6.15,3.03-1.22.5-2.48.97-3.79,1.11-5.28.17-10.6.22-15.87-.16-2.19-.22-4.32-.9-6.46-1.43-5.87-1.31-11.6-3.31-17.05-5.86-4.95-2.35-9.29-5.88-12.73-10.14-2.55-2.77-4.91-5.74-6.75-9.03-2.15-3.61-3.96-7.47-4.79-11.61-1.69-8.15,10.19,4.83,11.67,6.19,7.04,7.18,9.94,12.03,20.19,15.15,3.55,1.04,7.14,2.02,10.8,2.63,3.03.45,6.11.48,9.16.66,6.66.41,13.62.63,19.91-1.91,1.98-.8,3.93-2.08,4.97-3.99.67-1.26.26-2.75-.57-3.83-2.04-2.67-4.87-4.6-7.29-6.89-1.69-1.58-3.17-3.41-4.36-5.4-.61-1.01-1.12-2.08-1.54-3.18-.45-1.03-.78-2.34.12-3.23,3.28-2.79,8.03-1.4,11.6.07,1.92.79,3.78,1.78,5.55,2.87.35.21.81.49,1.16.7,0,0,9.14,7.48,9.14,7.48,5.54-3.83,11.17-7.66,16.96-11.12,2.39-1.4,4.86-2.71,7.23-4.14,1.88-1.15,3.86-2.17,5.93-2.91,1.06-.35,2.16-.84,3.29-.8,1.36.19,1.41,1.92,1.18,2.98-.55,2.46-2.1,4.56-3.54,6.58-1.62,2.19-3.34,4.31-5.1,6.39-2.43,2.89-4.85,5.91-6.1,9.52-.54,1.56-1.03,3.2-.94,4.88.17,3,2.39,5.36,4.58,7.21,6.42,5.19,12.2,5.66,19.83,7.34,3.62.8,7.05,2.3,10.69,3.03,4.7.95,9.55.87,14.32.97,4.16.09,8.32-.11,12.46-.48,3.08-.27,6.2-.5,9.25-1.03,4.86-.77,9.58-2.2,14.3-3.51,4.1-.98,8.31-1.46,12.37-2.63,3.92-1.05,7.7-2.62,11.49-4.03,3.6-1.34,7.31-2.55,10.91-3.88,7.84-3.02,15.84-5.85,23.08-10.2,3.64-2.1,7.18-4.41,10.55-6.93,1.27-.94,2.55-1.91,3.83-2.84.56-.35,1.05-.91,1.7-1.06l.06.03.04.07Z"/><path class="cls-8" d="m362.19,799.01c-.28,5.04-.88,10.12-2.47,14.93-.76,2.08-1.42,4.48-3.23,5.9-1.74,1.02-3.84,1.08-5.79,1.33-3.26.35-6.58.44-9.79-.34-6.01-1.19-9.69-4.65-13.79-8.88-3.08-3.17-7.27-6.09-8.02-10.74-.35-3.11.06-6.31.85-9.33.94-3.11,2.49-6.03,4.03-8.89,2.07-3.96,5.05-7.35,8.15-10.54,3.95-4.16,8.07-8.25,12.43-11.98l11.48,1.15c.52,1.22.35,2.58.04,3.83-.3,1.38-.68,2.77-1.08,4.13-.89,3.08-2.15,6.04-3.29,9.03-1.74,4.52-4.26,11.11.47,14.65,1.23.9,2.73,1.36,4.22,1.63,1.21.23,2.46.37,3.57.93,1.31.61,2.32,1.66,2.25,3.19Z"/><path class="cls-8" d="m733.61,693.8c-1.48,4.8-4.06,13.27-5.16,17.99-1.36,5.53-2.82,11.14-5.55,16.18-3.95,7.82-8.85,15.13-13.93,22.25-3.03,4.12-5.71,8.55-9.45,12.09-4.43,4.41-9.01,9-11.35,14.91-2.31,5.34-1.22,11.31-2.48,16.88-.46,2.29-1.51,4.4-2.39,6.54-1.45,3.59-3.07,7.13-4.92,10.53-2.11,3.58-5.5,6.26-8.98,8.44-5.14,2.69-11.05,3.42-16.66,4.58-3.78.82-7.61,1.57-11.36,2.5-3.79,1-7.54,2.29-11.38,3.1-4.9.91-12.18,1.49-16.03-2.18-1.58-1.47-2.26-4.08-.83-5.88,1.22-1.47,3.3-1.6,5.04-2.02,3.91-.81,7.89-1.52,11.69-2.75,3.37-.99,6.16-3.22,9.1-5.06,2.85-1.92,5.95-3.57,8.43-5.98,2.41-2.37,4.23-5.26,6.16-8.01,2.27-3.33,4.49-6.77,5.77-10.61.6-1.44,1.16-4.49,2.95-4.79.59-.06,1.2.03,1.79.06.95.05,1.92.02,2.87-.04,4.93-.4,11.41-1.04,14.55-5.35.7-1.2,1.06-2.57,1.44-3.9.23-.88.39-1.8.32-2.71-.07-.94-.34-1.86-.61-2.76-.6-1.85-1.33-3.68-2.41-5.3-.66-.98-1.5-1.83-2.4-2.58-.59-.54-1.35-.99-1.67-1.75-.21-.66.62-.96,1.11-1.15.5-.18,1.01-.38,1.5-.58,1.7-.67,3.14-1.85,4.61-2.91,9.31-6.67,17.26-14.98,24.97-23.39,9.98-10.92,19.84-22.41,25.29-36.36Z"/><path class="cls-8" d="m454.83,198.43c.03,2.28-1.08,2.94-2.93,3.81-1.58.81-3.18,1.61-4.61,2.66-2.39,1.91-4.33,4.38-6.01,6.93-2.61,4.21-4.11,9-5.52,13.71-1.47,4.97-2.95,9.98-3.6,15.13-1.04,9.06-1.4,18.2-1.44,27.31,0,6.93.06,13.86.43,20.78.22,4.33.4,8.69,1.04,12.99.83,5.38,2.1,10.7,2.77,16.11.18,1.31.39,2.65.49,3.97.05.78.12,1.62-.22,2.35-2.3,4.56-11.87,8.83-13.97,2.05-1.39-4.2-2.27-8.55-3.69-12.74-2.45-6.41-3.55-13.25-4.05-20.07-.36-4.76-.27-9.58-.22-14.35.04-5.29.07-10.64.33-15.92.42-6.58,1.04-13.21,2.2-19.71,1.18-5.86,3.02-11.62,4.97-17.27,2.12-6.05,4.9-11.89,8.23-17.36,3.9-6.67,9.06-12.67,15.4-17.12l10.23,5.45c.1.41.19.89.19,1.32Z"/><path class="cls-8" d="m621.47,233.33v.16c-3.2-1.51-6.71-3.03-10.32-2.76-3.24.41-5.88,2.58-8.44,4.43-1.88,1.42-3.8,2.82-5.51,4.45-2.04,2-3.72,4.38-5.39,6.69-7.06,9.66-11.35,20.94-16.07,31.84-3.97,9.42-7.62,18.99-10.8,28.7-1.91,5.76-3.82,11.56-5.17,17.49-1.15,5.39-2.11,10.85-2.56,16.35-1.09,5.09-1.98,10.28-2.94,15.4-.52,2.84-2.36,8.85-6.12,5.92-1.12-.81-1.99-1.94-2.53-3.22-.78-1.76-1.07-3.68-1.29-5.57-.41-3.47-.38-6.97-.35-10.46-.08-10.2,1.11-20.36,2.93-30.38,2.54-13.07,5.96-25.95,9.7-38.72,1.48-4.86,2.83-9.81,4.91-14.46,1.6-3.51,3.63-6.83,5.53-10.18,2.49-4.45,5.56-8.55,8.72-12.53,1.87-2.37,3.77-4.75,5.61-7.16,1.54-1.98,2.98-4.09,4.7-5.92,6.04-6.39,15.09-8.29,23.55-8.77l8.88,7.52c.38.74.76,1.55,1.07,2.33,1.1,2.82,1.78,5.83,1.9,8.86Z"/><path class="cls-8" d="m628.82,261c.03,6.65-.69,13.3-1.92,19.83-.88,5.13-1.83,10.31-3.38,15.29-.84,2.78-1.75,5.66-2.82,8.37-.79,1.88-1.61,3.94-3.1,5.38-.71.67-1.59.72-1.62-.49.02-.95.17-1.91.27-2.85.34-2.74.79-5.49.97-8.25.19-3.72.05-7.47.1-11.19,0-8.63.16-17.28-.14-25.9-.08-.35.13-.81.27-1.13.23-.57.5-1.26.7-1.84.69-1.89,1.25-3.87,1.7-5.82.4-1.7.75-3.46,1.07-5.17-.19-.4,3.26-8.6,3.41-9.14,1.64,3.29,2.27,6.98,2.93,10.57.77,4.07,1.56,8.2,1.55,12.36Z"/></g><g id="_レイヤー_3"><path class="cls-5" d="m403.27,572.02c-5.71-2.61-9.96-7.46-14.88-11.23-9.96-4.65-4.12-18.88,5.81-13.48,5.39,3.59,9.68,8.78,15.37,11.87,8.36,4.1,2.11,16.92-6.31,12.84Z"/><path class="cls-5" d="m405.3,569.84c-6.34-8.47,6.04-13.47,11.39-17.91,4.98-3.49,12.1-11,17.77-4.63,6.12,7.85-4.75,12.43-9.83,16.53-5.68,3.37-12.81,12.91-19.33,6.02Z"/><path class="cls-5" d="m370.32,606.24c-21.69-4.06-42.35-16.37-54.07-35.39-6.28-9.75-6.09-22.08-6.33-33.29,2.94-15.76,3.52-34.62,15.87-46.32,4.79-3.75,12.6-.3,12.06,6.03-.14,2.46-1.67,4.83-3.89,5.91-1.44,1.98-2.51,4.18-3.52,6.41-5.09,16.8-11.25,42.71.65,57.61,14.45,19.79,54.92,39.2,70.34,11.02,1.83-5.47.71-14.1,8.97-13.74,3.84.24,6.98,3.72,6.68,7.59-.58,23.1-25.29,37.95-46.75,34.18Z"/><path class="cls-5" d="m483.04,617.88c-14.78-.12-29.57-1.66-43.3-7.47-14.52-5.66-31.5-12.27-36.24-28.73-2.74-5.48-.71-14.14,6.58-13.53,10.22,1.06,2.97,13.11,16.31,20.59,15.11,7.77,31.37,14.5,48.62,14.47,33.74,2.79,66.63-11.75,92.93-31.98,5.76-4.31,9.83-10.43,13.57-16.47.97-1.77,2.32-3.18,4.28-3.83,5.64-2.14,11.71,4.58,8.67,9.94-2.59,4.52-5.56,8.82-8.79,12.91-10.52,12.02-25.06,20.19-38.85,27.97-19.8,9.38-41.68,16.43-63.78,16.14Z"/><path class="cls-5" d="m609.35,514.64c-7.84-4.17-1.68-12.28.64-17.98,2.95-7.49,5.5-15.22,6.67-23.21.95-17.15-1.1-34.8-6.54-51.11-3.29-7.55-7.52-14.67-11.18-22.05-1.66-3.94-5.93-6.72-5.69-11.25.29-3.98,3.87-7.08,7.88-6.67,7.91.8,12.6,17.41,16.83,23.59,11.81,20.4,16.39,55.23,11.16,78.17-2.45,9.45-5.81,18.53-10.19,27.26-1.75,3.51-6.12,4.98-9.57,3.26Z"/><path class="cls-5" d="m513.26,481.86c-25.61-12.46-12.37-18.17-6.97-39.51,3.58-12.41,16.2-7.55,18.23,3,2.83,9.78,7.94,44.78-11.27,36.51Z"/><path class="cls-5" d="m375,467.8c-2.43-.17-4.18-1.56-6-2.96-3.12-2.41-6.88-4.15-8.71-7.84-3.53-11.18,3.63-26.52,11.85-34.23,6.36-5.62,15.6,3.45,10.27,9.94-.05,5.56-.26,11.13-.29,16.69.27,6.69,3.15,18.58-7.12,18.4Z"/><path class="cls-5" d="m576.79,392.69c-2.87-2.46-3.24-7.36-.57-10.1,7.49-7.77,14.03-16.5,19.89-25.55,8.1-17.1,15.18-34.94,20.42-53.16,4.62-16.39,5.57-33.47,4.46-50.4.51-12.6-2.09-27.1-14.18-33.66-11.18,1.38-35.07,24.17-42.78,33.4-18.22,22.27-34.05,46.41-45.94,72.65-2.04,5.05-3.23,10.42-4.08,15.79,1.07,2.88.55,6.38-1.94,8.42-4.31,3.73-11.72,1.01-12.36-4.73.24-23.77,14.95-44.67,26.68-64.45,9.1-15.24,20.48-29.34,31.68-42.77,7.67-7.74,16.12-14.67,24.53-21.57,8.42-5.43,18.2-14.03,28.84-10.28,10.85,4.29,17.97,15.18,21.8,25.79,4.51,27.43,3.4,56.45-5.07,83.08-2.68,9.22-6.35,18.11-10.22,26.88-3.53,9.74-6.99,19.62-13.25,28.02-5.52,7.66-11.23,15.3-17.82,22.08-2.58,2.85-7.23,3.22-10.1.57Z"/><path class="cls-5" d="m551.34,364.34c-8.52-3.9-2.44-27.35-1.7-35.26,1.73-10.95,3.27-21.98,6.9-32.5,3.92-13.53,34.3-86.16,52.82-69.6,3.8,4.14.78,11.47-4.8,11.81-1.28.86-2.38,1.97-3.51,3.01-8.02,8.24-12.4,19.07-17.92,28.97-12.52,21.34-17.69,45.61-20.87,69.88,3.32-3.74,6.58-7.53,9.86-11.31,6.27-6.9,16.79,2.48,10.67,9.53-6.96,6.24-21.6,30.6-31.45,25.47Z"/><path class="cls-5" d="m420.94,334.44c-13.48-1.67-10.84-60.05-11.39-72.08.46-25.89,3.84-55.18,22.72-74.48,9.73-6.99,25.15-3.11,30.32,7.75,7.27,16.7,9.94,35.11,14.92,52.58,5.17,18.92,12.07,37.62,14.04,57.23.53,9.28-13.5,10.26-14.27.92-2.09-19.25-9.09-37.55-14-56.18-2.68-11.4-5.99-22.63-8.65-34.04-1.85-5.52-2.51-12.19-6.8-16.43-7.29-4.11-10.45,4.22-13.25,9.46-8.33,14.43-9.87,31.9-10.64,48.26-.26,18.45-.31,36.96,2.14,55.27.51,3.52,1.05,7.04,2.01,10.47,1.13,1.6,1.65,3.65,1.27,5.6-.76,3.96-4.62,6.25-8.39,5.65Z"/><path class="cls-5" d="m424.87,850.17c-21.87.4-33.14-18.54-26.91-38.52,6.67-14.31-4.85-26.42-15.3-34.82-7.45-7.46-15.43-14.42-22.23-22.47-6.73-8.6-12.44-17.97-18.55-27.01-8.03-10.53-14.28-22.03-19.24-34.29-6.21-12.59-12.48-25.28-15.63-39.04-5.99-26.43-9.67-53.47-8.75-80.62-.36-26.37.78-53.05,8.66-78.38,4.04-13.54,12.56-24.88,18.13-37.72,7.07-16.5,14.51-32.79,24.14-48.01,4.77-8.57,8.79-17.52,13.77-25.98,3.28-6.33,9.07-12.09,12.34-18.11,5.36-9.75,14.82-16.14,21.92-24.52,8.81-7.39,19.52-12.12,29.49-17.72,17.39-11.36,37.84-18.16,58.59-19.33,8.49-.54,32.19.13,32.1,11.44-.2,3.93-3.74,6.88-7.59,6.68-3.18-.2-5.72-2.38-8.86-2.84-7.77-1.91-15.88-1.08-23.74-.15-15.64,2.37-30.65,8.21-43.86,16.86-9.73,5.79-21.18,9.86-28.94,18.33-5.11,6.06-12.08,10.54-16.18,17.43-7.17,11.44-15.74,21.92-21.07,34.48-6.65,13.65-15.11,25.3-21.07,39.06-5.93,16.03-14.69,30.88-22.29,46.06-12.72,30.72-11.2,64.71-11.28,97.35,1.12,26.22,4.5,52.88,13.29,77.7,7.9,16.09,13.79,33.41,24.27,48.05,8.75,11.9,15.68,25.23,25.76,36.11,7.29,7.19,14.52,14.45,22.19,21.23,4.98,4.2,9.52,9.03,12,15.15,11.73,21.38-5.48,31.05,3.22,44.85,2.84,4,8.11,4.13,12.56,4.48,9.25.57,8.4,14.91-.91,14.27Z"/><path class="cls-5" d="m475.94,783.01c-3.01-1.8-4.01-6.54-2.31-9.29,3.02-5.76,5.67-11.71,8.93-17.34,3.09-4.85,4.84-10.57,8.05-15.28,4.37-5.07,13.34-1.7,12.76,5.1-3.32,9.82-9.76,18.61-14.06,28.14-2.23,5.65-6.37,13-13.37,8.67Z"/><path class="cls-5" d="m496.25,768.86c-.06-7.61-4.54-14.28-5.11-21.7.62-9.94,16.29-8.94,14.72,1.28,2.43,6.25,4.17,12.8,4.66,19.5.52,9.3-13.54,10.25-14.27.92Z"/><path class="cls-5" d="m517.96,780.54c-6.17-1.83-14.03-.15-18.26-4.35-2.56-2.87-2.19-7.64.77-10.09,5.9-3.9,13.71.11,20.24.4,9.16,1.88,6.4,15.73-2.75,14.04Z"/><path class="cls-5" d="m484.46,851.56c-15.7-13.02-10.48-38.69-1.18-54.25,6.52-9.07,9.27-20.42,15.76-29.33,7.74-7,18.21,6.09,9.27,11.87-5.9,16.49-19.94,30.18-19.53,48.54.54,4.44,1.16,9.97,5.2,12.51,6.87,6.31-2.52,16.84-9.53,10.67Z"/><path class="cls-5" d="m488.7,851.35c-5.18-6.83,2.19-14.69,4.78-21.13,3.92-6.34,4.97-16.67,13.02-19.05,7.05-1.59,11.59,8.19,5.9,12.52-2.73,5.33-4.94,10.92-7.77,16.2.56-.05,1.13-.11,1.69-.17,6.22-6.8,12.3-13.76,18.87-20.23,4.44-4.23,12.43-.14,11.8,5.89-.78,5.84-13.84,15.61-17.94,21.59-3.15,4.06-7.33,7.36-12.72,7.07-5.78.38-13.2,1.94-17.63-2.69Z"/><path class="cls-5" d="m514.83,855.14c-2.81-.15-5.71.11-8.21-1.44-4.15-2.53-4.2-9.47.09-11.92,4.17-2.35,9.08-.41,13.61-.85,22.17,1.43,36.72-17.75,47.6-34.48,10.88-22.23,23.06-44.01,38.58-63.38,11.86-13.5,24.99-25.87,35.97-40.15,16.97-22.98,18.35-52.38,23.59-79.5-.13-9.73,14.86-9.78,14.37.13-1.23,8.69-2.79,17.34-4.4,25.97-9.43,70.23-39.25,71.24-72.39,122.18-10.85,14.94-17.25,32.41-27.22,47.8-15.46,22.48-32.57,38.06-61.59,35.62Z"/><path class="cls-5" d="m434.21,848.33c-12.12-3.26-17.34-13.76-16.21-25.73,0,.28,0,.57,0,.84.04.3.08.6.11.9.01,0,.03,0,.04.01-1.8-9.18,12.15-11.94,14-2.75.28,3.01-.09,6.08.72,9.05.72,2.52,3.73,3.21,5.88,4.11,8.82,3.1,4.28,16.47-4.55,13.56Z"/><path class="cls-5" d="m445.82,852.31c-11.12-1.75-12.04-14.01-10.63-23.05.63-4.24.29-9.5,3.72-12.59,4.57-4.14,12.32-.24,11.79,5.89-1.17,5.14-1.65,10.47-1.63,15.77,8.18.47,15.38-5.36,19.96-11.64,4.36-6.97,4.01-15.37,3.99-23.28.01-6.28-.7-12.63-2.65-18.62-2.84-3.56-5.99-8.07-2.12-12.27,20.55-13.75,21.23,41.44,17.22,51.97-4.76,16.48-22.08,30.38-39.65,27.83Z"/><path class="cls-5" d="m608.96,833.94c-11.52-3.35-10.67-16.04-16.6-24.18-3.64-6.16-14.76-7.28-14.55-15.12,3.82-15.75,21.76.71,26.78,7.65,4.53,5.05,4.65,12.56,8.32,17.77,37.67,9.08,16.85-18.85,32.16-20.53,14.12.74,5.99,23.39-.07,29.56-9.34,8.75-24.47,8.16-36.04,4.86Z"/><path class="cls-5" d="m646.05,831.64c-17.85-.74-11.55-22.58,1.09-14.26,9.37.78,21.09-.77,25.82-10.01,3.34-6.02-4.89-13.27,4.57-17.2,14.38-2.75,12.21,22.13,4.85,28.69-8.11,11.1-23.39,13.78-36.33,12.77Z"/><path class="cls-5" d="m672.77,819.95c-3.76-8.54,8.31-10.99,11.07-17.65,3.14-6.6,2.39-14.98.22-21.8-1.6-5.52-9.83-7.16-7.36-13.95,3.88-9.49,14.87-2.97,18.1,3.65,4.69,7.29,5.59,16.27,5.25,24.75-.11,5.54-1.54,11.01-4.56,15.69-4.45,6.5-15.91,20.03-22.72,9.31Z"/><path class="cls-5" d="m692.5,781.1c-6.12-.19-9.14-8.74-4.2-12.57,1.31-1.01,2.69-1.91,3.93-3,4.42-5.6,8.21-11.7,12.59-17.35,10.93-13.87,18.22-29.82,25.61-45.71,11.27-23.51,16.35-49.33,21.33-74.76,6.39-27.47,8.66-55.8,5.02-83.72-3.9-28.5-13.38-55.98-24.84-82.26-5.86-14.42-11.29-29.2-19.98-42.22-7.8-10.29-14.22-21.74-23.37-30.92-6.63-6.13-11.89-13.45-17.86-20.17-7.71-7.38-16.61-13.39-24.72-20.32-5.99-4.42-12.01-8.96-18.81-12.05-3.09-1.55-6.9-.36-9.29-3.45-3-3.46-2-9.35,2.31-11.3,16.87-3.81,41.01,22.31,54.61,31.5,8.11,6.29,13.42,15.17,20.59,22.37,12.11,11.39,20.72,25.78,30.29,39.25,13.06,21.89,21.01,46.39,30.72,69.86,20.48,56.37,20.32,102.58,6.57,160.31-7.65,40.05-22.67,79.36-46.9,112.36-7.26,8.16-11.78,22.14-23.59,24.13Z"/><path class="cls-5" d="m326.24,814.27c-14.93-6.21-14.08-18.48-8.42-31.43,3.62-7.01,9.71-12.39,14.61-18.49,5.39-5.75,12.26-9.84,17.79-15.44,3.12-2.83,5.62-6.84,9.93-7.88,4.52-1.11,9.23,2.79,8.81,7.47-.13,2.68-1.94,5.07-4.32,6.15-4.05,4.16-8.17,8.25-12.77,11.81-5.24,3.83-9.9,8.26-13.88,13.39-5.14,5.27-9.66,11.34-9.66,19.05,16.29,6.73,7.43,20.43-2.09,15.38Z"/><path class="cls-5" d="m345.27,829.49c-15.57-1.1-24.63-15.24-17.61-29.55,2.25-5.48,4.64-12.1,10.58-14.44,7.73-2.79,13.08,8.65,6.06,12.8-6.25,10.73-7.78,17.68,7.4,17.29,12.11.73,9.84,18.1-6.43,13.9Z"/><path class="cls-5" d="m353.11,828.46c-11.94-6.48-2.54-44.55,12.32-32.08,5.66,7.3-4.78,11.09-3.54,20.62,12.97,1.91,25.64-3.27,37.51-7.84,3.69-1.25,7.82.86,9.04,4.54,2.57,8.94-8.72,10.13-14.53,12.87-12.05,3.82-29.23,8.72-40.79,1.88Z"/></g><g id="_レイヤー_7"><g class="cls-16"><path class="cls-1" d="m524.78,543.07c-5.37-4.17-8-12.1,1.45-12.08,6.76.73,14,3.09,19.27,7.47,3.14-3.41,8.62-2.33,12.07.04,4.69,3.05,5.44,9.06,4.87,14.18,2.26-.73,3.64-3.2,5.98-3.78,4.57-1.1,5.93,4.06,6.19,7.56.62,3.36,2.24,6.38,3.08,9.66,1.26,1.19,3.14,1.44,4.77,1.83,3.25.74,7.1-.17,9.68,2.39,18.17,16.2,5.9,20.74,35.47,22.16,13.4.5,27.21,1.47,40.51.02,21.01-1.82,42.14-1.34,63.18-2.03,15.65-2.26,15.98-2.91,15.43,13.81,0,5.26-3.24,6.39-7.88,6.45-9.08,1.24-18.19,2.41-27.36,2.74-4.83-.13-26.29,1.62-36.31-1.29-.43.17-.94.28-1.5.31-14.26.39-27.88,2.91-42.1,2.21-12.12-.2-24.15,1.95-36.28,1.46-27.57-.93-55.14-2.51-82.6-5.27-6.47-.63-12.93-1.27-19.4-1.94-27.21-2.81-54.44-5.98-81.46-10.25-6.31-.99-12.63-2.05-18.92-3.18-.12.14-.27.25-.43.38-3.33,1.85-7.41.34-11.01,1.26-14.79,5.07-10.01,22.59-35.33,24.41-9.19.48-18.47-.19-27.61-.14-3.88-1.61-2.81-6.7.88-7.82,1.25-.81,2.28-2.18,3.05-3.36,4.93-9.54,8.67-15.08,20.16-16.14,6.15-.44,11.89-2.29,17.16-5.24-3.47-.77-6.92-1.58-10.37-2.4-22.79-5.96-42.88-18.88-64.8-26.99-9.84-4.31-18.42-9.94-28.75-11.73-8.13-1.54-16.74-.36-24.97-1.2.04.08.06.17.1.25l-.03-.03-.06-.06-.06-.06-.06-.06-.04-.04-.02-.02-.06-.06-.06-.07-.06-.06-.06-.06-.05-.06-.06-.07-.06-.06-.07-.08-.06-.06-.06-.07-.06-.07-.06-.06-.06-.07-.07-.08-.06-.07-.06-.07-.07-.08-.06-.07-.06-.08-.07-.08-.06-.07-.06-.07-.06-.07-.07-.08-.06-.07-.06-.07-.07-.07-.06-.07-.06-.07-.06-.07-.07-.08-.06-.06-.06-.07-.06-.07-.07-.08-.06-.07-.07-.08-.07-.08-.06-.07-.07-.08-.07-.08-.06-.07-.07-.08-.07-.09-.07-.08-.07-.08-.07-.08-.07-.08-.07-.08-.07-.08-.07-.08-.07-.09-.07-.08-.08-.08-.07-.09-.08-.08-.08-.09-.07-.09-.08-.09-.08-.08-.08-.09-.07-.09-.08-.09-.08-.09-.08-.09-.08-.1-.09-.1-.08-.09-.09-.1-.08-.1-.08-.1-.09-.1-.08-.1-.09-.1-.09-.11-.09-.1-.09-.11-.1-.11-.09-.12-.1-.11-.1-.11-.09-.11-.1-.12-.1-.11-.1-.11-.09-.11-.1-.11-.09-.11-.1-.11-.1-.11-.09-.11-.1-.1-.09-.11-.1-.1-.09-.11-.09-.1-.09-.09-.09-.1-.09-.1-.08-.09-.09-.09-.04-.04-.04-.04-.09-.09-.08-.09-.08-.09-.07-.08-.08-.08-.08-.08-.07-.08-.08-.08-.07-.08-.07-.08-.07-.07-.07-.08-.07-.06-.07-.07-.07-.06-.06-.06-.07-.07-.07-.06-.06-.07-.07-.06-.07-.06-.07-.08-.06-.06-.06-.06-.06-.07-.06-.05-.05-.06-.05-.06-.05-.05-.05-.06-.04-.05-.04-.05-.04-.05-.03-.04-.03-.05-.03-.05-.03-.04-.02-.04v-.04s-.03-.04-.03-.04v-.04s0-.01,0-.01v-.03s0-.04,0-.04v-.04s0-.04,0-.04l.02-.03v-.04s.03-.04.03-.04l.03-.03.03-.04.04-.03.04-.04h.01s.03-.03.03-.03l.05-.03.05-.04.05-.03.06-.03.06-.04.07-.03.07-.03.08-.04.08-.04.09-.03.1-.04.1-.04.12-.05.11-.03.13-.04.14-.03.13-.04.14-.04.15-.04.16-.05.15-.05.15-.05.16-.05.16-.05.17-.06.16-.06.17-.06.16-.07.17-.06.16-.07.17-.07.17-.07.17-.07.16-.08.17-.07.17-.08.17-.08.17-.07.16-.08.17-.08.16-.07.17-.08.16-.07.16-.08.17-.08.16-.07.16-.08.16-.08.17-.08.16-.08.17-.08.11-.06.05-.03.17-.09.16-.09.17-.08.17-.09.17-.09.16-.09.17-.1.16-.09.17-.09.16-.09.16-.09.15-.09.15-.09.15-.08.14-.09.14-.09.14-.07.13-.08.13-.09.12-.07.13-.08.12-.08.12-.07.12-.08.11-.07.12-.07.12-.07.11-.07.13-.08.12-.07.12-.07.13-.08.13-.07.13-.07.13-.08.14-.06.13-.08.14-.06.13-.07.14-.06.14-.06.14-.06.13-.07.14-.06.13-.05.13-.07.13-.06.13-.05.12-.06.13-.04.12-.06.13-.04.12-.06.11-.05.12-.05.12-.05.11-.05.1-.04.12-.05.11-.04.1-.04.1-.05.11-.04.1-.04.11-.03.1-.04.1-.03.1-.04.11-.04.1-.04.1-.03.1-.04.1-.03.09-.03.1-.04.1-.03.09-.03.09-.03.1-.03.09-.03.09-.03.09-.03.08-.03.09-.03.09-.03.09-.03.08-.03.08-.03.09-.02.08-.03.08-.03.08-.03.08-.02.08-.03.08-.03.08-.02.08-.03.08-.03.07-.03.08-.02.07-.03.08-.03.05-.02h.02s.07-.04.07-.04l.07-.02.08-.03.07-.03.07-.03.07-.03.07-.03.08-.04.07-.03.08-.03h.02c9.52,0,19.17-.09,28.38,2.31,23.65,7.17,44.78,21.74,68.18,29.1,12.71,3.64,25.69,6.87,38.06,11.47,8.57,2.23,17.17,4.07,25.8,5.69,12.05,2.27,24.14,4.14,36.21,6.09,23.09,4.05,46.39,6.23,69.75,7.86,16.68,1.16,33.39,2.03,50.07,3.09,8.86,1.2,17.75,2.1,26.67,2.61-2.08-3.43-4.57-6.72-7.54-6.42-5.01.25-10.47,2.14-15.25-.1-2.94-1.49-4.12-4.64-4.92-7.62-1.04-2.52-3.62-4.15-4.61-6.75-4.23,1.07-9.15,4.37-13.29,1.38-3.49-4.17-10.6-3.94-13.01-9.31-1.68-3.57,1.64-6.77,5.08-7.13-4.22-.99-9.26-2.32-11.04-6.75-2.09-4.04.5-8.51,5.1-8.5Z"/><path class="cls-11" d="m162.12,431.72c3.47-6.03,25.81-13.89,24.87-2.06-.52,3.83-1.04,7.58-1.51,11.32,1.19-1.07,2.35-2,3.18-2.74,4.71-3.69,11.02-3.06,16.62-2.52,3.74.22,5.1,4.23,4.27,7.42-.37,4.44-2.21,8.5-4.42,12.29-1.13,3.41-2.33,6.71-3.29,10.07,6.39-4.02,14.76-6.69,20.03-4.24,2.68,2.1,1.78,5.96,1.71,8.92-.42,4.13-1.51,8.16-2.92,12.08,3.99,0,6.79,1.66,5.75,7.16-.89,2.74-1.16,8.08-3.02,11.05.74.12,1.48.26,2.21.4,4.32.41,6.08,4.25,5.25,7.93,6.83,1.91,18.41,5.64,13.31,13.67-1.1,1.24-2.28,2.44-3.52,3.58.16,0,.33,0,.49,0h-.02s-.08.04-.08.04l-.07.03-.08.04-.07.03-.07.03-.07.03-.07.03-.08.03-.07.02-.07.03h-.02s-.05.03-.05.03l-.08.03-.07.03-.08.02-.07.03-.08.03-.08.03-.08.02-.08.03-.08.03-.08.02-.08.03-.08.03-.08.03-.09.02-.08.03-.08.03-.09.03-.09.03-.09.03-.08.03-.09.03-.09.03-.09.03-.1.03-.09.03-.09.03-.1.03-.1.04-.09.03-.1.03-.1.04-.1.03-.1.04-.11.03-.1.04-.1.03-.1.04-.11.04-.1.04-.11.03-.11.05-.1.04-.11.03-.12.05-.1.04-.12.05-.12.05-.11.05-.12.05-.12.06-.13.04-.12.06-.13.04-.12.06-.13.05-.13.05-.13.07-.13.05-.14.06-.13.07-.14.06-.14.06-.14.06-.13.07-.14.06-.13.08-.14.06-.13.08-.13.07-.13.07-.13.08-.12.07-.12.07-.13.08-.11.07-.12.07-.12.07-.11.07-.12.08-.12.07-.12.08-.13.08-.12.07-.13.09-.13.08-.14.07-.14.09-.14.08-.15.08-.15.09-.15.09-.16.09-.16.09-.17.09-.16.09-.17.1-.16.09-.17.09-.17.09-.17.08-.16.09-.17.09-.05.03-.11.06-.17.08-.16.08-.17.08-.16.08-.16.08-.16.07-.17.08-.16.08-.16.07-.17.08-.16.07-.17.08-.16.08-.17.07-.17.08-.17.08-.17.07-.16.08-.17.07-.17.07-.17.07-.16.07-.17.06-.16.07-.17.06-.16.06-.17.06-.16.05-.16.05-.15.05-.15.05-.16.05-.15.04-.14.04-.13.04-.14.03-.13.04-.11.04-.11.05-.1.04-.1.04-.09.03-.08.04-.08.04-.07.03-.07.03-.06.04-.06.03-.05.03-.05.04-.05.03-.03.02h-.01s-.04.05-.04.05l-.04.03-.03.04-.03.03-.02.04v.04s-.03.03-.03.03v.04s0,.04,0,.04v.04s0,.03,0,.03h0s0,.05,0,.05l.02.04v.04s.03.04.03.04l.03.04.03.05.03.05.03.04.04.05.04.05.04.05.05.06.05.05.05.06.05.06.06.05.06.07.06.06.06.06.07.08.07.07.07.06.06.07.07.07.07.06.06.06.07.06.07.06.07.07.07.08.07.07.07.08.07.08.08.08.07.08.08.08.08.08.07.08.08.09.08.09.09.09.04.04.04.04.09.09.08.09.09.1.09.1.09.09.09.1.09.11.1.1.09.11.1.1.09.11.1.11.1.11.09.11.1.11.09.11.1.11.1.11.1.12.09.11.1.11.1.11.09.12.1.11.09.11.09.1.09.11.09.1.08.1.09.1.08.1.08.1.09.1.08.09.09.1.08.1.08.09.08.09.08.09.07.09.08.09.08.08.08.09.07.09.08.09.08.08.07.09.08.08.07.08.07.09.07.08.07.08.07.08.07.08.07.08.07.08.07.08.07.09.07.08.06.07.07.08.07.08.06.07.07.08.07.08.06.07.07.08.06.07.06.07.06.06.07.08.06.07.06.07.06.07.07.06.06.07.06.07.07.08.06.07.06.07.06.07.07.08.06.08.06.07.07.08.06.07.06.07.07.08.06.07.06.06.06.07.06.07.06.06.07.08.06.06.06.07.05.06.06.06.06.06.06.07.06.06.02.02.04.04.06.06.06.06.06.06.03.03c1.73,4.73,2.03,9.87,1.97,15.01-.28,4.17-5,4.48-8.2,3.68-3.48-.43-6.9-1.33-10.13-2.68.28.5.54,1.01.79,1.54,6.15,9.49,9.96,20.55,7.33,31.91-1.15,6.35-3.6,14.22-11.07,8.08-6.54-4.84-13.02-10-16.13-17.37-1.16,7.28-3.65,14.31-6.5,21.1-1.51,2.8-2.42,6.5-5.39,8.08-1.9.84-3.59.02-4.97-1.26-2.16,3.68-5.65,6.5-8.85,9.26-5.89,4.96-9.2-2.1-10.83-7.04-2.84-7.94-3.01-16.57-2.09-25.11-2.48,3.67-5.44,6.99-8.77,9.79-4.83,3.68-10.73,6.09-16.85,5.95-13.45.92-7.22-12.65-1.98-20.46-9.09,2.44-16.95,2.56-12.32-10.39,1.51-5.62,5.17-10.1,8.88-14.41.34-.45.68-.9,1.02-1.35-8,2.03-31.16,4.31-30.72-3.2.78-4.95,4.11-8.88,8.19-11.93-1.79-1.12-3.35-2.59-4.2-3.91-3.36-4.19-3.02-9.85-.68-14.45.31-.75.83-1.36,1.47-1.79-6.25-4.94-15.16-13.7-1.21-14.88,3.79-.4,7.63-1.07,11.5-1.68-.25-.83-.38-1.7-.42-2.51-.61-3.96,1.06-8.08,4.52-10.23,1.88-1.07,4.82-2.71,7.4-3.02-1.57-5.16-2.08-10.79-.05-15.86.98-2.52,2.24-5.8,5.4-5.89,2.21.02,3.58,1.91,5.22,3.3.64-2.91,2.08-5.63,4.29-7.61.42-.4.86-.69,1.31-.88-2.76-7.36-3.6-15.41.36-22.31,5.83-12.56,9.25-6.13,14.71,2,.56.71,1.08,1.44,1.56,2.19,1.08-6.01,3.12-11.79,6.56-16.76Zm30.2,40.74c.02.41.07.8.16,1.18-.08-.37-.14-.77-.16-1.18Z"/><path class="cls-4" d="m143.47,547.67c-1.57,2.94-4.09,1.63-6.5.8-7.5-1.24-15.4-1.02-22.66,1.32-1.69.56-3.58-.34-4.17-2.04-2.9-8.54,37.48-9.49,33.33-.08Z"/><path class="cls-4" d="m138.64,532.02c-1.56,4.13-16.4,15.04-18.56,7.64-.22-5.31,7.62-4.38,10.38-7.99.85-.71,1.74-1.46,2.26-2.46,1.85-3.86,7.68-1.07,5.92,2.81Z"/><path class="cls-4" d="m140.34,508.37c-2.58,12.71-28.1-15.64-11.87-11.55,4.19,3.23,10.45,6.28,11.87,11.55Z"/><path class="cls-4" d="m137.91,520.79c-1.83,5.38-12.47-.74-9.7-5.11,2.55-3.73,10.78,1.19,9.7,5.11Z"/><path class="cls-4" d="m146.48,494.16c-1.04,5.59-6.55,2.71-7.91-1.14-1.86-3.25-9.08-6.29-5.29-10.46,5.07-2.95,11.79,7.46,13.2,11.6Z"/><path class="cls-4" d="m155.01,487.58c-2.48,7.27-15.07,1.27-6.73-3.07-.85-4.03-8.38-8.52-3.95-12.31,5.54-2.61,11.72,10.87,10.67,15.38Z"/><path class="cls-4" d="m162.89,480.85c-1.27,5.85-7.22,2.15-8.25-1.89-1.12-3.59-7-9.33-2.41-12.26,5.1-2.23,6.55,7.72,9.05,10.76.83.97,1.78,1.93,1.6,3.4Z"/><path class="cls-4" d="m174.79,601.19c-10.66,3.8-9.61-24.42-7.2-30.65.58-5.8,8.84-8.19,7.55-.85-4.12,8.38-3.17,18.43-.05,26.88,1.08,1.41,1.1,3.39-.3,4.62Z"/><path class="cls-4" d="m159.93,561.59c-.26,5.23-16.62,25.95-21.59,19.47-.96-1.44-.62-3.61.9-4.56,6.18-3.81,11.62-9.34,14.32-16.07-.11.25-.13.46-.16.71.41-4.2,6.76-3.76,6.53.45Z"/><path class="cls-4" d="m151.02,559.7c-6.44-.72-16.38,10.2-20.4,4.91-1.3-2.61,1.05-4.42,3.17-5.29,3.43-2.07,19.53-10.37,20.24-3.13.15,1.79-1.24,3.33-3.02,3.51Z"/><path class="cls-4" d="m192.19,582.66c-6.02,1.9-7.74-22.42-3.08-24.2,3.35-2.23,6.99,2.54,3.99,5.18-1.8,6.12,5.18,15.55-.91,19.02Z"/><path class="cls-4" d="m199.8,559.73c-3.57,1.65-5.19-2.61-5.86-5.36-1.47-5.39,7.02-6.8,6.53-1.01,1.04,2.19,2.02,4.99-.67,6.37Z"/><path class="cls-4" d="m213.6,575.83c-4.76-1.78-7.5-7.26-11.93-9.93-2.87-2.83-12.25-6.11-8.92-11.1,5.24-3.51,10.65,5.74,15.4,7.89,3,3.02,14.46,10.96,5.45,13.15Z"/><path class="cls-4" d="m219.4,540.25c-3.54,5.3-15.41-5.27-22.18-3.65-4.67-.05-4.18-7.42.5-6.63,6.07,1.23,22.22,2.35,21.68,10.28Z"/><path class="cls-4" d="m228.79,529.96c-5.85.41-23.26,3.83-21.54-5.69,3.04-3.45,8.1.93,12.17-.05,3.68.68,10.58-3,11.93,1.87.35,1.71-.79,3.53-2.56,3.87Z"/><path class="cls-4" d="m214.99,502.55c-5.76-.61-12.4.23-17.1,3.63-3.09,7.21-10.03-1.24-4.13-5.1,3.3-3.62,24.51-9.36,24.67-1.62-.09,1.75-1.66,3.23-3.45,3.09Z"/><path class="cls-4" d="m212,519.72c-.63,5.5-20.36.4-21.23-3.59-.95-3.72,3.95-6.31,6.04-2.92,4.45,2.4,14.83.04,15.19,6.51Z"/><path class="cls-4" d="m189.6,491.94c-9.8,14.46-11.37-33.85-9.4-39.2.79-4.19,7.16-3.05,6.44,1.18-2.51,13.1,1.21,25.48,2.93,38.23.02-.17.02-.21.05-.42,0,.07-.02.13-.02.2Z"/><path class="cls-4" d="m178.31,486c-6.86,8.82-17.21-29.14-10.45-29.16,6.62.2,3.95,10.78,6.45,15.23.16,4.92,6.2,9.51,4,13.93Z"/><polygon class="cls-6" points="168.4 483.32 168.67 483.33 168.95 483.36 169.23 483.38 169.53 483.41 169.83 483.44 170.13 483.48 170.44 483.53 170.74 483.56 171.06 483.62 171.36 483.67 171.68 483.72 171.99 483.78 172.3 483.85 172.63 483.91 172.94 483.97 173.27 484.04 173.6 484.12 173.93 484.19 174.26 484.28 174.6 484.36 174.93 484.45 175.25 484.53 175.58 484.62 175.9 484.71 176.21 484.8 176.51 484.9 176.82 485 177.1 485.09 177.37 485.19 177.64 485.29 177.89 485.4 178.13 485.5 178.36 485.61 178.58 485.72 178.8 485.84 179.02 485.96 179.23 486.09 179.44 486.23 179.65 486.36 179.85 486.52 180.05 486.67 180.25 486.82 180.46 487 180.65 487.17 180.86 487.35 181.06 487.54 181.28 487.74 181.48 487.93 181.68 488.14 181.88 488.34 182.08 488.55 182.28 488.75 182.47 488.97 182.68 489.17 182.87 489.39 183.08 489.6 183.29 489.83 183.49 490.06 183.7 490.28 183.9 490.51 184.12 490.74 184.33 490.98 184.53 491.23 184.74 491.48 184.96 491.74 185.17 492 185.37 492.26 185.58 492.54 185.79 492.82 185.99 493.11 186.2 493.38 186.4 493.68 186.61 493.98 186.81 494.27 187.01 494.56 187.22 494.87 187.42 495.17 187.62 495.48 187.81 495.77 188.01 496.08 188.2 496.38 188.39 496.68 188.58 496.98 188.75 497.28 188.93 497.56 189.1 497.86 189.26 498.15 189.41 498.44 189.56 498.72 189.7 499.02 189.84 499.29 189.97 499.58 190.09 499.86 190.22 500.14 190.33 500.42 190.44 500.71 190.54 501 190.65 501.28 190.75 501.57 190.84 501.85 190.94 502.14 191.01 502.43 191.1 502.71 191.18 502.99 191.25 503.26 191.32 503.52 191.38 503.78 191.44 504.04 191.5 504.29 191.56 504.53 191.61 504.75 191.67 504.97 191.72 505.2 191.77 505.42 191.82 505.63 191.87 505.84 191.93 506.06 191.98 506.28 192.04 506.5 192.1 506.74 192.16 506.98 192.23 507.22 192.29 507.47 192.36 507.72 192.43 507.98 192.5 508.26 192.56 508.53 192.63 508.83 192.7 509.11 192.77 509.4 192.83 509.69 192.89 509.98 192.94 510.28 193 510.57 193.06 510.86 193.1 511.16 193.16 511.47 193.21 511.78 193.26 512.11 193.3 512.45 193.36 512.81 193.41 513.17 193.46 513.55 193.51 513.95 193.56 514.36 193.62 514.78 193.67 515.21 193.72 515.67 193.78 516.12 193.83 516.58 193.88 517.05 193.92 517.51 193.97 517.98 194.02 518.43 194.07 518.88 194.12 519.34 194.16 519.76 194.2 520.18 194.24 520.59 194.28 521 194.32 521.39 194.36 521.77 194.4 522.15 194.44 522.51 194.49 522.88 194.53 523.24 194.56 523.6 194.6 523.97 194.64 524.32 194.67 524.68 194.7 525.04 194.74 525.41 194.77 525.77 194.79 526.14 194.81 526.5 194.83 526.87 194.86 527.24 194.87 527.6 194.88 527.96 194.88 528.32 194.89 528.66 194.9 529 194.89 529.32 194.9 529.64 194.89 529.95 194.89 530.24 194.89 530.53 194.89 530.81 194.88 531.08 194.89 531.35 194.89 531.61 194.88 531.86 194.88 532.12 194.88 532.36 194.86 532.62 194.86 532.87 194.86 533.11 194.85 533.35 194.84 533.58 194.83 533.82 194.82 534.03 194.81 534.26 194.8 534.47 194.78 534.69 194.76 534.89 194.75 535.1 194.73 535.3 194.7 535.5 194.67 535.7 194.65 535.89 194.63 536.08 194.6 536.28 194.58 536.46 194.56 536.64 194.53 536.84 194.51 537.03 194.48 537.22 194.46 537.42 194.43 537.61 194.41 537.81 194.38 538.02 194.35 538.23 194.33 538.44 194.3 538.66 194.26 538.87 194.23 539.1 194.2 539.32 194.17 539.54 194.13 539.78 194.1 540.01 194.07 540.25 194.04 540.48 194 540.71 193.97 540.96 193.94 541.19 193.9 541.44 193.86 541.68 193.83 541.93 193.79 542.18 193.74 542.43 193.71 542.69 193.66 542.94 193.62 543.21 193.57 543.46 193.52 543.73 193.47 544 193.41 544.26 193.36 544.53 193.3 544.8 193.24 545.07 193.18 545.34 193.12 545.6 193.05 545.86 192.98 546.11 192.91 546.37 192.84 546.61 192.76 546.85 192.69 547.08 192.62 547.3 192.54 547.53 192.47 547.75 192.4 547.95 192.33 548.15 192.26 548.35 192.18 548.54 192.11 548.73 192.04 548.92 191.98 549.1 191.91 549.28 191.85 549.46 191.78 549.64 191.72 549.82 191.66 550 191.59 550.18 191.53 550.36 191.47 550.55 191.4 550.72 191.34 550.9 191.26 551.08 191.2 551.26 191.14 551.44 191.07 551.61 191.01 551.79 190.94 551.97 190.88 552.16 190.81 552.34 190.74 552.52 190.68 552.7 190.61 552.89 190.54 553.07 190.45 553.26 190.38 553.44 190.3 553.63 190.22 553.82 190.14 554.01 190.05 554.2 189.96 554.39 189.86 554.58 189.76 554.77 189.65 554.96 189.55 555.15 189.43 555.34 189.31 555.53 189.19 555.72 189.07 555.9 188.94 556.07 188.81 556.25 188.67 556.43 188.54 556.6 188.4 556.77 188.25 556.94 188.1 557.11 187.96 557.26 187.81 557.42 187.67 557.58 187.52 557.72 187.37 557.87 187.22 558 187.07 558.14 186.91 558.27 186.76 558.4 186.63 558.53 186.48 558.64 186.33 558.76 186.19 558.87 186.04 558.98 185.9 559.08 185.75 559.19 185.61 559.29 185.47 559.39 185.33 559.49 185.2 559.59 185.05 559.69 184.91 559.78 184.76 559.89 184.61 559.98 184.47 560.08 184.33 560.17 184.18 560.27 184.03 560.37 183.87 560.46 183.72 560.57 183.56 560.66 183.4 560.77 183.24 560.87 183.08 560.98 182.93 561.07 182.76 561.18 182.59 561.28 182.42 561.37 182.25 561.47 182.07 561.56 181.89 561.65 181.7 561.75 181.51 561.83 181.31 561.92 181.11 562 180.91 562.08 180.7 562.17 180.48 562.24 180.26 562.32 180.03 562.39 179.8 562.45 179.56 562.52 179.31 562.59 179.06 562.65 178.8 562.7 178.54 562.76 178.27 562.82 178 562.88 177.73 562.94 177.44 562.99 177.15 563.05 176.86 563.11 176.56 563.15 176.26 563.21 175.94 563.26 175.65 563.31 175.34 563.36 175.04 563.41 174.74 563.46 174.44 563.49 174.16 563.53 173.87 563.57 173.59 563.59 173.32 563.61 173.06 563.63 172.79 563.63 172.52 563.64 172.27 563.64 172 563.62 171.72 563.61 171.45 563.58 171.16 563.56 170.88 563.52 170.57 563.49 170.26 563.44 169.93 563.39 169.59 563.34 169.22 563.28 168.84 563.21 168.45 563.15 168.02 563.07 167.58 562.99 167.14 562.91 166.68 562.81 166.23 562.72 165.76 562.61 165.3 562.5 164.87 562.39 164.44 562.27 164.03 562.15 163.63 562.02 163.23 561.89 162.84 561.75 162.46 561.61 162.09 561.46 161.72 561.31 161.34 561.15 160.98 560.99 160.62 560.82 160.26 560.65 159.9 560.48 159.55 560.29 159.22 560.11 158.87 559.93 158.53 559.75 158.2 559.57 157.87 559.38 157.56 559.2 157.25 559.02 156.96 558.85 156.68 558.67 156.41 558.5 156.15 558.33 155.89 558.17 155.66 557.99 155.42 557.82 155.19 557.66 154.97 557.49 154.76 557.33 154.55 557.16 154.33 556.99 154.13 556.81 153.91 556.64 153.71 556.46 153.49 556.28 153.27 556.08 153.05 555.9 152.82 555.69 152.59 555.49 152.36 555.29 152.13 555.08 151.89 554.86 151.65 554.65 151.41 554.43 151.16 554.2 150.91 553.96 150.65 553.71 150.4 553.46 150.13 553.19 149.86 552.92 149.6 552.64 149.33 552.36 149.06 552.06 148.79 551.76 148.52 551.45 148.25 551.14 147.99 550.81 147.72 550.49 147.46 550.15 147.2 549.82 146.94 549.5 146.68 549.17 146.44 548.85 146.19 548.53 145.96 548.23 145.74 547.93 145.52 547.66 145.31 547.38 145.12 547.11 144.92 546.86 144.73 546.61 144.55 546.38 144.37 546.14 144.2 545.91 144.03 545.68 143.86 545.46 143.7 545.22 143.53 544.99 143.35 544.76 143.17 544.51 142.99 544.25 142.81 543.98 142.62 543.71 142.42 543.43 142.23 543.13 142.03 542.83 141.82 542.52 141.62 542.2 141.42 541.88 141.22 541.55 141.02 541.22 140.84 540.9 140.65 540.58 140.47 540.26 140.3 539.94 140.13 539.65 139.98 539.35 139.83 539.07 139.69 538.81 139.57 538.55 139.45 538.31 139.35 538.08 139.25 537.86 139.16 537.65 139.08 537.45 139.01 537.26 138.94 537.09 138.88 536.92 138.83 536.76 138.77 536.62 138.73 536.48 138.69 536.35 138.66 536.21 138.63 536.09 138.59 535.96 138.56 535.84 138.52 535.7 138.49 535.58 138.45 535.44 138.42 535.3 138.39 535.15 138.34 534.99 138.31 534.83 138.27 534.66 138.23 534.48 138.19 534.29 138.14 534.09 138.1 533.9 138.06 533.68 138.02 533.45 137.98 533.21 137.95 532.97 137.91 532.73 137.88 532.48 137.85 532.22 137.82 531.96 137.81 531.71 137.79 531.45 137.78 531.18 137.77 530.93 137.78 530.66 137.78 530.4 137.8 530.14 137.8 529.88 137.81 529.63 137.83 529.36 137.84 529.11 137.85 528.85 137.87 528.6 137.89 528.35 137.91 528.09 137.92 527.85 137.95 527.59 137.97 527.34 137.99 527.08 138.02 526.83 138.05 526.57 138.09 526.3 138.12 526.02 138.17 525.75 138.21 525.47 138.27 525.17 138.32 524.89 138.39 524.58 138.46 524.28 138.52 523.97 138.59 523.65 138.66 523.34 138.73 523.01 138.8 522.68 138.85 522.34 138.91 522 138.96 521.64 139 521.27 139.03 520.9 139.05 520.52 139.06 520.12 139.06 519.72 139.06 519.3 139.04 518.87 139.03 518.41 139.01 517.95 138.98 517.47 138.95 516.96 138.91 516.44 138.87 515.9 138.84 515.36 138.79 514.8 138.76 514.24 138.74 513.68 138.73 513.14 138.72 512.6 138.73 512.08 138.76 511.58 138.78 511.1 138.81 510.65 138.86 510.23 138.9 509.83 138.95 509.45 139.01 509.11 139.05 508.8 139.11 508.52 139.16 508.27 139.2 508.05 139.25 507.86 139.29 507.7 139.32 507.54 139.36 507.42 139.4 507.32 139.42 507.23 139.45 507.16 139.47 507.09 139.49 507.04 139.51 506.99 139.53 506.95 139.54 506.92 139.55 506.88 139.56 506.85 139.57 506.83 139.58 506.8 139.59 506.78 139.59 506.76 139.6 506.74 139.6 506.72 139.61 506.7 139.61 506.68 139.62 506.66 139.62 506.65 139.62 506.63 139.63 506.62 139.63 506.61 139.63 506.6 139.63 506.59 139.63 506.58 139.63 506.56 142.26 501.08 142.37 500.88 142.5 500.68 142.62 500.47 142.75 500.25 142.88 500.03 143.01 499.8 143.16 499.56 143.32 499.32 143.47 499.08 143.63 498.82 143.81 498.56 143.98 498.29 144.17 498.02 144.36 497.74 144.55 497.45 144.76 497.16 144.96 496.88 145.18 496.58 145.39 496.28 145.62 495.98 145.85 495.68 146.08 495.38 146.32 495.08 146.57 494.78 146.84 494.48 147.1 494.19 147.37 493.9 147.65 493.6 147.93 493.31 148.23 493.02 148.54 492.73 148.84 492.44 149.15 492.16 149.46 491.89 149.77 491.62 150.09 491.36 150.41 491.1 150.74 490.84 151.06 490.6 151.37 490.35 151.68 490.12 151.99 489.89 152.3 489.66 152.61 489.43 152.92 489.22 153.23 489 153.53 488.8 153.82 488.59 154.11 488.39 154.41 488.2 154.7 488.01 154.99 487.82 155.28 487.64 155.56 487.47 155.86 487.3 156.14 487.13 156.44 486.96 156.74 486.81 157.03 486.65 157.33 486.49 157.62 486.34 157.93 486.19 158.22 486.04 158.53 485.89 158.83 485.75 159.13 485.61 159.43 485.47 159.72 485.33 160.01 485.2 160.29 485.07 160.57 484.95 160.86 484.84 161.14 484.73 161.41 484.62 161.67 484.52 161.94 484.42 162.2 484.32 162.47 484.23 162.73 484.15 162.99 484.06 163.25 483.99 163.51 483.92 163.77 483.85 164.03 483.78 164.29 483.71 164.55 483.65 164.8 483.59 165.06 483.55 165.32 483.5 165.58 483.45 165.83 483.41 166.09 483.38 166.34 483.36 166.59 483.33 166.84 483.32 167.1 483.3 167.34 483.3 167.6 483.3 167.86 483.3 168.13 483.31 168.4 483.32"/><path class="cls-14" d="m173.34,551.66c-.77,1.62-2.74,2.32-4.37,1.56-1.4-.65-2.86-1.47-3.82-2.71-.64-.81-.93-1.71-1.24-2.67-.55-1.7.32-3.57,2.03-4.16,1.67-.57,3.62.33,4.17,2.04.08.25.15.51.24.77.21.15.44.29.66.43.25.13.51.26.77.38,1.22.58,1.93,1.87,1.86,3.17-.02.41-.12.82-.3,1.2Z"/><path class="cls-14" d="m175.84,544.2c-.79,1.67-2.71,2.25-4.36,1.56-1.68-.69-3.49-1.81-3.81-3.74-.3-1.76.75-3.5,2.55-3.87,1.29-.27,2.68.33,3.41,1.4.21.1.43.2.66.29,1.25.52,1.92,1.87,1.86,3.16-.02.42-.12.83-.3,1.2Z"/><path class="cls-14" d="m171.21,540.4c-1.79-.1-3.19-1.67-3.1-3.45s1.67-3.19,3.45-3.09c1.79.09,3.18,1.66,3.09,3.44s-1.66,3.19-3.44,3.1Z"/><path class="cls-14" d="m173.61,532.78c-.84.17-1.7.28-2.55.21-.43-.04-.85-.13-1.28-.19.14.02.27.03.42.05-.89-.11-1.68-.43-2.28-1.1-.57-.64-.87-1.5-.82-2.35.1-1.7,1.68-3.31,3.45-3.09.31.03.62.09.93.14.07,0,.13,0,.2.01.1,0,.2-.02.3-.03.11-.02.22-.04.33-.06,1.75-.35,3.51.8,3.87,2.55.05.27.07.53.06.79-.08,1.45-1.13,2.77-2.62,3.07Z"/><path class="cls-14" d="m172.75,522.59c-1.63.34-3.19.19-4.7-.45-1.64-.7-2.29-2.8-1.56-4.37.78-1.64,2.68-2.24,4.31-1.58,0,0,0,0,0,0-.08-.03-.16-.06-.24-.1.12.05.25.09.37.12.04,0,.08.01.12.02,0,0,0,0,.01,0,.12-.03.24-.05.37-.08,1.74-.37,3.51.82,3.87,2.56.06.27.07.54.06.81-.08,1.45-1.14,2.75-2.61,3.06Z"/><path class="cls-5" d="m190.97,538.35c.17-5.06,1.11-10.09.71-15.16-1.15-7.09-3.74-14-6.32-20.69-2.95-6.61-5.66-15.56-13.58-17.1-3.95-.54-8.06-.61-11.52,1.51-2.14,1.44-3.63,3.61-5.55,5.29-3.55,2.62-7.5,4.61-9.78,8.61-2.39,4.25-1.33,9.57-2.69,14.19-4.71,15.82,2.55,32,15.94,40.94,6.27,2.26,11.77,7.77,18.88,5.54,3.82-.69,6.87-3.38,8.36-6.93,1.17-2.25,2.15-5.33,4.89-6,.46-3.37.42-6.81.66-10.21Zm8.34-6.5c-.4,4.37-.6,8.74-.83,13.12-.14,2.88.09,7.21-3.47,7.95-.09,1.34-1.05,2.25-1.72,3.31-3.51,10.4-15.36,15.78-25.71,12.86-4.47-1.93-12.59-5.72-16.44-8.29-14.85-12.44-21.79-29.52-16.36-48.58.95-4.34.48-8.97,2.17-13.12,1.23-2.82,3.29-5.26,5.36-7.5,1.93-2.28,4.77-3.38,7.08-5.17,2.75-2.75,5.3-5.83,8.97-7.41,11.07-4.74,24.81-.45,29.83,10.85,6.15,13,12.8,27.3,11.12,41.99Z"/><path class="cls-5" d="m232.96,561.82c-.27,4.16-5,4.47-8.2,3.68-9.67-1.18-18.79-6.05-24.9-13.69-3.1-3.71-6.39-8.09-6.5-13.11.21-3.42,5.06-4.69,7.02-1.95,3.3,10.94,13.3,19.28,24.64,20.82.32-11.99-8.08-15.96-16.43-22.24-2.93-1.74-6.13-3.14-9.47-3.88-2.31-.17-4.29-2.02-3.99-4.45,2.51-11.25,27.98,8.5,31.84,12.84,5.35,6.39,6.07,14.19,5.99,21.98Z"/><path class="cls-5" d="m215.61,589.52c.14-4.32-.31-8.77-2.34-12.65-3.84-7.61-7.73-15.45-15.13-20.18-1.68,10.3,1.72,20.39,5.79,29.59,2.61,4.29,6.89,7.29,10.69,10.46.62-2.36.82-4.8.99-7.23Zm7.15,6.74c-1.15,6.35-3.6,14.22-11.07,8.08-7.41-5.48-14.79-11.4-17.19-20.48-2.66-7.02-5-14.27-4.59-21.88,0-4.03.75-7.94,1.26-11.91.14-2.55,3.19-4.18,5.44-3.16,1.04-.19,2.14.02,2.98.74,5.97,4.93,12.45,9.47,15.83,16.7,6.15,9.5,9.95,20.56,7.33,31.91Z"/><path class="cls-5" d="m230.16,510.73c-2.35,4.72-5.01,9.21-9.26,12.33-7.09,4.68-17.16,5.97-24.97,2.55-3.25-2.38-1.44-7.81,2.68-7.33,9.82,3.71,19.95-.15,24.06-10.03,0,0,0,0,0,0-7.31-.79-15.9-3.04-22.43,1.39-.54.46-.96,1.01-1.23,1.67-.92,1.93-3.56,2.51-5.35,1.52-1.89-1.01-2.53-3.49-1.52-5.35,2.87-5.92,10.05-7.93,16.14-8.33,5.79.06,11.65.58,17.34,1.7,5.1.48,6.63,5.76,4.54,9.88Z"/><path class="cls-5" d="m244.16,522.45c-7.26,8.2-17.67,14.68-29,12.35-5.09-.66-4.2-8.36.91-7.82,7.98,1.86,14.82-2.52,20.4-7.78-3.71-3.1-13.26-1.48-12.45-8.13.5-2.01,2.71-3.47,4.77-2.86,6.12,1.7,21.05,5.31,15.38,14.23Z"/><path class="cls-5" d="m146.16,550.68c-.1,2.36-2.14,3.89-4.19,4.59-4.35,1.8-8.68,3.69-13.14,5.26-5.01,2.05-33.12,5.66-32.64-2.6,1.35-8.5,10.14-13.96,17.45-17.21,4.84-2.09,28.08-9.02,26.7.99-1.31,4.73-7.41,2.15-10.76,2.92-8.5,1.09-17.34,3.95-23.29,10.35,11.47,1.13,22.17-2.01,32.35-6.82,2.01-4.31,8.44-2.16,7.52,2.52Z"/><path class="cls-5" d="m156.25,562.52c-2.93,11.6-14.42,19.03-24.55,24.08-10.02,3-19.75,4.35-14.7-9.71,1.51-5.62,5.16-10.1,8.88-14.41,4.57-6.11,10.14-12.16,17.7-14.34,5.86-1.12,6.79,7.19.98,7.93-5.88,2.45-9.77,7.74-13.58,12.59-3.05,3.4-5.83,7.12-6.79,11.69,8.37-.99,22.72-11.4,24.42-19.75,1.33-4.97,8.85-3.06,7.63,1.91Z"/><path class="cls-5" d="m164.56,572.71c-1.68,11.13-7.79,21.85-16.41,29.07-4.83,3.67-10.73,6.09-16.85,5.96-15.76,1.09-4.49-17.75.53-23.88,1.79-2.77,3.85-5.39,5.63-8.14,2.51-4.46,9.29-.7,6.87,3.83-4.11,6.9-10.32,12.7-12.65,20.31,15.73-.91,25.48-19.35,25.36-33.66-.07-2.15,1.78-3.96,3.89-3.98,5.45.23,3.8,6.83,3.64,10.49Z"/><path class="cls-5" d="m196.2,581.15c-.49,9.38-3.54,18.33-7.14,26.93-1.5,2.8-2.42,6.49-5.39,8.07-2.76,1.23-5.08-1.08-6.63-3.13-4.09-4.51-6.49-10.1-6.69-16.2-.91-9.61-.98-19.76,3.44-28.6-.12-2.31,2.18-4.15,4.38-3.88,7.39,1.95.62,9.98.25,14.6-.72,4.15-.9,8.36-.54,12.54.39,5.29.06,10.23,3.55,14.4,4.18-9.52,7.29-19.36,7.09-29.79-.14-2.14,1.81-3.96,3.88-3.98,4.79.1,4.14,5.68,3.81,9.04Z"/><path class="cls-5" d="m179.31,613.75c-2.07,4.25-5.94,7.36-9.47,10.4-5.89,4.96-9.2-2.1-10.83-7.04-4.73-13.23-2.06-28.39.74-41.82.66-2.6,1.81-5.11,3.72-7.04.32-1.96,2.41-3.32,4.31-3.1,2.15.22,3.68,2.25,3.45,4.36-.09,1.75-1.19,3.16-2.3,4.42-2.12,2.86-2.18,6.74-3.05,10.1-1.2,10.99-3.34,22,1.21,32.16,1.7-1.69,3.65-3.26,4.9-5.32.83-1.97,3.07-3.01,5.1-2.22,1.97.78,3.05,3.16,2.22,5.11Z"/><path class="cls-5" d="m226.42,489.41c-1.39,4.26-1.25,14.77-7.97,12.97-2.4-.85-3.14-4.06-1.82-5.99.62-1.94,1.14-3.94,1.58-5.94-7.01,1.21-14.11,3.39-18.77,9.12-1.23,1.55-2.45,3.2-2.9,5.16-.95,2.56-4.52,3.33-6.43,1.35-4.88-6.79,9.4-18.23,15.23-20.37,6.16-1.58,23.44-8.69,21.08,3.71Z"/><path class="cls-5" d="m145.29,491.98c-3.67,2.04-5.51-1.77-7.36-4.21-2.48-2.49-5.56-3.76-8.35-5.78-1.26,6.71,1.49,14.4,7.21,18.3,6.39-.79,6.01,8.25-.06,8.22-6.24-1.09-10.87-7.27-13.22-12.81-2.11-5.71-3.11-12.24-.79-18.04.98-2.52,2.24-5.8,5.4-5.89,2.89.03,4.33,3.24,6.83,4.37,4.33,2.57,16.97,10.34,10.34,15.84Z"/><path class="cls-5" d="m136.79,529.7c-2.81,3.02-7.39,3.18-11.26,3.44-8.23.54-16.54-1.58-23.32-6.34-6.16-4.66-17.33-14.56-2.43-15.83,11.61-1.22,23.77-5.02,35.3-1.71,4.74,1.96,1.91,9.16-2.88,7.31-9.24-2.12-18.78.71-28.02,1.71,6.82,6.26,19.32,9.61,27.69,5.29,4.03-3.02,8.77,2.9,4.92,6.14Z"/><path class="cls-5" d="m113.48,544.3c-1.78,7.08-10.75,1.72-13.28-2.2-3.36-4.19-3.02-9.86-.68-14.45.81-1.98,3.09-3.01,5.1-2.22,4.05,1.78,1.98,5.54.97,8.58-.49,2.66,2.01,5.27,4.44,5.94,2.15.11,3.68,2.33,3.46,4.35Z"/><path class="cls-5" d="m157.94,478.54s0,0,0,0c-2.9-10.35-5.06-21.52-11.98-30.02-4.51,9.82,2.33,23.24,10.24,29.54.62,0,1.21.19,1.73.49Zm4.84,2.74c-1.02.28-2.1.11-2.99-.39.77,2.47-1.21,4.93-3.72,5.01-5.2-.05-8.61-5.44-11.85-8.9-5.97-9.32-10.9-22.32-4.93-32.73,5.83-12.56,9.25-6.13,14.71,2,5.27,6.69,7.1,15.13,9.66,23.07.58,3.82,4.48,10.02-.88,11.93Z"/><path class="cls-5" d="m186.99,429.66c-1.57,11.71-3.2,22.82-3.43,34.59-.12,5.62-1.71,11.24-.83,16.8-.22,3.87-5.6,5.36-7.56,1.91-1.7-5.23.13-11.07.36-16.46.63-11.94,1.24-23.17,3.41-34.85-14.67.54-16.13,18.16-16.62,29.52-1.03,4.34,5.62,9.74-.08,12.61-4.95,1.76-6.49-4.88-7.55-8.39-.64-11.39.77-24.05,7.43-33.66,3.47-6.03,25.81-13.9,24.87-2.07Z"/><path class="cls-5" d="m171.01,481.1c-2.86,3.61-7.14.14-8.67-2.87-2.49-4.31-6.33-8.81-5.62-14.06.2-3.41,5.08-4.7,7.01-1.94,1.33,1.56.28,3.69,1.45,5.32,1.27,2.43,2.53,4.59,3.78,6.48.4.54.74,1.16,1.27,1.57,1.77,1.21,2.02,3.84.78,5.5Z"/><path class="cls-5" d="m223.59,470.17c-.59,5.9-2.58,11.63-4.89,17.06-.93,1.93-3.56,2.52-5.35,1.52-1.95-1.09-2.45-3.42-1.52-5.35,1.93-4.83,3.72-9.88,4.02-15.12-5.07,1.22-10.34,3.36-14.09,7.08-1.66,2.03-3.51,5.11-4.87,7.04-1.63,2.67-2.95,5.64-3.36,8.75.31,1.3-.16,2.78-1.11,3.72-1.46,1.43-4.12,1.64-5.56.03-4.11-7.26,3.73-16.89,7.56-22.94,4.78-6.62,19.56-14.39,27.45-10.74,2.67,2.09,1.78,5.96,1.71,8.92Z"/><path class="cls-5" d="m209.55,443.14c-.38,4.43-2.21,8.49-4.42,12.29-1.98,5.96-4.15,11.61-4.95,17.8-.11,2.15-2.33,3.69-4.36,3.45-6.69-1.52-1.93-10.68-.91-14.98,1.11-6.61,5.24-12.02,6.69-18.43-4.84-.89-9.24.96-12.16,4.89-1.9,2.57-4.08,6.01-7.63,3.57-4.85-4.59,3.57-10.58,6.85-13.49,4.71-3.7,11.02-3.06,16.62-2.52,3.73.22,5.1,4.22,4.27,7.42Z"/><path class="cls-5" d="m143.21,473.01c-1.95,1.52-2.46,4.09-2.38,6.45,3.15,5.18-5.3,8.76-7.39,3.38-1.36-5.29.02-11.65,4.19-15.36,3.69-3.57,9.17,1.87,5.59,5.54Z"/><path class="cls-5" d="m124.78,501.12c-1.89.4-3.87,1.16-5.43,2.19-.85.65-.79,1.81-.67,2.77,3,2.17,1.36,7.24-2.36,7.12-3.72.61-5.34-3.35-5.48-6.43-.6-3.96,1.07-8.09,4.52-10.23,3.39-1.92,10.2-5.69,12.16-.26.55,2-.65,4.37-2.74,4.84Z"/><path class="cls-5" d="m673.67,612.48c-14.26.4-27.88,2.92-42.1,2.21-12.12-.19-24.15,1.95-36.28,1.46-27.57-.93-55.15-2.51-82.6-5.27-54.75-5.37-109.74-11.54-163.28-24.41-22.78-5.95-42.89-18.87-64.8-26.99-9.84-4.31-18.42-9.93-28.75-11.73-10.73-2.03-22.28.68-32.71-2.76.15.06.29.14.43.2.09.02.18.04.27.07-4.34-1.3-3.23-8.2,1.59-7.64,10.99,2.8,22.76.12,33.84,2.83,8.27,1.76,16.08,5.75,23.48,9.6,16.28,6.59,31.95,14.31,47.98,21.34,19.78,9.04,41.69,12.58,63.02,16.08,23.87,4.65,47.33,7.51,71.35,10.51,36.02,4.1,72.09,7.84,108.32,9.39,14.19.86,28.6,1.52,42.75.12,9.96-1.08,19.96-.31,29.93-.79,9.14-.74,18.26-1.84,27.45-2.09,4.74-.05,5.62,7.58.1,7.87Z"/><path class="cls-5" d="m596.63,599.07c-.22,2.12-2.25,3.69-4.35,3.44-7.22-.37-14.44-.69-21.63-1.38-21.52-3.08-43.32-2.91-64.95-4.79-29.34-1.9-58.47-5.81-87.44-10.8-19.87-3.79-39.33-6.3-58.1-13.67-25.62-6.06-50.62-16.3-73.65-28.68-7.25-3.38-14.89-6.27-22.64-8.2-10.23-1.26-20.58-1.14-30.86-1.22-3.14.19-6.12-2.33-5.53-5.64.22-3.26,4.75-4.66,6.83-2.17,11.7.23,23.79-.61,35.2,2.37,23.64,7.17,44.78,21.75,68.18,29.1,12.71,3.64,25.69,6.87,38.06,11.47,20.54,5.35,41.3,8.43,62.01,11.78,39.58,6.95,79.79,8.41,119.81,10.96,10.84,1.47,21.73,2.49,32.66,2.9l2.95.15c2.14.11,3.68,2.33,3.44,4.36Z"/><path class="cls-5" d="m746.72,604.28c0,5.26-3.23,6.39-7.88,6.45-9.09,1.24-18.18,2.41-27.36,2.74-6.47-.17-42.8,3.02-41.46-6.12.24-2.13,2.23-3.68,4.36-3.44,21.23,4.33,43.38,1.51,64.56-1.09,0-.02,0-.05,0-.07.07-1.75.09-3.5.03-5.25-9.53,1.56-19.2,1.03-28.81,1.11-7.57.36-15.13.77-22.71.6-14.07.11-27.4,2.71-41.23,1.89-14.78-1.64-31.88,1.65-44.83-6.96-3.11-2.22-4.36-5.78-6.2-8.94-2.32-3.31-5.34-6.05-8.18-8.9-14.25-.8-16.38-3.92-19.83-17.14-4.08,2.56-10.33,1.9-12.15-3.08-1.53-3.74,1.91-10.32-3.44-11.78-.15,3.9-3.74,7.63-7.53,4.95-2.06-1.34-2.84-3.82-4.46-5.55-1.29-.94-2.34-1.32-3.57-1.87,5.25,3.26,1.93,9.19-3.57,8.86,3.77.94,8.01,1.49,10.94,4.26,4.13,4.39.19,9.63-5.08,9.97.7.31,1.39.65,2.06,1.04.99.58,1.77,1.33,2.56,2.11,4.93-1.32,13.57-5.96,15.81,1.38.86,2.31,3.04,3.73,4.2,5.86,1.04,1.72,1.25,3.75,2.16,5.51,6.63.79,14.48-3.45,19.96,2.15,3.54,3.23,6.01,7.44,8.45,11.52,1.97,1.6,1.83,5-.16,6.53-1.75,1.38-4.13.89-5.52-.71-2.57-3.47-6.19-12.94-11.15-12.43-5,.25-10.47,2.14-15.25-.1-2.94-1.5-4.12-4.65-4.91-7.63-1.04-2.52-3.62-4.15-4.61-6.74-4.23,1.07-9.16,4.38-13.3,1.38-3.49-4.18-10.59-3.94-13.01-9.31-1.68-3.57,1.64-6.77,5.08-7.13-4.22-.98-9.26-2.32-11.04-6.75-2.08-4.05.5-8.52,5.1-8.51-5.37-4.18-8-12.1,1.45-12.08,6.76.73,13.99,3.09,19.27,7.46,3.15-3.42,8.62-2.33,12.07.04,4.69,3.04,5.44,9.06,4.88,14.18,2.26-.74,3.64-3.2,5.97-3.78,4.57-1.1,5.94,4.05,6.2,7.56.61,3.36,2.24,6.38,3.08,9.66,1.26,1.19,3.14,1.44,4.77,1.82,3.25.74,7.11-.17,9.68,2.39,18.17,16.2,5.89,20.74,35.47,22.16,13.4.49,27.2,1.47,40.5.02,21.01-1.82,42.13-1.33,63.18-2.04,15.65-2.25,15.98-2.91,15.43,13.81Z"/><path class="cls-5" d="m392.48,595.89c-3.34,1.84-7.41.34-11.02,1.26-14.79,5.08-10.01,22.59-35.32,24.42-9.19.48-18.47-.19-27.61-.14-3.88-1.61-2.81-6.7.88-7.81,1.25-.81,2.28-2.18,3.05-3.36,4.94-9.54,8.67-15.08,20.16-16.14,7.45-.54,14.28-3.12,20.42-7.23,4.11-3.07,8.86,3.06,4.8,6.22-7.8,5.56-16.81,8.22-26.24,9.18-6.69.24-9.13,6.26-11.96,11.31,9.21.21,19.4,1.65,27.65-3.39,12.18-11.55,11.37-22.54,32.41-21.31-.52.02-1.03.16-1.45.43,4.13-2.26,8.01,3.73,4.23,6.56Z"/></g><g class="cls-15"><path class="cls-1" d="m524.78,543.07c-5.37-4.17-8-12.1,1.45-12.08,6.76.73,14,3.09,19.27,7.47,3.14-3.41,8.62-2.33,12.07.04,4.69,3.05,5.44,9.06,4.87,14.18,2.26-.73,3.64-3.2,5.98-3.78,4.57-1.1,5.93,4.06,6.19,7.56.62,3.36,2.24,6.38,3.08,9.66,1.26,1.19,3.14,1.44,4.77,1.83,3.25.74,7.1-.17,9.68,2.39,18.17,16.2,5.9,20.74,35.47,22.16,13.4.5,27.21,1.47,40.51.02,21.01-1.82,42.14-1.34,63.18-2.03,15.65-2.26,15.98-2.91,15.43,13.81,0,5.26-3.24,6.39-7.88,6.45-9.08,1.24-18.19,2.41-27.36,2.74-4.83-.13-26.29,1.62-36.31-1.29-.43.17-.94.28-1.5.31-14.26.39-27.88,2.91-42.1,2.21-12.12-.2-24.15,1.95-36.28,1.46-27.57-.93-55.14-2.51-82.6-5.27-6.47-.63-12.93-1.27-19.4-1.94-27.21-2.81-54.44-5.98-81.46-10.25-6.31-.99-12.63-2.05-18.92-3.18-.12.14-.27.25-.43.38-3.33,1.85-7.41.34-11.01,1.26-14.79,5.07-10.01,22.59-35.33,24.41-9.19.48-18.47-.19-27.61-.14-3.88-1.61-2.81-6.7.88-7.82,1.25-.81,2.28-2.18,3.05-3.36,4.93-9.54,8.67-15.08,20.16-16.14,6.15-.44,11.89-2.29,17.16-5.24-3.47-.77-6.92-1.58-10.37-2.4-22.79-5.96-42.88-18.88-64.8-26.99-9.84-4.31-18.42-9.94-28.75-11.73-8.13-1.54-16.74-.36-24.97-1.2.04.08.06.17.1.25l-.03-.03-.06-.06-.06-.06-.06-.06-.04-.04-.02-.02-.06-.06-.06-.07-.06-.06-.06-.06-.05-.06-.06-.07-.06-.06-.07-.08-.06-.06-.06-.07-.06-.07-.06-.06-.06-.07-.07-.08-.06-.07-.06-.07-.07-.08-.06-.07-.06-.08-.07-.08-.06-.07-.06-.07-.06-.07-.07-.08-.06-.07-.06-.07-.07-.07-.06-.07-.06-.07-.06-.07-.07-.08-.06-.06-.06-.07-.06-.07-.07-.08-.06-.07-.07-.08-.07-.08-.06-.07-.07-.08-.07-.08-.06-.07-.07-.08-.07-.09-.07-.08-.07-.08-.07-.08-.07-.08-.07-.08-.07-.08-.07-.08-.07-.09-.07-.08-.08-.08-.07-.09-.08-.08-.08-.09-.07-.09-.08-.09-.08-.08-.08-.09-.07-.09-.08-.09-.08-.09-.08-.09-.08-.1-.09-.1-.08-.09-.09-.1-.08-.1-.08-.1-.09-.1-.08-.1-.09-.1-.09-.11-.09-.1-.09-.11-.1-.11-.09-.12-.1-.11-.1-.11-.09-.11-.1-.12-.1-.11-.1-.11-.09-.11-.1-.11-.09-.11-.1-.11-.1-.11-.09-.11-.1-.1-.09-.11-.1-.1-.09-.11-.09-.1-.09-.09-.09-.1-.09-.1-.08-.09-.09-.09-.04-.04-.04-.04-.09-.09-.08-.09-.08-.09-.07-.08-.08-.08-.08-.08-.07-.08-.08-.08-.07-.08-.07-.08-.07-.07-.07-.08-.07-.06-.07-.07-.07-.06-.06-.06-.07-.07-.07-.06-.06-.07-.07-.06-.07-.06-.07-.08-.06-.06-.06-.06-.06-.07-.06-.05-.05-.06-.05-.06-.05-.05-.05-.06-.04-.05-.04-.05-.04-.05-.03-.04-.03-.05-.03-.05-.03-.04-.02-.04v-.04s-.03-.04-.03-.04v-.04s0-.01,0-.01v-.03s0-.04,0-.04v-.04s0-.04,0-.04l.02-.03v-.04s.03-.04.03-.04l.03-.03.03-.04.04-.03.04-.04h.01s.03-.03.03-.03l.05-.03.05-.04.05-.03.06-.03.06-.04.07-.03.07-.03.08-.04.08-.04.09-.03.1-.04.1-.04.12-.05.11-.03.13-.04.14-.03.13-.04.14-.04.15-.04.16-.05.15-.05.15-.05.16-.05.16-.05.17-.06.16-.06.17-.06.16-.07.17-.06.16-.07.17-.07.17-.07.17-.07.16-.08.17-.07.17-.08.17-.08.17-.07.16-.08.17-.08.16-.07.17-.08.16-.07.16-.08.17-.08.16-.07.16-.08.16-.08.17-.08.16-.08.17-.08.11-.06.05-.03.17-.09.16-.09.17-.08.17-.09.17-.09.16-.09.17-.1.16-.09.17-.09.16-.09.16-.09.15-.09.15-.09.15-.08.14-.09.14-.09.14-.07.13-.08.13-.09.12-.07.13-.08.12-.08.12-.07.12-.08.11-.07.12-.07.12-.07.11-.07.13-.08.12-.07.12-.07.13-.08.13-.07.13-.07.13-.08.14-.06.13-.08.14-.06.13-.07.14-.06.14-.06.14-.06.13-.07.14-.06.13-.05.13-.07.13-.06.13-.05.12-.06.13-.04.12-.06.13-.04.12-.06.11-.05.12-.05.12-.05.11-.05.1-.04.12-.05.11-.04.1-.04.1-.05.11-.04.1-.04.11-.03.1-.04.1-.03.1-.04.11-.04.1-.04.1-.03.1-.04.1-.03.09-.03.1-.04.1-.03.09-.03.09-.03.1-.03.09-.03.09-.03.09-.03.08-.03.09-.03.09-.03.09-.03.08-.03.08-.03.09-.02.08-.03.08-.03.08-.03.08-.02.08-.03.08-.03.08-.02.08-.03.08-.03.07-.03.08-.02.07-.03.08-.03.05-.02h.02s.07-.04.07-.04l.07-.02.08-.03.07-.03.07-.03.07-.03.07-.03.08-.04.07-.03.08-.03h.02c9.52,0,19.17-.09,28.38,2.31,23.65,7.17,44.78,21.74,68.18,29.1,12.71,3.64,25.69,6.87,38.06,11.47,8.57,2.23,17.17,4.07,25.8,5.69,12.05,2.27,24.14,4.14,36.21,6.09,23.09,4.05,46.39,6.23,69.75,7.86,16.68,1.16,33.39,2.03,50.07,3.09,8.86,1.2,17.75,2.1,26.67,2.61-2.08-3.43-4.57-6.72-7.54-6.42-5.01.25-10.47,2.14-15.25-.1-2.94-1.49-4.12-4.64-4.92-7.62-1.04-2.52-3.62-4.15-4.61-6.75-4.23,1.07-9.15,4.37-13.29,1.38-3.49-4.17-10.6-3.94-13.01-9.31-1.68-3.57,1.64-6.77,5.08-7.13-4.22-.99-9.26-2.32-11.04-6.75-2.09-4.04.5-8.51,5.1-8.5Z"/><path class="cls-11" d="m162.12,431.72c3.47-6.03,25.81-13.89,24.87-2.06-.52,3.83-1.04,7.58-1.51,11.32,1.19-1.07,2.35-2,3.18-2.74,4.71-3.69,11.02-3.06,16.62-2.52,3.74.22,5.1,4.23,4.27,7.42-.37,4.44-2.21,8.5-4.42,12.29-1.13,3.41-2.33,6.71-3.29,10.07,6.39-4.02,14.76-6.69,20.03-4.24,2.68,2.1,1.78,5.96,1.71,8.92-.42,4.13-1.51,8.16-2.92,12.08,3.99,0,6.79,1.66,5.75,7.16-.89,2.74-1.16,8.08-3.02,11.05.74.12,1.48.26,2.21.4,4.32.41,6.08,4.25,5.25,7.93,6.83,1.91,18.41,5.64,13.31,13.67-1.1,1.24-2.28,2.44-3.52,3.58.16,0,.33,0,.49,0h-.02s-.08.04-.08.04l-.07.03-.08.04-.07.03-.07.03-.07.03-.07.03-.08.03-.07.02-.07.03h-.02s-.05.03-.05.03l-.08.03-.07.03-.08.02-.07.03-.08.03-.08.03-.08.02-.08.03-.08.03-.08.02-.08.03-.08.03-.08.03-.09.02-.08.03-.08.03-.09.03-.09.03-.09.03-.08.03-.09.03-.09.03-.09.03-.1.03-.09.03-.09.03-.1.03-.1.04-.09.03-.1.03-.1.04-.1.03-.1.04-.11.03-.1.04-.1.03-.1.04-.11.04-.1.04-.11.03-.11.05-.1.04-.11.03-.12.05-.1.04-.12.05-.12.05-.11.05-.12.05-.12.06-.13.04-.12.06-.13.04-.12.06-.13.05-.13.05-.13.07-.13.05-.14.06-.13.07-.14.06-.14.06-.14.06-.13.07-.14.06-.13.08-.14.06-.13.08-.13.07-.13.07-.13.08-.12.07-.12.07-.13.08-.11.07-.12.07-.12.07-.11.07-.12.08-.12.07-.12.08-.13.08-.12.07-.13.09-.13.08-.14.07-.14.09-.14.08-.15.08-.15.09-.15.09-.16.09-.16.09-.17.09-.16.09-.17.1-.16.09-.17.09-.17.09-.17.08-.16.09-.17.09-.05.03-.11.06-.17.08-.16.08-.17.08-.16.08-.16.08-.16.07-.17.08-.16.08-.16.07-.17.08-.16.07-.17.08-.16.08-.17.07-.17.08-.17.08-.17.07-.16.08-.17.07-.17.07-.17.07-.16.07-.17.06-.16.07-.17.06-.16.06-.17.06-.16.05-.16.05-.15.05-.15.05-.16.05-.15.04-.14.04-.13.04-.14.03-.13.04-.11.04-.11.05-.1.04-.1.04-.09.03-.08.04-.08.04-.07.03-.07.03-.06.04-.06.03-.05.03-.05.04-.05.03-.03.02h-.01s-.04.05-.04.05l-.04.03-.03.04-.03.03-.02.04v.04s-.03.03-.03.03v.04s0,.04,0,.04v.04s0,.03,0,.03h0s0,.05,0,.05l.02.04v.04s.03.04.03.04l.03.04.03.05.03.05.03.04.04.05.04.05.04.05.05.06.05.05.05.06.05.06.06.05.06.07.06.06.06.06.07.08.07.07.07.06.06.07.07.07.07.06.06.06.07.06.07.06.07.07.07.08.07.07.07.08.07.08.08.08.07.08.08.08.08.08.07.08.08.09.08.09.09.09.04.04.04.04.09.09.08.09.09.1.09.1.09.09.09.1.09.11.1.1.09.11.1.1.09.11.1.11.1.11.09.11.1.11.09.11.1.11.1.11.1.12.09.11.1.11.1.11.09.12.1.11.09.11.09.1.09.11.09.1.08.1.09.1.08.1.08.1.09.1.08.09.09.1.08.1.08.09.08.09.08.09.07.09.08.09.08.08.08.09.07.09.08.09.08.08.07.09.08.08.07.08.07.09.07.08.07.08.07.08.07.08.07.08.07.08.07.08.07.09.07.08.06.07.07.08.07.08.06.07.07.08.07.08.06.07.07.08.06.07.06.07.06.06.07.08.06.07.06.07.06.07.07.06.06.07.06.07.07.08.06.07.06.07.06.07.07.08.06.08.06.07.07.08.06.07.06.07.07.08.06.07.06.06.06.07.06.07.06.06.07.08.06.06.06.07.05.06.06.06.06.06.06.07.06.06.02.02.04.04.06.06.06.06.06.06.03.03c1.73,4.73,2.03,9.87,1.97,15.01-.28,4.17-5,4.48-8.2,3.68-3.48-.43-6.9-1.33-10.13-2.68.28.5.54,1.01.79,1.54,6.15,9.49,9.96,20.55,7.33,31.91-1.15,6.35-3.6,14.22-11.07,8.08-6.54-4.84-13.02-10-16.13-17.37-1.16,7.28-3.65,14.31-6.5,21.1-1.51,2.8-2.42,6.5-5.39,8.08-1.9.84-3.59.02-4.97-1.26-2.16,3.68-5.65,6.5-8.85,9.26-5.89,4.96-9.2-2.1-10.83-7.04-2.84-7.94-3.01-16.57-2.09-25.11-2.48,3.67-5.44,6.99-8.77,9.79-4.83,3.68-10.73,6.09-16.85,5.95-13.45.92-7.22-12.65-1.98-20.46-9.09,2.44-16.95,2.56-12.32-10.39,1.51-5.62,5.17-10.1,8.88-14.41.34-.45.68-.9,1.02-1.35-8,2.03-31.16,4.31-30.72-3.2.78-4.95,4.11-8.88,8.19-11.93-1.79-1.12-3.35-2.59-4.2-3.91-3.36-4.19-3.02-9.85-.68-14.45.31-.75.83-1.36,1.47-1.79-6.25-4.94-15.16-13.7-1.21-14.88,3.79-.4,7.63-1.07,11.5-1.68-.25-.83-.38-1.7-.42-2.51-.61-3.96,1.06-8.08,4.52-10.23,1.88-1.07,4.82-2.71,7.4-3.02-1.57-5.16-2.08-10.79-.05-15.86.98-2.52,2.24-5.8,5.4-5.89,2.21.02,3.58,1.91,5.22,3.3.64-2.91,2.08-5.63,4.29-7.61.42-.4.86-.69,1.31-.88-2.76-7.36-3.6-15.41.36-22.31,5.83-12.56,9.25-6.13,14.71,2,.56.71,1.08,1.44,1.56,2.19,1.08-6.01,3.12-11.79,6.56-16.76Zm30.2,40.74c.02.41.07.8.16,1.18-.08-.37-.14-.77-.16-1.18Z"/><path class="cls-4" d="m143.47,547.67c-1.57,2.94-4.09,1.63-6.5.8-7.5-1.24-15.4-1.02-22.66,1.32-1.69.56-3.58-.34-4.17-2.04-2.9-8.54,37.48-9.49,33.33-.08Z"/><path class="cls-4" d="m138.64,532.02c-1.56,4.13-16.4,15.04-18.56,7.64-.22-5.31,7.62-4.38,10.38-7.99.85-.71,1.74-1.46,2.26-2.46,1.85-3.86,7.68-1.07,5.92,2.81Z"/><path class="cls-4" d="m140.34,508.37c-2.58,12.71-28.1-15.64-11.87-11.55,4.19,3.23,10.45,6.28,11.87,11.55Z"/><path class="cls-4" d="m137.91,520.79c-1.83,5.38-12.47-.74-9.7-5.11,2.55-3.73,10.78,1.19,9.7,5.11Z"/><path class="cls-4" d="m146.48,494.16c-1.04,5.59-6.55,2.71-7.91-1.14-1.86-3.25-9.08-6.29-5.29-10.46,5.07-2.95,11.79,7.46,13.2,11.6Z"/><path class="cls-4" d="m155.01,487.58c-2.48,7.27-15.07,1.27-6.73-3.07-.85-4.03-8.38-8.52-3.95-12.31,5.54-2.61,11.72,10.87,10.67,15.38Z"/><path class="cls-4" d="m162.89,480.85c-1.27,5.85-7.22,2.15-8.25-1.89-1.12-3.59-7-9.33-2.41-12.26,5.1-2.23,6.55,7.72,9.05,10.76.83.97,1.78,1.93,1.6,3.4Z"/><path class="cls-4" d="m174.79,601.19c-10.66,3.8-9.61-24.42-7.2-30.65.58-5.8,8.84-8.19,7.55-.85-4.12,8.38-3.17,18.43-.05,26.88,1.08,1.41,1.1,3.39-.3,4.62Z"/><path class="cls-4" d="m159.93,561.59c-.26,5.23-16.62,25.95-21.59,19.47-.96-1.44-.62-3.61.9-4.56,6.18-3.81,11.62-9.34,14.32-16.07-.11.25-.13.46-.16.71.41-4.2,6.76-3.76,6.53.45Z"/><path class="cls-4" d="m151.02,559.7c-6.44-.72-16.38,10.2-20.4,4.91-1.3-2.61,1.05-4.42,3.17-5.29,3.43-2.07,19.53-10.37,20.24-3.13.15,1.79-1.24,3.33-3.02,3.51Z"/><path class="cls-4" d="m192.19,582.66c-6.02,1.9-7.74-22.42-3.08-24.2,3.35-2.23,6.99,2.54,3.99,5.18-1.8,6.12,5.18,15.55-.91,19.02Z"/><path class="cls-4" d="m199.8,559.73c-3.57,1.65-5.19-2.61-5.86-5.36-1.47-5.39,7.02-6.8,6.53-1.01,1.04,2.19,2.02,4.99-.67,6.37Z"/><path class="cls-4" d="m213.6,575.83c-4.76-1.78-7.5-7.26-11.93-9.93-2.87-2.83-12.25-6.11-8.92-11.1,5.24-3.51,10.65,5.74,15.4,7.89,3,3.02,14.46,10.96,5.45,13.15Z"/><path class="cls-4" d="m219.4,540.25c-3.54,5.3-15.41-5.27-22.18-3.65-4.67-.05-4.18-7.42.5-6.63,6.07,1.23,22.22,2.35,21.68,10.28Z"/><path class="cls-4" d="m228.79,529.96c-5.85.41-23.26,3.83-21.54-5.69,3.04-3.45,8.1.93,12.17-.05,3.68.68,10.58-3,11.93,1.87.35,1.71-.79,3.53-2.56,3.87Z"/><path class="cls-4" d="m214.99,502.55c-5.76-.61-12.4.23-17.1,3.63-3.09,7.21-10.03-1.24-4.13-5.1,3.3-3.62,24.51-9.36,24.67-1.62-.09,1.75-1.66,3.23-3.45,3.09Z"/><path class="cls-4" d="m212,519.72c-.63,5.5-20.36.4-21.23-3.59-.95-3.72,3.95-6.31,6.04-2.92,4.45,2.4,14.83.04,15.19,6.51Z"/><path class="cls-4" d="m189.6,491.94c-9.8,14.46-11.37-33.85-9.4-39.2.79-4.19,7.16-3.05,6.44,1.18-2.51,13.1,1.21,25.48,2.93,38.23.02-.17.02-.21.05-.42,0,.07-.02.13-.02.2Z"/><path class="cls-4" d="m178.31,486c-6.86,8.82-17.21-29.14-10.45-29.16,6.62.2,3.95,10.78,6.45,15.23.16,4.92,6.2,9.51,4,13.93Z"/><polygon class="cls-6" points="168.4 483.32 168.67 483.33 168.95 483.36 169.23 483.38 169.53 483.41 169.83 483.44 170.13 483.48 170.44 483.53 170.74 483.56 171.06 483.62 171.36 483.67 171.68 483.72 171.99 483.78 172.3 483.85 172.63 483.91 172.94 483.97 173.27 484.04 173.6 484.12 173.93 484.19 174.26 484.28 174.6 484.36 174.93 484.45 175.25 484.53 175.58 484.62 175.9 484.71 176.21 484.8 176.51 484.9 176.82 485 177.1 485.09 177.37 485.19 177.64 485.29 177.89 485.4 178.13 485.5 178.36 485.61 178.58 485.72 178.8 485.84 179.02 485.96 179.23 486.09 179.44 486.23 179.65 486.36 179.85 486.52 180.05 486.67 180.25 486.82 180.46 487 180.65 487.17 180.86 487.35 181.06 487.54 181.28 487.74 181.48 487.93 181.68 488.14 181.88 488.34 182.08 488.55 182.28 488.75 182.47 488.97 182.68 489.17 182.87 489.39 183.08 489.6 183.29 489.83 183.49 490.06 183.7 490.28 183.9 490.51 184.12 490.74 184.33 490.98 184.53 491.23 184.74 491.48 184.96 491.74 185.17 492 185.37 492.26 185.58 492.54 185.79 492.82 185.99 493.11 186.2 493.38 186.4 493.68 186.61 493.98 186.81 494.27 187.01 494.56 187.22 494.87 187.42 495.17 187.62 495.48 187.81 495.77 188.01 496.08 188.2 496.38 188.39 496.68 188.58 496.98 188.75 497.28 188.93 497.56 189.1 497.86 189.26 498.15 189.41 498.44 189.56 498.72 189.7 499.02 189.84 499.29 189.97 499.58 190.09 499.86 190.22 500.14 190.33 500.42 190.44 500.71 190.54 501 190.65 501.28 190.75 501.57 190.84 501.85 190.94 502.14 191.01 502.43 191.1 502.71 191.18 502.99 191.25 503.26 191.32 503.52 191.38 503.78 191.44 504.04 191.5 504.29 191.56 504.53 191.61 504.75 191.67 504.97 191.72 505.2 191.77 505.42 191.82 505.63 191.87 505.84 191.93 506.06 191.98 506.28 192.04 506.5 192.1 506.74 192.16 506.98 192.23 507.22 192.29 507.47 192.36 507.72 192.43 507.98 192.5 508.26 192.56 508.53 192.63 508.83 192.7 509.11 192.77 509.4 192.83 509.69 192.89 509.98 192.94 510.28 193 510.57 193.06 510.86 193.1 511.16 193.16 511.47 193.21 511.78 193.26 512.11 193.3 512.45 193.36 512.81 193.41 513.17 193.46 513.55 193.51 513.95 193.56 514.36 193.62 514.78 193.67 515.21 193.72 515.67 193.78 516.12 193.83 516.58 193.88 517.05 193.92 517.51 193.97 517.98 194.02 518.43 194.07 518.88 194.12 519.34 194.16 519.76 194.2 520.18 194.24 520.59 194.28 521 194.32 521.39 194.36 521.77 194.4 522.15 194.44 522.51 194.49 522.88 194.53 523.24 194.56 523.6 194.6 523.97 194.64 524.32 194.67 524.68 194.7 525.04 194.74 525.41 194.77 525.77 194.79 526.14 194.81 526.5 194.83 526.87 194.86 527.24 194.87 527.6 194.88 527.96 194.88 528.32 194.89 528.66 194.9 529 194.89 529.32 194.9 529.64 194.89 529.95 194.89 530.24 194.89 530.53 194.89 530.81 194.88 531.08 194.89 531.35 194.89 531.61 194.88 531.86 194.88 532.12 194.88 532.36 194.86 532.62 194.86 532.87 194.86 533.11 194.85 533.35 194.84 533.58 194.83 533.82 194.82 534.03 194.81 534.26 194.8 534.47 194.78 534.69 194.76 534.89 194.75 535.1 194.73 535.3 194.7 535.5 194.67 535.7 194.65 535.89 194.63 536.08 194.6 536.28 194.58 536.46 194.56 536.64 194.53 536.84 194.51 537.03 194.48 537.22 194.46 537.42 194.43 537.61 194.41 537.81 194.38 538.02 194.35 538.23 194.33 538.44 194.3 538.66 194.26 538.87 194.23 539.1 194.2 539.32 194.17 539.54 194.13 539.78 194.1 540.01 194.07 540.25 194.04 540.48 194 540.71 193.97 540.96 193.94 541.19 193.9 541.44 193.86 541.68 193.83 541.93 193.79 542.18 193.74 542.43 193.71 542.69 193.66 542.94 193.62 543.21 193.57 543.46 193.52 543.73 193.47 544 193.41 544.26 193.36 544.53 193.3 544.8 193.24 545.07 193.18 545.34 193.12 545.6 193.05 545.86 192.98 546.11 192.91 546.37 192.84 546.61 192.76 546.85 192.69 547.08 192.62 547.3 192.54 547.53 192.47 547.75 192.4 547.95 192.33 548.15 192.26 548.35 192.18 548.54 192.11 548.73 192.04 548.92 191.98 549.1 191.91 549.28 191.85 549.46 191.78 549.64 191.72 549.82 191.66 550 191.59 550.18 191.53 550.36 191.47 550.55 191.4 550.72 191.34 550.9 191.26 551.08 191.2 551.26 191.14 551.44 191.07 551.61 191.01 551.79 190.94 551.97 190.88 552.16 190.81 552.34 190.74 552.52 190.68 552.7 190.61 552.89 190.54 553.07 190.45 553.26 190.38 553.44 190.3 553.63 190.22 553.82 190.14 554.01 190.05 554.2 189.96 554.39 189.86 554.58 189.76 554.77 189.65 554.96 189.55 555.15 189.43 555.34 189.31 555.53 189.19 555.72 189.07 555.9 188.94 556.07 188.81 556.25 188.67 556.43 188.54 556.6 188.4 556.77 188.25 556.94 188.1 557.11 187.96 557.26 187.81 557.42 187.67 557.58 187.52 557.72 187.37 557.87 187.22 558 187.07 558.14 186.91 558.27 186.76 558.4 186.63 558.53 186.48 558.64 186.33 558.76 186.19 558.87 186.04 558.98 185.9 559.08 185.75 559.19 185.61 559.29 185.47 559.39 185.33 559.49 185.2 559.59 185.05 559.69 184.91 559.78 184.76 559.89 184.61 559.98 184.47 560.08 184.33 560.17 184.18 560.27 184.03 560.37 183.87 560.46 183.72 560.57 183.56 560.66 183.4 560.77 183.24 560.87 183.08 560.98 182.93 561.07 182.76 561.18 182.59 561.28 182.42 561.37 182.25 561.47 182.07 561.56 181.89 561.65 181.7 561.75 181.51 561.83 181.31 561.92 181.11 562 180.91 562.08 180.7 562.17 180.48 562.24 180.26 562.32 180.03 562.39 179.8 562.45 179.56 562.52 179.31 562.59 179.06 562.65 178.8 562.7 178.54 562.76 178.27 562.82 178 562.88 177.73 562.94 177.44 562.99 177.15 563.05 176.86 563.11 176.56 563.15 176.26 563.21 175.94 563.26 175.65 563.31 175.34 563.36 175.04 563.41 174.74 563.46 174.44 563.49 174.16 563.53 173.87 563.57 173.59 563.59 173.32 563.61 173.06 563.63 172.79 563.63 172.52 563.64 172.27 563.64 172 563.62 171.72 563.61 171.45 563.58 171.16 563.56 170.88 563.52 170.57 563.49 170.26 563.44 169.93 563.39 169.59 563.34 169.22 563.28 168.84 563.21 168.45 563.15 168.02 563.07 167.58 562.99 167.14 562.91 166.68 562.81 166.23 562.72 165.76 562.61 165.3 562.5 164.87 562.39 164.44 562.27 164.03 562.15 163.63 562.02 163.23 561.89 162.84 561.75 162.46 561.61 162.09 561.46 161.72 561.31 161.34 561.15 160.98 560.99 160.62 560.82 160.26 560.65 159.9 560.48 159.55 560.29 159.22 560.11 158.87 559.93 158.53 559.75 158.2 559.57 157.87 559.38 157.56 559.2 157.25 559.02 156.96 558.85 156.68 558.67 156.41 558.5 156.15 558.33 155.89 558.17 155.66 557.99 155.42 557.82 155.19 557.66 154.97 557.49 154.76 557.33 154.55 557.16 154.33 556.99 154.13 556.81 153.91 556.64 153.71 556.46 153.49 556.28 153.27 556.08 153.05 555.9 152.82 555.69 152.59 555.49 152.36 555.29 152.13 555.08 151.89 554.86 151.65 554.65 151.41 554.43 151.16 554.2 150.91 553.96 150.65 553.71 150.4 553.46 150.13 553.19 149.86 552.92 149.6 552.64 149.33 552.36 149.06 552.06 148.79 551.76 148.52 551.45 148.25 551.14 147.99 550.81 147.72 550.49 147.46 550.15 147.2 549.82 146.94 549.5 146.68 549.17 146.44 548.85 146.19 548.53 145.96 548.23 145.74 547.93 145.52 547.66 145.31 547.38 145.12 547.11 144.92 546.86 144.73 546.61 144.55 546.38 144.37 546.14 144.2 545.91 144.03 545.68 143.86 545.46 143.7 545.22 143.53 544.99 143.35 544.76 143.17 544.51 142.99 544.25 142.81 543.98 142.62 543.71 142.42 543.43 142.23 543.13 142.03 542.83 141.82 542.52 141.62 542.2 141.42 541.88 141.22 541.55 141.02 541.22 140.84 540.9 140.65 540.58 140.47 540.26 140.3 539.94 140.13 539.65 139.98 539.35 139.83 539.07 139.69 538.81 139.57 538.55 139.45 538.31 139.35 538.08 139.25 537.86 139.16 537.65 139.08 537.45 139.01 537.26 138.94 537.09 138.88 536.92 138.83 536.76 138.77 536.62 138.73 536.48 138.69 536.35 138.66 536.21 138.63 536.09 138.59 535.96 138.56 535.84 138.52 535.7 138.49 535.58 138.45 535.44 138.42 535.3 138.39 535.15 138.34 534.99 138.31 534.83 138.27 534.66 138.23 534.48 138.19 534.29 138.14 534.09 138.1 533.9 138.06 533.68 138.02 533.45 137.98 533.21 137.95 532.97 137.91 532.73 137.88 532.48 137.85 532.22 137.82 531.96 137.81 531.71 137.79 531.45 137.78 531.18 137.77 530.93 137.78 530.66 137.78 530.4 137.8 530.14 137.8 529.88 137.81 529.63 137.83 529.36 137.84 529.11 137.85 528.85 137.87 528.6 137.89 528.35 137.91 528.09 137.92 527.85 137.95 527.59 137.97 527.34 137.99 527.08 138.02 526.83 138.05 526.57 138.09 526.3 138.12 526.02 138.17 525.75 138.21 525.47 138.27 525.17 138.32 524.89 138.39 524.58 138.46 524.28 138.52 523.97 138.59 523.65 138.66 523.34 138.73 523.01 138.8 522.68 138.85 522.34 138.91 522 138.96 521.64 139 521.27 139.03 520.9 139.05 520.52 139.06 520.12 139.06 519.72 139.06 519.3 139.04 518.87 139.03 518.41 139.01 517.95 138.98 517.47 138.95 516.96 138.91 516.44 138.87 515.9 138.84 515.36 138.79 514.8 138.76 514.24 138.74 513.68 138.73 513.14 138.72 512.6 138.73 512.08 138.76 511.58 138.78 511.1 138.81 510.65 138.86 510.23 138.9 509.83 138.95 509.45 139.01 509.11 139.05 508.8 139.11 508.52 139.16 508.27 139.2 508.05 139.25 507.86 139.29 507.7 139.32 507.54 139.36 507.42 139.4 507.32 139.42 507.23 139.45 507.16 139.47 507.09 139.49 507.04 139.51 506.99 139.53 506.95 139.54 506.92 139.55 506.88 139.56 506.85 139.57 506.83 139.58 506.8 139.59 506.78 139.59 506.76 139.6 506.74 139.6 506.72 139.61 506.7 139.61 506.68 139.62 506.66 139.62 506.65 139.62 506.63 139.63 506.62 139.63 506.61 139.63 506.6 139.63 506.59 139.63 506.58 139.63 506.56 142.26 501.08 142.37 500.88 142.5 500.68 142.62 500.47 142.75 500.25 142.88 500.03 143.01 499.8 143.16 499.56 143.32 499.32 143.47 499.08 143.63 498.82 143.81 498.56 143.98 498.29 144.17 498.02 144.36 497.74 144.55 497.45 144.76 497.16 144.96 496.88 145.18 496.58 145.39 496.28 145.62 495.98 145.85 495.68 146.08 495.38 146.32 495.08 146.57 494.78 146.84 494.48 147.1 494.19 147.37 493.9 147.65 493.6 147.93 493.31 148.23 493.02 148.54 492.73 148.84 492.44 149.15 492.16 149.46 491.89 149.77 491.62 150.09 491.36 150.41 491.1 150.74 490.84 151.06 490.6 151.37 490.35 151.68 490.12 151.99 489.89 152.3 489.66 152.61 489.43 152.92 489.22 153.23 489 153.53 488.8 153.82 488.59 154.11 488.39 154.41 488.2 154.7 488.01 154.99 487.82 155.28 487.64 155.56 487.47 155.86 487.3 156.14 487.13 156.44 486.96 156.74 486.81 157.03 486.65 157.33 486.49 157.62 486.34 157.93 486.19 158.22 486.04 158.53 485.89 158.83 485.75 159.13 485.61 159.43 485.47 159.72 485.33 160.01 485.2 160.29 485.07 160.57 484.95 160.86 484.84 161.14 484.73 161.41 484.62 161.67 484.52 161.94 484.42 162.2 484.32 162.47 484.23 162.73 484.15 162.99 484.06 163.25 483.99 163.51 483.92 163.77 483.85 164.03 483.78 164.29 483.71 164.55 483.65 164.8 483.59 165.06 483.55 165.32 483.5 165.58 483.45 165.83 483.41 166.09 483.38 166.34 483.36 166.59 483.33 166.84 483.32 167.1 483.3 167.34 483.3 167.6 483.3 167.86 483.3 168.13 483.31 168.4 483.32"/><path class="cls-14" d="m173.34,551.66c-.77,1.62-2.74,2.32-4.37,1.56-1.4-.65-2.86-1.47-3.82-2.71-.64-.81-.93-1.71-1.24-2.67-.55-1.7.32-3.57,2.03-4.16,1.67-.57,3.62.33,4.17,2.04.08.25.15.51.24.77.21.15.44.29.66.43.25.13.51.26.77.38,1.22.58,1.93,1.87,1.86,3.17-.02.41-.12.82-.3,1.2Z"/><path class="cls-14" d="m175.84,544.2c-.79,1.67-2.71,2.25-4.36,1.56-1.68-.69-3.49-1.81-3.81-3.74-.3-1.76.75-3.5,2.55-3.87,1.29-.27,2.68.33,3.41,1.4.21.1.43.2.66.29,1.25.52,1.92,1.87,1.86,3.16-.02.42-.12.83-.3,1.2Z"/><path class="cls-14" d="m171.21,540.4c-1.79-.1-3.19-1.67-3.1-3.45s1.67-3.19,3.45-3.09c1.79.09,3.18,1.66,3.09,3.44s-1.66,3.19-3.44,3.1Z"/><path class="cls-14" d="m173.61,532.78c-.84.17-1.7.28-2.55.21-.43-.04-.85-.13-1.28-.19.14.02.27.03.42.05-.89-.11-1.68-.43-2.28-1.1-.57-.64-.87-1.5-.82-2.35.1-1.7,1.68-3.31,3.45-3.09.31.03.62.09.93.14.07,0,.13,0,.2.01.1,0,.2-.02.3-.03.11-.02.22-.04.33-.06,1.75-.35,3.51.8,3.87,2.55.05.27.07.53.06.79-.08,1.45-1.13,2.77-2.62,3.07Z"/><path class="cls-14" d="m172.75,522.59c-1.63.34-3.19.19-4.7-.45-1.64-.7-2.29-2.8-1.56-4.37.78-1.64,2.68-2.24,4.31-1.58,0,0,0,0,0,0-.08-.03-.16-.06-.24-.1.12.05.25.09.37.12.04,0,.08.01.12.02,0,0,0,0,.01,0,.12-.03.24-.05.37-.08,1.74-.37,3.51.82,3.87,2.56.06.27.07.54.06.81-.08,1.45-1.14,2.75-2.61,3.06Z"/><path class="cls-5" d="m190.97,538.35c.17-5.06,1.11-10.09.71-15.16-1.15-7.09-3.74-14-6.32-20.69-2.95-6.61-5.66-15.56-13.58-17.1-3.95-.54-8.06-.61-11.52,1.51-2.14,1.44-3.63,3.61-5.55,5.29-3.55,2.62-7.5,4.61-9.78,8.61-2.39,4.25-1.33,9.57-2.69,14.19-4.71,15.82,2.55,32,15.94,40.94,6.27,2.26,11.77,7.77,18.88,5.54,3.82-.69,6.87-3.38,8.36-6.93,1.17-2.25,2.15-5.33,4.89-6,.46-3.37.42-6.81.66-10.21Zm8.34-6.5c-.4,4.37-.6,8.74-.83,13.12-.14,2.88.09,7.21-3.47,7.95-.09,1.34-1.05,2.25-1.72,3.31-3.51,10.4-15.36,15.78-25.71,12.86-4.47-1.93-12.59-5.72-16.44-8.29-14.85-12.44-21.79-29.52-16.36-48.58.95-4.34.48-8.97,2.17-13.12,1.23-2.82,3.29-5.26,5.36-7.5,1.93-2.28,4.77-3.38,7.08-5.17,2.75-2.75,5.3-5.83,8.97-7.41,11.07-4.74,24.81-.45,29.83,10.85,6.15,13,12.8,27.3,11.12,41.99Z"/><path class="cls-5" d="m232.96,561.82c-.27,4.16-5,4.47-8.2,3.68-9.67-1.18-18.79-6.05-24.9-13.69-3.1-3.71-6.39-8.09-6.5-13.11.21-3.42,5.06-4.69,7.02-1.95,3.3,10.94,13.3,19.28,24.64,20.82.32-11.99-8.08-15.96-16.43-22.24-2.93-1.74-6.13-3.14-9.47-3.88-2.31-.17-4.29-2.02-3.99-4.45,2.51-11.25,27.98,8.5,31.84,12.84,5.35,6.39,6.07,14.19,5.99,21.98Z"/><path class="cls-5" d="m215.61,589.52c.14-4.32-.31-8.77-2.34-12.65-3.84-7.61-7.73-15.45-15.13-20.18-1.68,10.3,1.72,20.39,5.79,29.59,2.61,4.29,6.89,7.29,10.69,10.46.62-2.36.82-4.8.99-7.23Zm7.15,6.74c-1.15,6.35-3.6,14.22-11.07,8.08-7.41-5.48-14.79-11.4-17.19-20.48-2.66-7.02-5-14.27-4.59-21.88,0-4.03.75-7.94,1.26-11.91.14-2.55,3.19-4.18,5.44-3.16,1.04-.19,2.14.02,2.98.74,5.97,4.93,12.45,9.47,15.83,16.7,6.15,9.5,9.95,20.56,7.33,31.91Z"/><path class="cls-5" d="m230.16,510.73c-2.35,4.72-5.01,9.21-9.26,12.33-7.09,4.68-17.16,5.97-24.97,2.55-3.25-2.38-1.44-7.81,2.68-7.33,9.82,3.71,19.95-.15,24.06-10.03,0,0,0,0,0,0-7.31-.79-15.9-3.04-22.43,1.39-.54.46-.96,1.01-1.23,1.67-.92,1.93-3.56,2.51-5.35,1.52-1.89-1.01-2.53-3.49-1.52-5.35,2.87-5.92,10.05-7.93,16.14-8.33,5.79.06,11.65.58,17.34,1.7,5.1.48,6.63,5.76,4.54,9.88Z"/><path class="cls-5" d="m244.16,522.45c-7.26,8.2-17.67,14.68-29,12.35-5.09-.66-4.2-8.36.91-7.82,7.98,1.86,14.82-2.52,20.4-7.78-3.71-3.1-13.26-1.48-12.45-8.13.5-2.01,2.71-3.47,4.77-2.86,6.12,1.7,21.05,5.31,15.38,14.23Z"/><path class="cls-5" d="m146.16,550.68c-.1,2.36-2.14,3.89-4.19,4.59-4.35,1.8-8.68,3.69-13.14,5.26-5.01,2.05-33.12,5.66-32.64-2.6,1.35-8.5,10.14-13.96,17.45-17.21,4.84-2.09,28.08-9.02,26.7.99-1.31,4.73-7.41,2.15-10.76,2.92-8.5,1.09-17.34,3.95-23.29,10.35,11.47,1.13,22.17-2.01,32.35-6.82,2.01-4.31,8.44-2.16,7.52,2.52Z"/><path class="cls-5" d="m156.25,562.52c-2.93,11.6-14.42,19.03-24.55,24.08-10.02,3-19.75,4.35-14.7-9.71,1.51-5.62,5.16-10.1,8.88-14.41,4.57-6.11,10.14-12.16,17.7-14.34,5.86-1.12,6.79,7.19.98,7.93-5.88,2.45-9.77,7.74-13.58,12.59-3.05,3.4-5.83,7.12-6.79,11.69,8.37-.99,22.72-11.4,24.42-19.75,1.33-4.97,8.85-3.06,7.63,1.91Z"/><path class="cls-5" d="m164.56,572.71c-1.68,11.13-7.79,21.85-16.41,29.07-4.83,3.67-10.73,6.09-16.85,5.96-15.76,1.09-4.49-17.75.53-23.88,1.79-2.77,3.85-5.39,5.63-8.14,2.51-4.46,9.29-.7,6.87,3.83-4.11,6.9-10.32,12.7-12.65,20.31,15.73-.91,25.48-19.35,25.36-33.66-.07-2.15,1.78-3.96,3.89-3.98,5.45.23,3.8,6.83,3.64,10.49Z"/><path class="cls-5" d="m196.2,581.15c-.49,9.38-3.54,18.33-7.14,26.93-1.5,2.8-2.42,6.49-5.39,8.07-2.76,1.23-5.08-1.08-6.63-3.13-4.09-4.51-6.49-10.1-6.69-16.2-.91-9.61-.98-19.76,3.44-28.6-.12-2.31,2.18-4.15,4.38-3.88,7.39,1.95.62,9.98.25,14.6-.72,4.15-.9,8.36-.54,12.54.39,5.29.06,10.23,3.55,14.4,4.18-9.52,7.29-19.36,7.09-29.79-.14-2.14,1.81-3.96,3.88-3.98,4.79.1,4.14,5.68,3.81,9.04Z"/><path class="cls-5" d="m179.31,613.75c-2.07,4.25-5.94,7.36-9.47,10.4-5.89,4.96-9.2-2.1-10.83-7.04-4.73-13.23-2.06-28.39.74-41.82.66-2.6,1.81-5.11,3.72-7.04.32-1.96,2.41-3.32,4.31-3.1,2.15.22,3.68,2.25,3.45,4.36-.09,1.75-1.19,3.16-2.3,4.42-2.12,2.86-2.18,6.74-3.05,10.1-1.2,10.99-3.34,22,1.21,32.16,1.7-1.69,3.65-3.26,4.9-5.32.83-1.97,3.07-3.01,5.1-2.22,1.97.78,3.05,3.16,2.22,5.11Z"/><path class="cls-5" d="m226.42,489.41c-1.39,4.26-1.25,14.77-7.97,12.97-2.4-.85-3.14-4.06-1.82-5.99.62-1.94,1.14-3.94,1.58-5.94-7.01,1.21-14.11,3.39-18.77,9.12-1.23,1.55-2.45,3.2-2.9,5.16-.95,2.56-4.52,3.33-6.43,1.35-4.88-6.79,9.4-18.23,15.23-20.37,6.16-1.58,23.44-8.69,21.08,3.71Z"/><path class="cls-5" d="m145.29,491.98c-3.67,2.04-5.51-1.77-7.36-4.21-2.48-2.49-5.56-3.76-8.35-5.78-1.26,6.71,1.49,14.4,7.21,18.3,6.39-.79,6.01,8.25-.06,8.22-6.24-1.09-10.87-7.27-13.22-12.81-2.11-5.71-3.11-12.24-.79-18.04.98-2.52,2.24-5.8,5.4-5.89,2.89.03,4.33,3.24,6.83,4.37,4.33,2.57,16.97,10.34,10.34,15.84Z"/><path class="cls-5" d="m136.79,529.7c-2.81,3.02-7.39,3.18-11.26,3.44-8.23.54-16.54-1.58-23.32-6.34-6.16-4.66-17.33-14.56-2.43-15.83,11.61-1.22,23.77-5.02,35.3-1.71,4.74,1.96,1.91,9.16-2.88,7.31-9.24-2.12-18.78.71-28.02,1.71,6.82,6.26,19.32,9.61,27.69,5.29,4.03-3.02,8.77,2.9,4.92,6.14Z"/><path class="cls-5" d="m113.48,544.3c-1.78,7.08-10.75,1.72-13.28-2.2-3.36-4.19-3.02-9.86-.68-14.45.81-1.98,3.09-3.01,5.1-2.22,4.05,1.78,1.98,5.54.97,8.58-.49,2.66,2.01,5.27,4.44,5.94,2.15.11,3.68,2.33,3.46,4.35Z"/><path class="cls-5" d="m157.94,478.54s0,0,0,0c-2.9-10.35-5.06-21.52-11.98-30.02-4.51,9.82,2.33,23.24,10.24,29.54.62,0,1.21.19,1.73.49Zm4.84,2.74c-1.02.28-2.1.11-2.99-.39.77,2.47-1.21,4.93-3.72,5.01-5.2-.05-8.61-5.44-11.85-8.9-5.97-9.32-10.9-22.32-4.93-32.73,5.83-12.56,9.25-6.13,14.71,2,5.27,6.69,7.1,15.13,9.66,23.07.58,3.82,4.48,10.02-.88,11.93Z"/><path class="cls-5" d="m186.99,429.66c-1.57,11.71-3.2,22.82-3.43,34.59-.12,5.62-1.71,11.24-.83,16.8-.22,3.87-5.6,5.36-7.56,1.91-1.7-5.23.13-11.07.36-16.46.63-11.94,1.24-23.17,3.41-34.85-14.67.54-16.13,18.16-16.62,29.52-1.03,4.34,5.62,9.74-.08,12.61-4.95,1.76-6.49-4.88-7.55-8.39-.64-11.39.77-24.05,7.43-33.66,3.47-6.03,25.81-13.9,24.87-2.07Z"/><path class="cls-5" d="m171.01,481.1c-2.86,3.61-7.14.14-8.67-2.87-2.49-4.31-6.33-8.81-5.62-14.06.2-3.41,5.08-4.7,7.01-1.94,1.33,1.56.28,3.69,1.45,5.32,1.27,2.43,2.53,4.59,3.78,6.48.4.54.74,1.16,1.27,1.57,1.77,1.21,2.02,3.84.78,5.5Z"/><path class="cls-5" d="m223.59,470.17c-.59,5.9-2.58,11.63-4.89,17.06-.93,1.93-3.56,2.52-5.35,1.52-1.95-1.09-2.45-3.42-1.52-5.35,1.93-4.83,3.72-9.88,4.02-15.12-5.07,1.22-10.34,3.36-14.09,7.08-1.66,2.03-3.51,5.11-4.87,7.04-1.63,2.67-2.95,5.64-3.36,8.75.31,1.3-.16,2.78-1.11,3.72-1.46,1.43-4.12,1.64-5.56.03-4.11-7.26,3.73-16.89,7.56-22.94,4.78-6.62,19.56-14.39,27.45-10.74,2.67,2.09,1.78,5.96,1.71,8.92Z"/><path class="cls-5" d="m209.55,443.14c-.38,4.43-2.21,8.49-4.42,12.29-1.98,5.96-4.15,11.61-4.95,17.8-.11,2.15-2.33,3.69-4.36,3.45-6.69-1.52-1.93-10.68-.91-14.98,1.11-6.61,5.24-12.02,6.69-18.43-4.84-.89-9.24.96-12.16,4.89-1.9,2.57-4.08,6.01-7.63,3.57-4.85-4.59,3.57-10.58,6.85-13.49,4.71-3.7,11.02-3.06,16.62-2.52,3.73.22,5.1,4.22,4.27,7.42Z"/><path class="cls-5" d="m143.21,473.01c-1.95,1.52-2.46,4.09-2.38,6.45,3.15,5.18-5.3,8.76-7.39,3.38-1.36-5.29.02-11.65,4.19-15.36,3.69-3.57,9.17,1.87,5.59,5.54Z"/><path class="cls-5" d="m124.78,501.12c-1.89.4-3.87,1.16-5.43,2.19-.85.65-.79,1.81-.67,2.77,3,2.17,1.36,7.24-2.36,7.12-3.72.61-5.34-3.35-5.48-6.43-.6-3.96,1.07-8.09,4.52-10.23,3.39-1.92,10.2-5.69,12.16-.26.55,2-.65,4.37-2.74,4.84Z"/><path class="cls-5" d="m673.67,612.48c-14.26.4-27.88,2.92-42.1,2.21-12.12-.19-24.15,1.95-36.28,1.46-27.57-.93-55.15-2.51-82.6-5.27-54.75-5.37-109.74-11.54-163.28-24.41-22.78-5.95-42.89-18.87-64.8-26.99-9.84-4.31-18.42-9.93-28.75-11.73-10.73-2.03-22.28.68-32.71-2.76.15.06.29.14.43.2.09.02.18.04.27.07-4.34-1.3-3.23-8.2,1.59-7.64,10.99,2.8,22.76.12,33.84,2.83,8.27,1.76,16.08,5.75,23.48,9.6,16.28,6.59,31.95,14.31,47.98,21.34,19.78,9.04,41.69,12.58,63.02,16.08,23.87,4.65,47.33,7.51,71.35,10.51,36.02,4.1,72.09,7.84,108.32,9.39,14.19.86,28.6,1.52,42.75.12,9.96-1.08,19.96-.31,29.93-.79,9.14-.74,18.26-1.84,27.45-2.09,4.74-.05,5.62,7.58.1,7.87Z"/><path class="cls-5" d="m596.63,599.07c-.22,2.12-2.25,3.69-4.35,3.44-7.22-.37-14.44-.69-21.63-1.38-21.52-3.08-43.32-2.91-64.95-4.79-29.34-1.9-58.47-5.81-87.44-10.8-19.87-3.79-39.33-6.3-58.1-13.67-25.62-6.06-50.62-16.3-73.65-28.68-7.25-3.38-14.89-6.27-22.64-8.2-10.23-1.26-20.58-1.14-30.86-1.22-3.14.19-6.12-2.33-5.53-5.64.22-3.26,4.75-4.66,6.83-2.17,11.7.23,23.79-.61,35.2,2.37,23.64,7.17,44.78,21.75,68.18,29.1,12.71,3.64,25.69,6.87,38.06,11.47,20.54,5.35,41.3,8.43,62.01,11.78,39.58,6.95,79.79,8.41,119.81,10.96,10.84,1.47,21.73,2.49,32.66,2.9l2.95.15c2.14.11,3.68,2.33,3.44,4.36Z"/><path class="cls-5" d="m746.72,604.28c0,5.26-3.23,6.39-7.88,6.45-9.09,1.24-18.18,2.41-27.36,2.74-6.47-.17-42.8,3.02-41.46-6.12.24-2.13,2.23-3.68,4.36-3.44,21.23,4.33,43.38,1.51,64.56-1.09,0-.02,0-.05,0-.07.07-1.75.09-3.5.03-5.25-9.53,1.56-19.2,1.03-28.81,1.11-7.57.36-15.13.77-22.71.6-14.07.11-27.4,2.71-41.23,1.89-14.78-1.64-31.88,1.65-44.83-6.96-3.11-2.22-4.36-5.78-6.2-8.94-2.32-3.31-5.34-6.05-8.18-8.9-14.25-.8-16.38-3.92-19.83-17.14-4.08,2.56-10.33,1.9-12.15-3.08-1.53-3.74,1.91-10.32-3.44-11.78-.15,3.9-3.74,7.63-7.53,4.95-2.06-1.34-2.84-3.82-4.46-5.55-1.29-.94-2.34-1.32-3.57-1.87,5.25,3.26,1.93,9.19-3.57,8.86,3.77.94,8.01,1.49,10.94,4.26,4.13,4.39.19,9.63-5.08,9.97.7.31,1.39.65,2.06,1.04.99.58,1.77,1.33,2.56,2.11,4.93-1.32,13.57-5.96,15.81,1.38.86,2.31,3.04,3.73,4.2,5.86,1.04,1.72,1.25,3.75,2.16,5.51,6.63.79,14.48-3.45,19.96,2.15,3.54,3.23,6.01,7.44,8.45,11.52,1.97,1.6,1.83,5-.16,6.53-1.75,1.38-4.13.89-5.52-.71-2.57-3.47-6.19-12.94-11.15-12.43-5,.25-10.47,2.14-15.25-.1-2.94-1.5-4.12-4.65-4.91-7.63-1.04-2.52-3.62-4.15-4.61-6.74-4.23,1.07-9.16,4.38-13.3,1.38-3.49-4.18-10.59-3.94-13.01-9.31-1.68-3.57,1.64-6.77,5.08-7.13-4.22-.98-9.26-2.32-11.04-6.75-2.08-4.05.5-8.52,5.1-8.51-5.37-4.18-8-12.1,1.45-12.08,6.76.73,13.99,3.09,19.27,7.46,3.15-3.42,8.62-2.33,12.07.04,4.69,3.04,5.44,9.06,4.88,14.18,2.26-.74,3.64-3.2,5.97-3.78,4.57-1.1,5.94,4.05,6.2,7.56.61,3.36,2.24,6.38,3.08,9.66,1.26,1.19,3.14,1.44,4.77,1.82,3.25.74,7.11-.17,9.68,2.39,18.17,16.2,5.89,20.74,35.47,22.16,13.4.49,27.2,1.47,40.5.02,21.01-1.82,42.13-1.33,63.18-2.04,15.65-2.25,15.98-2.91,15.43,13.81Z"/><path class="cls-5" d="m392.48,595.89c-3.34,1.84-7.41.34-11.02,1.26-14.79,5.08-10.01,22.59-35.32,24.42-9.19.48-18.47-.19-27.61-.14-3.88-1.61-2.81-6.7.88-7.81,1.25-.81,2.28-2.18,3.05-3.36,4.94-9.54,8.67-15.08,20.16-16.14,7.45-.54,14.28-3.12,20.42-7.23,4.11-3.07,8.86,3.06,4.8,6.22-7.8,5.56-16.81,8.22-26.24,9.18-6.69.24-9.13,6.26-11.96,11.31,9.21.21,19.4,1.65,27.65-3.39,12.18-11.55,11.37-22.54,32.41-21.31-.52.02-1.03.16-1.45.43,4.13-2.26,8.01,3.73,4.23,6.56Z"/></g></g></svg>