<svg xmlns="http://www.w3.org/2000/svg" viewBox="0 0 1000 1000"><defs><style>.cls-1{opacity:0.2;}.cls-2{fill:#4d3e31;}.cls-3{fill:#271308;}.cls-4{fill:#654f3d;}.cls-5{fill:#462a17;}.cls-6{fill:#b8b2ad;}.cls-7{fill:#231815;}</style></defs><g id="レイヤー_1" data-name="レイヤー 1"><path class="cls-1" d="M686.82,877.08c0,4.52-1,8.29-5.8,9.67A28.4,28.4,0,0,1,670.53,888a79,79,0,0,1-12.91-1.65c-4.44-.85-9-1.28-13.37-2.28a43.22,43.22,0,0,1-7.53-2.82c-4.86-2.32-9.43-5.27-14.35-7.46a36.61,36.61,0,0,0-8.51-3.15c-5-.83-10.13,0-15.15.12a213.84,213.84,0,0,0-27.08,2.77c-8.83,1.5-17.8,2.79-26.6,4.48-14.69,3-29.46,6.15-44.4,7.61a197.71,197.71,0,0,1-36.65.88c-6.85-.35-13.76-1.42-20.6-1.8-15.42-.91-30.31,4.11-45.17,7.48-6.66,1.61-13.57,1.65-20.39,1.65a193.36,193.36,0,0,1-24.3-1.14c-9.67-1.59-19.44-3.09-28.85-5.87a72,72,0,0,1-11.46-4.43,41.44,41.44,0,0,1-7.57-5.45c-5.43-4.74-9.43-11.2-9.64-18.55a84.81,84.81,0,0,1,1.42-12.6c1.58-9.94,6.77-19.56,15-25.52a31.57,31.57,0,0,1,8.28-3.46c3.75-1.12,7.66-2.1,11.47-3,7.14-1.73,14.5-2.86,21.76-4a193.92,193.92,0,0,1,25.33-2.57c17.86-.47,35.74.84,53.48,2.79,12,1,23.87,3,35.79,4.35a214,214,0,0,0,25.95.77,457.41,457.41,0,0,0,47.94-3c16.37-1.69,32.83-3.06,49.26-4.12,9.84-.55,19.76-.44,29.61-.7,9.16-.3,18.37-.72,27.54-.26a151,151,0,0,1,35.17,6l-11.34,13.61-1,.4a78.22,78.22,0,0,0-18.85,10.74c-2.94,2.39-9.4,6.64-7.68,11.06,2.39,3.19,11.24,4.3,15.19,5.57,8.16,2.28,17.07,5.13,22.41,12.12C685,869.69,686.86,873.23,686.82,877.08Z"/></g><g id="レイヤー_8" data-name="レイヤー 8"><path class="cls-2" d="M704.31,270.63c0,8.33-.64,16.66-.87,25-.24,10.21-.06,20.42.12,30.62,0,4.17,0,8.35-.3,12.5-.58,6.07-1.34,12.14-1.38,18.25,0,4.48.39,9,.6,13.45.23,5.32.41,10.67.21,16-.37,5.56-.93,11.15-1.84,16.65-.45,2.61-1,5.33-1.57,7.92-.1.52-.25,1.19-.33,1.64s.17.78.25,1.15c1.72,8.35,1.77,16.84,1.74,25.33,0,3.92-.11,7.87-.12,11.79,0,3.37,0,6.78-.29,10.14-.35,4.28-1.15,8.53-1.64,12.8a87,87,0,0,0-.59,14.7c.32,4.81.82,9.62,1.45,14.41.72,7.39,1.46,14.79,1.48,22.23.07,3.36.18,6.74.16,10.1-.08,3.67-.32,7.35-.41,11-.27,7.75-.31,15.51-.31,23.25,0,6-.37,12-.42,18,0,11.11-.16,22.24-.24,33.36,0,6.27-.55,12.54-.62,18.81-.14,6.56.05,13.14.26,19.69.17,5,.2,10,.22,14.91,0,2.49-.11,5,.13,7.52.53,6.62,1.61,13.18,2.54,19.75a94.61,94.61,0,0,1,1.63,10,47.36,47.36,0,0,1-.64,9.21c-.58,3.47-1.74,6.82-2.29,10.3-.76,4.22-1.3,9.09-5,11.87-2.09,1.34-4.76.85-7.12,1-4.61.06-9.23,0-13.83-.21-3.88-.16-7.75-.65-11.61-1-3.65-.3-7.32-.46-11-.48-10,0-20.08.21-30.11.35-3.3.07-6.61.28-9.91.42-2.78.12-5.58.11-8.35.28A58.22,58.22,0,0,0,594,745a49.82,49.82,0,0,1-8.08.89c-5.14.2-10.29.76-15.44.5-5-.08-9.84-1.26-14.79-1.19-7,0-14-.38-21,.21-4.74.31-9.37,1.46-14,2.22-4.46.8-9,.63-13.54.75a126,126,0,0,0-14.52,1.06c-5.64.58-11.32.94-17,1.26a85.28,85.28,0,0,1-9.85.28A123.63,123.63,0,0,1,446,747.53c-5.37,1.88-11.06,1.85-16.65,1.23a94,94,0,0,0-11.86-.43c-5.2.11-10.41.37-15.61.14-3.76-.11-7.5-.62-11.26-.37-4,.14-7.94.7-11.92.75-4.61,0-9.21-.38-13.81-.57-6.06-.46-15.7-.1-19.65-5.38-1-1.59-1-3.6-1.05-5.43-.1-10.17.53-20.34.78-30.51.26-6.23.43-12.49.66-18.72.25-5.61.68-11.23.59-16.85,0-7.25,0-14.51.08-21.76.14-6.6.39-13.2.38-19.79,0-8,0-15.94-.27-23.91-.09-3.43-.39-6.86-.56-10.28-.12-3.18,0-6.38,0-9.56,0-1.14.07-2.3.14-3.43a54.26,54.26,0,0,1-.61-7.08c0-6.94-.18-13.9-.27-20.83,0-11.3,0-22.61-.07-33.91-.19-19.09-.23-38.2-.92-57.29-.29-6.65-1.09-13.28-1.13-19.94-.07-7.83,0-15.68.72-23.48-.17-8.66-.95-17.3-1.7-25.92a85.26,85.26,0,0,1-.18-16.29c-.62-5.66-1.76-11.31-2.37-17-.27-2.63-.18-5.3-.21-7.94,0-5.22.11-10.46.25-15.68.1-4.87,0-9.76.3-14.63.3-5.6.93-11.19,1.39-16.78.57-8.43.9-17-.51-25.36-.87-5.36-2-10.7-2.86-16.06a50.72,50.72,0,0,1-.73-6.73c-.05-1.87.1-3.75.22-5.61.4-4.49.37-9,.6-13.5.4-6.51,1.09-13,1.58-19.51s2.11-12.77,3.08-19.17c.5-3.45.94-6.93,1.11-10.42.1-2.93,0-5.87-.16-8.79a37,37,0,0,1,.4-9.91,32.47,32.47,0,0,1,1.42-3.94c.79-1.85,1.48-3.88,3-5.29a11.62,11.62,0,0,1,2.52-1.55c2.63-1.16,5.32-2.17,8-3.16a60.68,60.68,0,0,1,8.84-2.55c4.71-.84,9.53-.48,14.28-.2,6,.42,12,1.3,18,1.66,6.47.24,13,0,19.47-.12,10.15-.36,20.44.05,30.46-1.92,7.6-1.51,15.39-1.53,23.11-1.28,8.47.2,17,.55,25.43,1,7.88.56,15.8.07,23.67-.4,4.87-.27,9.77-.76,14.65-.89a156.18,156.18,0,0,1,17.57.65,101.3,101.3,0,0,1,15.49,3.16c5.86,1.43,11.95,1.13,17.93,1.13a289.1,289.1,0,0,0,33.79-2.05c6.35-.67,12.65-1.89,19-2.89a68.79,68.79,0,0,1,17.73-.27c1.18.2,2.53.36,3.7.64,1.56-.4,3.3-.85,4.89-1.17,4.5-.8,9.16-1.84,13.72-1.05a14.42,14.42,0,0,1,4.53,1.78c1.91,1.3,3.66,2.83,5.59,4.11a30,30,0,0,0,4.88,2.81c1.15.53,2.43.75,3.56,1.31a7.33,7.33,0,0,1,2.87,3.74,17.58,17.58,0,0,1,1.23,4.43,57.91,57.91,0,0,1-.08,14.35c-.3,3.48-.59,7-1.08,10.43-.72,5-1.51,9.94-1.93,15a107.68,107.68,0,0,0-.33,14.26,128.4,128.4,0,0,0,.45,13.16,52.5,52.5,0,0,0,1.26,6.33c.62,2.64,1.15,5.33,1.59,8A129.71,129.71,0,0,1,704.31,270.63Z"/></g><g id="レイヤー_7" data-name="レイヤー 7"><path class="cls-3" d="M454.8,184.26c.27.89-3.17,1.52-3.82,1.73a84.21,84.21,0,0,1-10.23,1.8c-12.05,1.61-24.09-3.41-36.12-1.17-4.68,1.08-5.3,2.82-7.1,6.84a8,8,0,0,1-6.18,4.3c-4.61.9-9.34.32-13.9-.57-4.74-.7-9.42-1.82-14.12-2.77a68.56,68.56,0,0,0-8.08-.87c-1-.06-2,0-3-.1a32.41,32.41,0,0,1-3.22-.7l-2.53-.61a5,5,0,0,1-1.88-.69,7.84,7.84,0,0,1-2.31-6.6,4.88,4.88,0,0,1,3-2.85c.77-.41,11.39-2.23,12.51-2.53a40.73,40.73,0,0,0,15,.18c2.57-.44,5.21-1,7.78-1.43,1.56-.33,3.53-.39,4.43-1.93.36-.5.57-1.1.89-1.61a5,5,0,0,1,3.2-1.83,18.27,18.27,0,0,1,9.93.89c2.7,1.13,5,3,7.4,4.66,4.55,3.43,10.2,4.86,15.8,5.34,8.39.75,16.86.4,25.27.36,1.59,0,3.23-.09,4.82-.13.52,0,1.1,0,1.62,0C454.27,184,454.62,184,454.8,184.26Z"/><path class="cls-3" d="M377.22,744.6c-.2,1.61-2.76,15.89-2.34,16.95.06,3.63.19,7.3.32,10.92a219.25,219.25,0,0,1-.85,23.9c-.32,5.35-.17,10.73-.38,16.08-.19,6.43-.65,12.86-.56,19.28a112.51,112.51,0,0,0,.63,11.32c.38,3.28.95,6.54,1.14,9.84.27,3.87.3,7.77.47,11.65.15,3.46.42,6.94.23,10.41-.24,4.77-.95,9.74-3.47,13.89a8.29,8.29,0,0,1-2.68,2.84,14.08,14.08,0,0,1-2.43.87,21.85,21.85,0,0,1-13.91-1.11c-2.81-1.31-3.55-2.79-3.39-5.84a70.31,70.31,0,0,0-1-12.11c-.41-3.25-.66-6.54-.78-9.82-.22-12.69-.32-25.4-.13-38.09.05-5.41.41-10.83.54-16.23,0-8.93.11-17.88-.24-26.8-.24-6-1.11-12-1.53-18.06a80.87,80.87,0,0,1,.34-8.67,29.4,29.4,0,0,1,1.81-8.55c.59-1.46,1.08-3.21,2.42-4.16a4.77,4.77,0,0,1,2.57-.26l3.89.23C364.37,743.43,370.79,744.14,377.22,744.6Z"/><path class="cls-3" d="M700,839.25c0,8.13-.35,16.28-.53,24.41-.26,6.91.41,14.51-3.47,20.59a16.9,16.9,0,0,1-2.6,3.13,5.31,5.31,0,0,1-2.52,1.5,13.81,13.81,0,0,1-10.7-2.88,14.81,14.81,0,0,1-4-4.15,13.4,13.4,0,0,1-2.17-6.34c-.06-3.8.3-7.61.39-11.41.09-5.82.47-11.66.33-17.48-.11-3.66-.31-7.32-.55-11-.2-3-.56-6-.6-9,0-5,.48-10,.54-15,.05-5.46-.3-10.93-.56-16.38-.22-6.57,0-13.2-1-19.72-.63-3.42-1.59-6.81-1.47-10.32a16.83,16.83,0,0,1,.41-3.75c.12-.52.28-1.19.45-1.7,0-.13-.15-.79-.17-.91-.85-4.57-2.39-10.3,1.21-14.07a9.55,9.55,0,0,1,12.75-.52l8.87-3.5c3.74,2.24,3.18,6,3,9.75-.23,3.92-.6,7.86-.62,11.79.06,5.81.41,11.62.53,17.43.1,4.84.51,9.67.7,14.5.15,5.58.08,11.19.35,16.78C699,820.43,700.07,829.82,700,839.25Z"/><path class="cls-3" d="M703.53,717.71c0,4.3-.85,8.93-3.6,12.36a11,11,0,0,1-5.12,2.91,14.74,14.74,0,0,1-3.45.33c-3.79-.2-9.54-3-12.66-5.23a19.91,19.91,0,0,0-4-2.31c-2.51-.87-5.25-.76-7.87-.8-7.45-.05-15.16,1.47-22.45-.68a13.58,13.58,0,0,1-4-1.89c-.91-.63-1.67-1.48-2.55-2.14-1.29-.91-3-.91-4.47-1.1-3.05-.29-6.18-.37-9.25-.36-10.2,0-20.34,1.68-30.42,3-5.12.69-10.44.95-15.58,1.48-15.36,1.73-30.73,5-46.26,3.88-5.91-.31-11.84-1.09-17.73-1.6-6.4-.53-12.93-.64-19.34-1-7.34-.41-14.79-.82-22.1-1.6-5-.58-10.23-1.22-15-3.12-2.2-.81-7.29-3.84-3.17-5.69,8.82-3.07,17.79-6.11,27.05-7.48,6.51-.79,13.12-.18,19.65-.21,1.82-.13,23.23.76,20.67-3-1-.87-2.4-1-3.62-1.41-2.46-.66-5-1.16-7.55-1.58-7.91-1.26-16-2.17-24-2.81-6.83-.53-13.85-1-20.61-2.09-1.8-.3-3.91-.69-5.68-1.15-.83-.3-2.22-.43-2.62-1.33.1-.54.79-.71,1.22-.89,1-.32,2.08-.59,3.08-.87,3.39-.91,6.89-1.87,10.3-2.7,13.41-3.6,27.38-2.39,41.1-2.75,9.87-.12,22.95-2.3,32.93-2.56,14.43.1,28.88-.25,43.31-.51,13-.27,26.06-1.12,39.08-1.39,7.8-.06,15.62.29,23.42.39a214.26,214.26,0,0,0,28.65-1.5c2.66-.29,5.39-.62,8.06-.83s5.73-.61,7.87,1.18c3.13,3.21,4,12.56,4.47,17,.35,3.76.69,7.56,1.19,11.31A51.27,51.27,0,0,1,703.53,717.71Z"/><path class="cls-3" d="M596.7,665.22c.16,2.54-1.52,3.07-3.7,3.25l-6.06.71c-8.4,1-16.94,2.07-25.4,1.12-2.15-.23-4.32-.7-6.49-.73a76.06,76.06,0,0,0-10.11.76c-8.16,1.06-16.3,2.66-24.51,3.26a160.65,160.65,0,0,1-24.13-.29c-5.19-.46-10.37-1.38-15.59-1.49a125.47,125.47,0,0,0-14,.53c-3.62.37-7.26,1-10.85,1.6a122.5,122.5,0,0,1-15.42,1.49c-4,.16-8.14.1-12-1.19-1.76-.67-4.55-1.63-4.67-3.81a3.53,3.53,0,0,1,1.08-1.94,14.89,14.89,0,0,0,1.47-1.79,23.58,23.58,0,0,0,3.25-7.21,14.72,14.72,0,0,0,.05-5.69c-.22-1.85-.48-3.72-.64-5.57-.62-6.25,1-12.52,3.25-18.3l10.8,10.67.38.17c1.05.46,2.16.85,3.24,1.24,2.27.78,4.47,1.79,6.66,2.77,4.28,1.92,9,2.75,13.53,3.7,6,1.3,12.19,1.2,18.3,1.37,9.71.36,19.42-.77,29.09-1.42,4.88-.33,9.82-1,14.71-.87a30.22,30.22,0,0,1,8,1.4c2,.65,4,1.44,6.08,1.93a58.31,58.31,0,0,0,14.26,1.26c7.17-.09,14.47-.65,21.56.71S595.35,657,596.7,665.22Z"/><path class="cls-3" d="M393.58,642.38c-1.69,3.42-3.31,6.91-4.83,10.41A47.93,47.93,0,0,1,385.3,660c-2.08,3.29-5.49,5.41-9,6.91-2.47,1.11-5,2.18-7.55,3.09a81.64,81.64,0,0,0-14.21,6.4c-4.47,3.06-6.91-8.26-7.59-11.11A107.26,107.26,0,0,1,345.34,654c-.1-1.16-.17-2.35-.21-3.51a8.14,8.14,0,0,1,.18-2.87c3.72-11.44,24.57-8.75,34.16-10.76Z"/><path class="cls-3" d="M398.47,620.94c.19,2.2-2.41,3-4.21,2.79-1.82-.08-3.65-.25-5.47-.24a55.63,55.63,0,0,0-7.71,1c-4.38.8-8.78,1.87-13.11,2.93-3.88.89-7.89,2-11.9,1.75-1.42-.15-3.87-.44-3.9-2.28a8.73,8.73,0,0,1,1.15-2.86c5.31-8.8,4.16-12.93-.08-21.75-2.15-4.71-4.36-9.69-4.28-15,.1-1.43.36-3.2,1.61-4.09a8.33,8.33,0,0,1,1.76-.54c4.72-1.19,9.32-2.88,14.06-4a67.61,67.61,0,0,1,19-1.69l.87,14.78c-2.65,2.23-5.48,4.35-7.61,7.12-1.45,2-3.16,4.6-2.24,7.14,1.93,3.59,9.53,6.15,13.15,8.19C392,615.61,398,618.1,398.47,620.94Z"/><path class="cls-3" d="M590.58,601.36c.2,3-13.74,2.34-16,2.14-14.26-1.27-30.1-1.7-44.23-3.09-11.85-1-23.79-.6-35.65-.23-9.12.16-18.27.15-27.39.59-1.44.07-2.9.11-4.34.29s-3.14.7-4.69,1.08c-5.4,1.2-10.73,2.77-16.2,3.65a4.65,4.65,0,0,0-2.38.87c-1.26,1.28-1,3.39-.43,4.94.47,1.18,1.1,2.32,1.63,3.47s1.15,3-.29,3.87c-4,1.93-9.12-.36-12.84-2.14-1.86-.95-3.58-2.24-5.65-2.71-6.33-1.56-11.18,1.58-12-7.46a36.36,36.36,0,0,1,.12-6.43,52.69,52.69,0,0,0,.7-5.59,43.81,43.81,0,0,0-.8-8.23c-.42-2.59-1.22-5.16-1.29-7.8a7.34,7.34,0,0,1,2.28-5.07c1.86-1.43,4.36-1.62,6.6-2,2.92-.31,5.84-.76,8.76-1a166.38,166.38,0,0,1,18.14-.67c5.51-.19,11-.59,16.55-.64,4.37-.08,8.78-.29,13.16-.13,11.37.51,22.72,1.79,34.11,2.06,5,.17,10,.37,15,.43A77.61,77.61,0,0,1,539.6,573c3.6.62,7.21,1.42,10.74,2.34,1,.25,2,.5,2.95.77.53.2,1.3.28,1.63.78v.1c-.91.56-2.29.4-3.33.58-2.22.19-4.61.44-6.82.68-10.72,1.37-21.58,1.37-32.33,2.34-5.08.52.15,3.48,2.13,4.23,5,2,10.39,2.74,15.67,3.51,5.5.85,11,1.54,16.58,2.1,4.31.56,8.64,1.37,12.89,2.26,3.19.64,6.32,1.65,9.44,2.56,3.29.92,6.67,1.66,10,2.43,2.37.53,4.75,1.12,7.09,1.75.86.23,1.75.46,2.59.74C589.47,600.43,590.33,600.63,590.58,601.36Z"/><path class="cls-3" d="M521.23,560.09a.92.92,0,0,1-.62.85,12,12,0,0,1-1.79.55c-1.26.34-2.57.67-3.84,1a63.17,63.17,0,0,1-14.74,1.84c-5.44-.06-10.87-.62-16.3-.77a233.39,233.39,0,0,0-30.15.71c-6.06.51-12,2-17.92,3.21a17.57,17.57,0,0,1-6.42.22A9,9,0,0,1,423.7,563c-.87-1.89-.42-4,.31-5.87.6-1.66,1.28-3.34,2-4.95,1.67-3.86,4.85-8.12,2.76-12.41-2.12-4.1-6.27-6.76-8.41-10.86-1.71-3.06-.28-6.4,2-8.74,3.58-3.83,8.82-5.58,13.79-6.81L436,524.53l.21.63a27.15,27.15,0,0,0,1.31,3.1,34,34,0,0,0,9.1,10.44,67.57,67.57,0,0,0,6.81,4.06c3.29,1.92,6.38,4.21,9.73,6a41.45,41.45,0,0,0,12.1,4.17c4.4.72,9,.81,13.41,1.17,5.93.41,11.93,1,17.82,1.8C509.7,556.49,519.72,557.36,521.23,560.09Z"/><path class="cls-3" d="M383,534.51c0,5.76-1.69,8.53-5.81,12.34-1.55,1.62-4.36,3.76-4.06,6.24a5.24,5.24,0,0,0,1.91,2.32c1.58,1.38,3.4,2.48,5,3.83,1.38,1.23,3.17,3.22,2.3,5.18-.56.89-1.76.83-2.69,1-1.3.14-2.65.27-3.95.36a129.69,129.69,0,0,0-14.6,1.38,35.07,35.07,0,0,1-9.37.42c-1.17-.21-3.36-.29-3.53-1.78,0-1.08.76-2,1.07-3a7.2,7.2,0,0,0-.16-5.38c-.48-1.24-1.05-2.44-1.55-3.67-.62-1.43-1.3-3.19-.31-4.61A4,4,0,0,1,349,548c.91-.39,1.86-.77,2.78-1.14a34.42,34.42,0,0,1,6.57-2c2.39-.44,4.88-.53,7.28-.88a26,26,0,0,0,6.82-1.78c1.19-.5,2.42-1.38,2-2.85-.81-2.92-3-5.24-5.14-7.32l9.05-6.31A11.57,11.57,0,0,1,383,534.51Z"/><path class="cls-3" d="M381.49,482.89c.05,1.5-1.05,2.74-2.05,3.73-2.7,2.42-6.32,3.4-9.42,5.19-.91.5-1.84,1-2.7,1.56a4.14,4.14,0,0,0-1.45,1.46,9.92,9.92,0,0,0-.5,1.85c-.39,1.25-1.62,2-2.6,2.77a56,56,0,0,0-5.79,4.26,14.79,14.79,0,0,0-3,3.12,33.78,33.78,0,0,0-2.09,4.22,13.8,13.8,0,0,1-.73,1.37,1.39,1.39,0,0,1-.93.78c-1.47,0-2.4-1.84-3.06-2.93a31.89,31.89,0,0,1-2.81-9.76,114.23,114.23,0,0,1-1.24-13.57c-.38-7.21-.19-14.46-.47-21.67a45,45,0,0,1,.66-9.35,1.9,1.9,0,0,1,1.14-1.27,28.24,28.24,0,0,1,2.71-1.15l9.77,5.43c1.65-.88,6-4.2,7.74-2.95,1.21,1.2.56,4.1.53,5.7-.13,2.51-.83,5.27.53,7.56,2.57,3.89,7.31,5.44,11.05,7.92a12,12,0,0,1,3.75,3.52A4.13,4.13,0,0,1,381.49,482.89Z"/><path class="cls-3" d="M699.25,522.66c.07,10.56-.93,21.11-1,31.66,0,2.17.18,4.37.39,6.52.06.77.14,1.6.18,2.36,0,.52.16,1.44-.54,1.55a27.31,27.31,0,0,0-6.06.33c-1.81.38-3.58,1-5.36,1.46-2.64.69-5.73,1.32-8.17-.26-1.75-.86-2.32-2.87-2.53-4.67a42.94,42.94,0,0,0-.61-6.5c-.84-4-4.34-6.56-7.9-8s-7.24-2.62-10.31-4.91c-2.79-2-5-4.76-7.34-7.19a24.1,24.1,0,0,0-15.57-6.89c-9.84-.72-19.87.1-29.65-1.48-2.32-.49-5.17-1-6.69-3a1.65,1.65,0,0,1,1.06-2.29,141.58,141.58,0,0,1,15.74-4c-3.6-.73-7.54-1.85-10-4.73-.58-.76-1.72-1.94-1.06-2.92a4,4,0,0,1,2.41-.51L610,509c4.47-.19,9-.73,13.39-1.29,7.91-1.08,15.89-2.21,23.89-1.9,3.61.12,7.23.66,10.83.8,6.38.16,12.79-.15,19.15-.54l2.34,1.86,8.91-4.07c4.91.57,10.71,3.17,10.31,9C699,516.11,699.26,519.39,699.25,522.66Z"/><path class="cls-3" d="M699.28,427c-.13,4.22-.08,8.61-1.62,12.61-.51,1.16-1,2.62-2.18,3.24-.42.15-.84-.09-1.26-.15-1.14-.19-2.32-.18-3.46-.36a15.2,15.2,0,0,1-5.79-2.16c-1.28-.92-2.32-2.2-3.88-2.65-9.13-2.77-5.07-4.7-8.86-11.17a14.44,14.44,0,0,0-3.87-4.29c-2.9-1.84-6.4-2.51-9.77-2.85-4.94-.36-10,.06-14.91.11-7.94.11-15.93.27-23.84,1-6.51.53-13.12,1.35-19.63,2-2.2.19-4.62.36-6.83.34-1.16-.07-2.64.05-3.68-.55l-.05-.12c.39-.52,1.24-.57,1.82-.76l3.09-.71a102,102,0,0,1,14.85-2.25,200.24,200.24,0,0,0,23.78-2.91c3.45-.62,7-1,10.44-1.78A62.31,62.31,0,0,1,660.06,411a59.74,59.74,0,0,1,18.25,3.28l11,.94.63.23a22.67,22.67,0,0,1,4,2C698,420.06,699.33,422,699.28,427Z"/><path class="cls-3" d="M700.68,389.74c-.1,3.37-.9,9.86-3.75,12a2.06,2.06,0,0,1-1.15.36c-.65-.05-1.25-.36-1.89-.47-3-.47-6-.39-9-.86-2.11-.27-4.18-.84-6.27-1.22s-3.93-.43-5.9-.55c-3.71-.15-7.35-1-11-1.3a61.25,61.25,0,0,0-16.54,1.24,185.85,185.85,0,0,1-18.61,2.87,86.75,86.75,0,0,1-22.48,0c-6.35-.85-12.66-2.28-19-2.91a98.93,98.93,0,0,0-11.16-.05c-8.43.26-16.92.16-25.35.08-6.11-.19-12.43,0-18.37-1.58-3.44-1.17-1.08-2.05,1.14-2.8a45.5,45.5,0,0,1,7.47-2.24,65.68,65.68,0,0,1,13-.64c-.08.53,11.91-2.89,12.24-2.92l3.16.42c9.7,1.22,19.51-.16,29.24.14,3.95.06,7.94.15,11.86.55,5,.61,10.06,1.18,15.1,1.6a89,89,0,0,0,16.24-.24c4.23-.32,8.49-.59,12.69-1.14,9.6-1.31,19.3-1.07,28.95-1.47,2.88-.16,5.77-.42,8.63-.79a31.62,31.62,0,0,1,8.52-.31C699.52,387.67,700.8,388.19,700.68,389.74Z"/><path class="cls-3" d="M694.05,344.79c.28,2.74-2.35,4.4-4.4,5.65a36,36,0,0,1-9.54,4.53c-1,.31-2.07.61-3.1.82a7.84,7.84,0,0,0-2.41.74c-1,.68.3,1.66.85,2.16s1.42,1.23,2.09,1.87c6.46,6.3-11,4.85-13.92,4.67-5.14-.37-10.15-1.92-15.3-2.18-8.07-.64-16.18-.3-24.27-.08-7.29.21-14.65.09-21.92.86-6.75.6-13.47,2.28-20.25,2.39a5.5,5.5,0,0,1-1.7-.32l-.23-.13-.11-.14,0-.14a.8.8,0,0,1,.36-.43,37.3,37.3,0,0,1,4.17-1.44,74.58,74.58,0,0,1,12.26-2.72c11.39-1.65,22.77-3.7,34.25-4.65,7.07-.43,14.21-.11,21.27-.65,3.11-.28,6.46-.71,9-2.62,1-.75,2.18-2.14,1.31-3.41-1.5-2.21-2.13-2.89.93-3.68,7.58-2.37,17.23-4.13,25-6.1C690.69,340.73,693.53,342.12,694.05,344.79Z"/><path class="cls-3" d="M693.38,230.06a33.26,33.26,0,0,1-1.34,8.42,16.35,16.35,0,0,1-1.39,2.89,9.25,9.25,0,0,1-1.93,2.51,8.64,8.64,0,0,1-2.61,1.11c-1.65.5-3.34.95-4.94,1.59-4.91,1.91-6.25,5.63-6.12,10.58-.16,3.84-1,4.63-4.85,4.11-3.12-.24-6.24-.72-9.37-.74-3.84,0-7.68.47-11.51.26-1.73-.19-5.19-.5-6-2.18-.09-.81.61-1.54,1.19-2a67.38,67.38,0,0,1,10.17-5.24c4-1.67,10.59-3.63,12.27-8,.91-2.25-.42-4.31-1.66-6.11-1.06-1.67-6.46-8.82-2.41-9.3,6.92-1.24,14-1.85,20.93-3Z"/><path class="cls-3" d="M703.66,312.81a13.81,13.81,0,0,1-.29,3.21,16.45,16.45,0,0,1-1.84,4.13,16.06,16.06,0,0,1,.49,5.68,4.69,4.69,0,0,1-2.55,3.39c-2.32,1-5,.77-7.45.56a9.21,9.21,0,0,1-2.19-.59c-.4-.12-.83-.48-1.25-.48a11.11,11.11,0,0,1-3.54-.85c-1-.39-2.13-.74-3.18-1.14-4.83-1.77-8.54-5.52-12.21-9-9.65-1.72-19.58-2.84-29.34-1.41-3.8.46-7.6,1.25-11.37,1.9-2.37.38-4.89.82-7.22,0a6.92,6.92,0,0,1-4.29-3.84c-.48-1-1.16-2.13-.68-3.25a5.09,5.09,0,0,1,2.88-2.1c1.33-.49,2.81-.9,4.18-1.26a69.86,69.86,0,0,1,15.31-2.08c1.46.47,10.63-4.43,12.07-4.59,3.79-1,7.61-2.18,11.34-3.39,3.09-1,6.21-2.11,9.27-3.22l3.82-1.34a16.37,16.37,0,0,0,1.1-1.39c2-3.4,6.12-4.53,9.78-5,1.18-.19,2.39-.28,3.56-.52a3.34,3.34,0,0,0,2.37-1.4c2-2.62,2.75-5.88,4.14-8.8.53-1.25,1.83-2.34,3.23-1.73a3.69,3.69,0,0,1,2,2c1.08,1.88,1.08,4.12,1.24,6.22.16,3.34.14,6.71.17,10.05,0,3.56,0,7.14.08,10.7C703.4,306.44,703.62,309.63,703.66,312.81Z"/><path class="cls-3" d="M691.41,189.72c0,6.72-8.47,9.72-13.65,12-2.43.89-5,1.93-7.56,2-1.21,0-3.79-.52-1.75-1.81,1.07-.77,6-2.66,2.36-3.15-2.51-.43-5-.83-7.57-1.12-10.16-1.3-20.13-1.38-30.32-1.57-10-.38-20.14.35-30.19.26-6.51.07-13-.5-19.51-1.07-6-.22-11.94-.06-17.89-.13l-9.63,0c-1,0-2.16,0-3.16.09-.54.08-1.28.12-1.61.63s.13.94.36,1.33.55.88.8,1.31c.55,1.1,2.48,3.89.78,4.7a10.86,10.86,0,0,1-2.6.29l-4.84.26c-9.61.58-19.28.38-28.89.11-7.68-.42-15.38-1-23.06-1.26-4.49,0-9,.12-13.49.17-3.26,0-6.68.2-9.78-.94-.76-.26-1.95-1.07-1.23-1.92a11.61,11.61,0,0,1,2.89-1.64A41.77,41.77,0,0,1,483,194.67a88.28,88.28,0,0,1,29.68-.08c3.07.5,6.39,1.27,9.37,0,1.26-.52,2.63-1.41,2.89-2.85a10.6,10.6,0,0,0,0-1.26,3.94,3.94,0,0,1,.6-1.7,10.08,10.08,0,0,1,2.74-1.8c2.13-1.13,4.37-2.14,6.42-3.42,3.37-2.11,2.63-3.31-.87-4-3.88-.86-7.92-.88-11.85-1.44-1.78-.26-9.65-1.22-7.73-2.81a9.73,9.73,0,0,1,2.49-.77,50.23,50.23,0,0,1,7.91-1c4.92-.25,9.87-.08,14.78-.49,9.43-.8,18.79-2.42,28.25-2.95,12.07-.75,24.19-.16,36.27.06,7.27.29,14.55,1,21.83,1.15s14.83-.61,22.24-.77c2.39.35,11.64-3.26,14-3.3,3.42-.38,6.89-.87,10.29-1.35,4-.43,8.35-1.46,12.15.25,1.93,1,1.92,2.72.33,4.18-2.91,3.07-5.59,3.16-9.48,3.87-4.68.86-9.46,1.19-14.17,1.88-8.65,1.38-17.33,2.91-26.1,3.38-12.19.47-24.58-1.47-36.61,1.33-1.23.33-9.46,2-8.91,3.43a3.2,3.2,0,0,0,1.72.41c.93.06,1.92.12,2.85.16,3.64.1,7.33.15,11,.21a321.74,321.74,0,0,0,39.62-2.11c4.66-.66,9.43-1.48,13.75-3.45,2.76-1.27,5.41-3,8.46-3.46a11.11,11.11,0,0,1,3.77.09,18,18,0,0,1,5.37,1.61c1.09.53,1.8,1.64,3,2,3.05,1.14,6.25,2.12,8.77,4.27C689.59,185.4,691.41,187.29,691.41,189.72Z"/><path class="cls-3" d="M627.79,243.74c.06.33-.35.53-.59.67a11.12,11.12,0,0,1-1.38.57c-1.86.64-3.91,1.16-5.81,1.65a199.89,199.89,0,0,1-21,3.78c-7.74,1-15.45,2.52-23.21,3.35-3.18.3-6.46.34-9.64.69-5.64.64-11.32,1.64-17,2.16-8.86.84-17.84.78-26.73.84-9.53,0-19.12,0-28.65-.1-6.22-.19-12.46-1.1-18.68-1.2a95.27,95.27,0,0,0-12.28,1.09,60.4,60.4,0,0,0-12.42,2.65c-2.54.85-4.9,2.21-7.52,2.83A47.89,47.89,0,0,1,431,264.41a50.35,50.35,0,0,1-9.43-.21,35,35,0,0,1-14.14-6.31c-2.74-1.93-5.24-4.68-8.77-5s-7.24,1.18-10.51,2.69c-1.54.71-3,1.67-4.57,2.3A43.16,43.16,0,0,1,371,259.77c-3.91.17-7.86-.2-11.75.08a22.74,22.74,0,0,0-4.24.92,31.52,31.52,0,0,0-3.16,1.51,27.65,27.65,0,0,1-4.5,2.22c-4.81,1.35-7.41-4.15-8.14-8-2.06-9.06.44-11.72,3.05-19.87,8.95,2.2,18.19,2.93,27.36,3.46,5.5.51,11,1,16.56,1.06S397,240,402.38,240c4-.13,7.95-.1,11.91-.26a102.5,102.5,0,0,1,10.37-.25,8.29,8.29,0,0,1,3.27.88,18.16,18.16,0,0,0,9.15,1.11c4.19-.39,8.37-1.31,12.57-1.56,5.05-.3,10.19-.69,15.22,0,3.34.56,6.57,1.84,9.92,2.44a70.29,70.29,0,0,0,15.87,1c7-.55,13.94-1.41,20.93-1.72a55.71,55.71,0,0,1,12.7.71c10.35,1.13,20.87,1.88,31.26.91a293.4,293.4,0,0,1,31.51-1.56c5.67.13,11.41.61,17.08.64,6.35,0,12.77-.17,19.09.56,1,.11,2.12.23,3.15.38C626.87,243.31,627.48,243.3,627.79,243.74Z"/><path class="cls-3" d="M605.94,287.31c.1,1.33-1.35,2.27-2.56,2.31-1.82,0-3.65-.28-5.47-.4a72.72,72.72,0,0,0-13.84.14,19.71,19.71,0,0,0-7.12,2c-.64.38-1.05,1-1.67,1.43a8.51,8.51,0,0,1-3.59.79c-2.79.17-5.59.06-8.38.06-3.4,0-6.82.14-10.21.33a187.93,187.93,0,0,0-20.45,2.45c-4.75.84-9.48,2.11-14.26,2.76-4.48.6-9.05.54-13.55.82-7.2.46-14.43.79-21.64,1-3.47.14-7,.41-10.5.38-4.93-.1-9.89-.24-14.82-.22-10.08-.12-20.17.45-30.23.81-8.34.14-16.72-.32-25,.09a116,116,0,0,0-13.27,1.72c-7.44.94-14.5,4.19-22.05,4.27-2.33-.08-5.17.21-6.9-1.63-1.13-1.47.2-3.18,1.3-4.24a24.59,24.59,0,0,1,5.77-4.25,45,45,0,0,1,26-5.79c1.63-.68,9.79-6.48,11.48-5.89a46.32,46.32,0,0,1,12.33.54c3.91.7,7.77,1.93,11.72,2.51,12.69,1.72,25.57,1.06,38.34,1.1,8.43,0,16.92,0,25.34-.35,6-.29,12.13-1.07,18.19-1,5.81,0,11.68.16,17.48.46,4.29.22,8.65.64,12.95.17,11.19-1,22.21-3.49,33.26-5.43C581,283.12,603.54,279.85,605.94,287.31Z"/><path class="cls-3" d="M521.44,396.76l0,.11,0,.1a6.15,6.15,0,0,1-2.64.54c-2,.14-4.14.29-6.11.49-9.25,1.1-18.58,2-27.87,2.72-8.84,1-17.71,2.22-26.62,2.17-6.86.2-13.81-1-20.58.59-1.16,0-11.86-1.42-12.67-.85-5.25.8-10.57,1.32-15.86,1.73-1.21.06-1.84.73-.86,1.72a14,14,0,0,0,4.46,2.23c1.6.58,3.26,1.13,4.85,1.74,1,.39,3.88,1.35,1.91,2.58a20.9,20.9,0,0,1-4.13,1.6c-1.86.59-3.76,1.2-5.63,1.75-2.79.78-5.5,1.84-8.3,2.55a12.66,12.66,0,0,1-4.63-.15,30.06,30.06,0,0,1-8.41-2.38c-3.51-1.62-6.91-3.6-10.68-4.56s-7.61-.42-11.37-.05c-3,.38-6.06.57-9.09.74-2.09.13-4.2.78-6.28.35-1.32-.29-1.86-1.65-2.38-2.75-.94-2.2-1.3-4.61-2.31-6.79-.48-1.08-1-2.13-1.61-3.16a5.43,5.43,0,0,1-.94-2.73c-.18-2.06,7.45-4,9.17-4.46a22,22,0,0,1,8.85-.26,29.75,29.75,0,0,1,4.87,1c.78.22,1.51.59,2.26.87a11,11,0,0,0,2.39.54c2.45.32,4.9-.26,7.3-.65,4-.66,8.05-1.43,12.11-1.77,4.91-.62,9.73.7,14.58,1.17,3.94.35,7.84-.57,11.71-1.14a44.6,44.6,0,0,1,10.26-.34c3.59.39,7.15,1.23,10.76,1.46a203.4,203.4,0,0,0,25.42.08c3.48-.24,7-.26,10.48-.41,3.32-.19,6.67-.51,10-.59,6.2-.32,12.42-.8,18.63-.39,4.11.21,8.09,1.45,12,2.5,1.55.39,3.14.77,4.67,1.21A5.55,5.55,0,0,1,521.44,396.76Z"/><path class="cls-3" d="M701.29,459.19c-.06,2.07,0,8.53-2.09,9.35-.84.16-1.44-.68-2.1-1.07a27.88,27.88,0,0,0-3.89-2.25,18.51,18.51,0,0,0-4.87-1.84c-4.57-.83-9.18.32-13.67,1.08a16.93,16.93,0,0,1-8.8-.88c-5.19-1.68-10.08-5.38-15.73-5-4,.45-7.95.85-11.92,1.27a113.94,113.94,0,0,1-12.1,1.05c-9.56,0-19.16-.85-28.71,0-9.22.72-18.43,2-27.68,2.37-3.6.05-7.22.07-10.82.35-3.45.31-6.92.34-10.37.43-7.28.65-14.48,2.28-21.8,2.55a141.06,141.06,0,0,1-18.94-.88c-4.14-.34-8.34-.6-12.49-1-12.2-.89-24.49-.07-36.7-.73-7.14-.4-14.31-1.2-21.47-.88-5.66,0-11.26,1.19-16.91,1.4a154.47,154.47,0,0,1-22-.64c-.14-.23-10.28-4.09-10.25-4.54a5.23,5.23,0,0,1-.89-1.8,2.28,2.28,0,0,1,.41-2.29,9.24,9.24,0,0,1,2.71-1.42,35.32,35.32,0,0,1,5.53-1.69,34.54,34.54,0,0,1,5.93-.34c8.89-.12,17.66-.62,26.57-.45,8.54-.08,17.07.8,25.6.93,7.8,0,15.63.6,23.42.73,7.38-.07,14.82-.09,22.2-.27,6.13-.17,12.3-.71,18.43-.81,8,0,16.06-.23,24.07,0,11.32.49,22.69.44,34,.18,10.16-.34,20.32-1.35,30.47-2,11.18-1,22.44-1.73,33.67-1.67,11.39.07,22.81.46,34.19-.1,4.32-.19,8.72-.66,13-1,3.28-.19,6.73-.44,9.93.48a4.16,4.16,0,0,1,2.9,2.15,14.77,14.77,0,0,1,.51,2.73A49.34,49.34,0,0,1,701.29,459.19Z"/></g><g id="レイヤー_6" data-name="レイヤー 6"><path class="cls-4" d="M366.52,158.23a21.09,21.09,0,0,1,.85-2c-.43.07-.87.13-1.3.18a2.21,2.21,0,0,1-.06,1.78Zm-1.27,4.51a35.58,35.58,0,0,1-5.87-.69c-3.65-.36-15.82,1.16-11.27-5.49a2.35,2.35,0,0,1,.09-.64c-1.29-2.38,1.06-3.94,3.28-3.63a2.29,2.29,0,0,1,3.4,0c4.69-.6,9.23.43,13.83-.93,1.26-.45,2.86-.72,3.81.45,1.8,2.62-1,5.62-1.84,8.16C370,163.11,367.88,162.81,365.25,162.74Z"/><path class="cls-4" d="M676.44,155.37a2.24,2.24,0,0,1-.27-.34c0,.11,0,.22,0,.33Zm14.1,4.76c-6-1.22-14.19,2.08-18.95-2.2-.48-2.54.37-5.43.63-8,1.63-2.89,5.29-.72,4.21,2.3.81-.9,2.1-.68,3.19-.5,2.24.27,4.45-.3,6.68-.46,2.52.18,7-1.88,8,1.41C703.42,155.83,697.59,161.58,690.54,160.13Z"/><path d="M701.37,214.4c.2,3.92-12.73,1.69-15.33,1.72-8.87-.34-17.78-.67-26.66-.45-7.5.26-15,1-22.49,1.12-8.4.26-16.8.89-25.21,1.08-12.19.3-24.39.83-36.58.82-6.82,0-13.63-.48-20.43-.88-5-.22-10-.33-15-.61-12.79-.58-25.6-.38-38.39.07-6.4.28-12.79.86-19.19,1.22-5.15.33-10.34.33-15.5.6-4.75.34-9.51.84-14.28,1-3.83.13-7.69.23-11.53.1-6.6-.38-13.2-1-19.81-.94-8-.14-16,.19-24,.18-6.49.07-13-.49-19.48-.42a115.3,115.3,0,0,0-14.6,1.22c-4.05.65-8.1,1.41-12.18,1.86-2.87.32-5.76.51-8.65.59l-2.07.05a3,3,0,0,1-1.15-.17,1.9,1.9,0,0,1-.86-1l2.22-9.2a125.12,125.12,0,0,0,14,.84c4.08-.13,8.16-.53,12.25-.56,5.06-.11,10.13,0,15.19-.13,4.1-.09,8.21-.48,12.31-.58a97.31,97.31,0,0,1,11.45.41c3.69.18,7.39.29,11.06.68,6.41.67,12.8,1.59,19.24,1.89a126.91,126.91,0,0,0,22.05.49c7.71-.69,15.47-.44,23.2-.89,4.36-.17,8.71-.77,13-1.26,4.81-.51,9.64-1,14.46-1.34,2.57-.19,5.17-.34,7.75-.32,3.55.1,7.12.36,10.68.34,6.63-.06,13.24-.94,19.87-.9,15.4,0,30.81-.16,46.21.06,5.47.19,10.93,1,16.39,1.35,7.2.35,14.44.4,21.64.06,5.83-.37,11.67-.64,17.51-.73,9.74-.46,19.5-.31,29.25-.34q6.48-.1,13-.29c2.19-.13,4.39-.39,6.58-.49a4.16,4.16,0,0,1,2.61.37,3.83,3.83,0,0,1,1.11,1.72A5.47,5.47,0,0,1,701.37,214.4Z"/><path d="M702.79,273c-.06,2.56-4.13,1.55-5.71,1.23-2.06-.45-4.17-.84-6.25-1.21a113.11,113.11,0,0,0-19.62-1.54c-6.66-.09-13.34-.2-20-.08-4.11.15-8.2.64-12.29,1-3,.23-6,.31-9,.62-3.72.3-7.45.75-11.18.92s-7.52.11-11.27.24a197,197,0,0,1-28.12.23c-6.15-.41-12.33-.58-18.48-.83-5.89-.31-11.78-.59-17.68-.55-4.79,0-9.61-.09-14.41.07s-9.81.6-14.71.8c-11.41.28-22.82.54-34.23.33-7.72-.23-15.38,1-23.05,1.73a201.86,201.86,0,0,1-24,1.15c-12.85.24-25.61-1.85-38.46-1.76-6.21,0-12.42.36-18.62.66-4.68.17-9.35.47-14,.78-5.46.19-10.93.12-16.39.14l-7.19-6.09c6.64.76,13.29,1.73,20,1.64,3.17-.07,6.33-.58,9.5-.72,7-.34,14-.45,20.95-.25,6,.33,11.83,1.58,17.74,2.38a71,71,0,0,0,15.07.23c7-.62,13.84-2.11,20.82-2.45,6.3-.36,12.62-.37,18.92-.47,5-.1,9.95-.25,14.91-.23,5.12,0,10.2-.65,15.29-1,4.67-.25,9.36-.2,14-.23,6.8,0,13.6-.41,20.4-.29,4,0,8,.53,12,.61s8,.18,12,0c4.42-.21,8.84-.62,13.26-.93,6.26-.33,12.54-.21,18.8-.24,4.61-.09,9.23-.1,13.83,0a75.15,75.15,0,0,1,14.67,1.2,60.57,60.57,0,0,0,12.74,1.06c4.32-.34,8.61-1.15,12.94-1.31q8.57-.27,17.13-.69c6.32-.19,12.65-.29,19-.45,5.15-.3,10.33-.27,15.48-.66,3.33-.19,6.67-.25,10-.26,1.31,0,2.8-.15,3.62,1.09A9.2,9.2,0,0,1,702.79,273Z"/><path d="M702.65,332.28a1.78,1.78,0,0,1-.34,1.23,3,3,0,0,1-1.66.53c-3,.08-6.1-.36-9.14-.45-5.72-.27-11.46-.21-17.18-.25-8.15-.12-16.32-.34-24.46,0-2.49.13-5,.17-7.51.33-3.8.28-7.61.62-11.42.67-15,.24-30,0-45-.23-5-.07-10-.23-15,0s-9.72,1.05-14.6,1.09c-9.25.11-18.47-1.13-27.71-.82-5.17.13-10.35.16-15.52.18-4.86-.15-9.72-.28-14.58-.36-6.9-.21-13.81-.79-20.73-.63-4.41.14-8.72,1.17-13.07,1.81s-8.79.83-13.19,1.07c-4.08.21-8.17.24-12.25.37-4.39.12-8.79.31-13.18.21-5.11-.27-10.22-.6-15.33-.87-5.65-.49-11.33-.92-17-.91a127.13,127.13,0,0,0-12.79.56c-4.07.29-8.17.43-12.25.44-5.31.06-10.63,0-15.93-.09a63.88,63.88,0,0,0-8.53.23l-5.09-8a178.71,178.71,0,0,0,21.9,2c4.8.14,9.6.55,14.4.6,4.14.07,8.27.57,12.4.86,4.47.23,9,.33,13.43.48,3.25.08,6.5.48,9.73.76,2.87.24,5.78.32,8.66.39,5.24.12,10.5.23,15.73.06s10.18-.57,15.27-.9c1.47-.09,2.92-.37,4.39-.46,3.63-.24,7.23-.8,10.86-1,5.53-.31,11.08,0,16.61-.3,4.19-.25,8.37-.84,12.56-.94,7.21-.22,14.43-.1,21.64-.18,5.83,0,11.67-.05,17.5.09s11.94.39,17.91.57c3.44.13,6.85.73,10.29.78,4.76.09,9.53.19,14.29-.09,8.11-.59,16.21-1.48,24.34-2,5-.17,10-.2,15-.29,4.16,0,8.34.13,12.5.11,5.72-.14,11.44-.59,17.16-.72,3.78-.06,7.57.09,11.35.05,6.1-.08,12.21-.32,18.3-.62,3.53-.22,7.06-.63,10.57-1s6.88-.35,10.32-.39l3.1,0c.75,0,1.65-.08,2,.74a10.33,10.33,0,0,1,.93,2.76A12.84,12.84,0,0,1,702.65,332.28Z"/><path d="M701.56,389.16c0,1.55-1.9,1.43-3,1.42-3-.07-6-.1-9-.08-4.85.09-9.7.08-14.55,0-5.2,0-10.4,0-15.58-.43-3.6-.2-7.22-.2-10.83-.26a72,72,0,0,0-11,.28,314.27,314.27,0,0,1-33.31,2c-6,.06-11.9-.52-17.85-.51-7.76,0-15.51.46-23.27.41-5.45.11-10.9-.26-16.34-.33-7.2-.17-14.41,0-21.61.39-6.25.18-12.52.32-18.78.53-3.83,0-7.66.4-11.48.67-5.22.32-10.45.59-15.68.71-17,.29-34-.74-51,.37-6.2.46-12.41,1-18.64,1.06-9.47.18-18.95-.06-28.42.22-5.7.36-11.42.5-17.13.68-4.84.25-9.68.64-14.52,1-1.61.13-3.23.17-4.85.21a3.17,3.17,0,0,1-3.73-2.47l1.5-6a115.66,115.66,0,0,0,16.53,1.25c4.74,0,9.48-.4,14.21-.66,6-.26,12.1,0,18.14-.35,5.13-.39,10.27-.47,15.41-.5,4.13,0,8.28-.11,12.41.11,6.91.25,13.81.91,20.73.9,5,0,10.06-.63,15.1-.41,5.42,0,10.83.66,16.26.54,2.52,0,5-.34,7.54-.46s5.32-.09,8-.17c4.35-.17,8.68-.69,13-.7,7.45-.18,14.9.26,22.35.24,4,0,8.06-.74,12.1-.91,5.56-.41,11.14,0,16.71-.1,6-.08,12.06-.67,18.09-.67,4.43-.12,8.86,0,13.28.26,5,.12,10,.3,15,0,6.33-.53,12.68-1,19-1,4.59.11,9.19.53,13.79.21,6.43-.36,12.88-.52,19.33-.52,9.12-.35,18.25-.31,27.38-.25,6.92.49,13.86.4,20.79.34a6.78,6.78,0,0,1,2.66.08,2.37,2.37,0,0,1,.85,1.32A8.8,8.8,0,0,1,701.56,389.16Z"/><path d="M700.12,733.05v6.35l-.13.31a5.18,5.18,0,0,1-2,2.37,3.91,3.91,0,0,1-1.37.47c-.63.12-1.28.25-1.92.35a35.48,35.48,0,0,1-3.86.13c-3.15.05-6.32.24-9.47.35-3.7.09-7.42.33-11.12.45-4.38.09-8.79,0-13.18,0-9.43,0-18.87.06-28.3-.09-4.7,0-9.38-.65-14.08-.68-6.14-.15-12.29.23-18.43.24-11.12.35-22.24.74-33.35,1.24-7.8.64-15.58,1.68-23.37,2.29-6,.64-12.06.33-18.07.73-7.66.31-15.3,1.24-22.95,1.62-8.51.22-17,.09-25.53.44-5.5.09-11,.34-16.53.37-5.31,0-10.62-.23-15.93-.35a92.47,92.47,0,0,1-12.78-.84c-5.3-.92-10.64-1.58-15.93-2.58-6.12-1.15-12.39-.41-18.53.2a70.59,70.59,0,0,1-14.46,0c-4.54-.47-9.1-1.07-13.67-1.26-3.08-.06-6.19-.23-9.26-.44a31,31,0,0,1-6.3-.79,9,9,0,0,1-1.8-.72.67.67,0,0,1-.45-.58.76.76,0,0,1,.52-.4,23,23,0,0,0,2.7-.76,32.14,32.14,0,0,0,5.43-3,5.34,5.34,0,0,1,2.88-.38c1.28.06,2.57.16,3.85.32,5.22.7,10.42,1.69,15.68,2.13,3.16.32,6.3.94,9.48,1.14,7.55.46,15.14.3,22.71.42,13.71.06,27.45.39,41.15-.31,10.39-.18,20.67-1.87,31-2.41,5.29-.28,10.6-.07,15.89-.17s10.38-.56,15.57-.7c8.37-.39,16.77-.06,25.15-.33,4-.16,8.11-.19,12.14-.33,5.53-.33,11.08-.38,16.61-.3,8,0,16.08.64,24.11,1,6.79.12,13.59-.17,20.38-.44,13.21-.41,26.43,0,39.63.51a166.88,166.88,0,0,0,18.42,1,71,71,0,0,0,15.45-1.54,53.36,53.36,0,0,0,7.61-1.72A28.55,28.55,0,0,0,700.12,733.05Z"/><path d="M701.48,683.3c.09,1.52-2.46,1.54-3.52,1.72-2.06.19-4.14.22-6.21.22-5.09-.25-10.15-1.07-15.25-1.28a74,74,0,0,0-12.36.25,163.82,163.82,0,0,1-19.27,1.61,149.61,149.61,0,0,1-18.21-1c-7-.51-14-.84-21.07-.75-5.56.09-11.16.12-16.71.52-8.2.65-16.4,1.54-24.62,1.58a2.24,2.24,0,0,1-1.42,1.18,6.12,6.12,0,0,1-1.76.23c-1.26.08-2.53.11-3.8.2-6.92.64-13.85,1.37-20.82,1.35-5,.07-9.91.3-14.85.53-4.19.25-8.41.66-12.61.7-4.69.07-9.39-.23-14.07-.38-5.51,0-11,0-16.54-.09-5.85-.17-11.72-.17-17.57-.36-6.37-.24-12.74-.26-19.11-.22-10.63-.12-21.27.9-31.9.12-5.46-.42-10.91.4-16.36.47-5.29.1-10.59.5-15.89.71-5.53.27-11.09.43-16.61,1a26.79,26.79,0,0,1-6.07-.14,16.92,16.92,0,0,1-2.59-.65c-.54.06-1.14.1-1.69.14a40,40,0,0,1-4.1.14,4,4,0,0,1-2.44-.62l0-6.36c2.54.19,5.13.38,7.69.34s5-.39,7.48-.57c4.08-.23,8.19-.33,12.27-.48,6.58,0,13.17-.3,19.75-.27,2.75,0,5.53.07,8.28-.06,3-.15,6-.53,9-.63,8.71-.33,17.43.25,26.13-.06,4.11,0,8.22-.42,12.31-.73,7.15-.41,14.3-.89,21.46-1.15,13.41-.88,26.86-.21,40.28,0,7.73.2,15.48.09,23.22.18,8.09.17,16.19.34,24.29.26,9.54.08,19.08-.51,28.62-.45,9.12,0,18.26.45,27.38.05,5.81-.24,11.65-.44,17.44-1,4.58-.39,9.21-.46,13.81-.76,4.23-.17,8.5-.23,12.74-.2s8.22.36,12.32.36c6.49.06,13,0,19.49-.06,3.26,0,6.52-.31,9.78-.29a4.24,4.24,0,0,1,1.74.17,3.07,3.07,0,0,1,1.2,1.46A8.2,8.2,0,0,1,701.48,683.3Z"/><path d="M701.3,625.48c-.52,5.36-17.44,3.59-21.49,3.54-4.26-.16-8.56-.11-12.83-.26-6.34-.23-12.7-.48-19.05-.47-9.77-.11-19.46,1.51-29.21,1.69s-19.52.18-29.27.32c-9.24,0-18.5-.25-27.74-.11-9.69.11-19.39.57-29.08.49-8.29-.17-16.58-.67-24.87-.6-8.79-.16-17.57.32-26.35.31-6.91.06-13.82-.54-20.73-.51-10.81,0-21.62-.17-32.43-.06-5,.24-10,.62-15.06.87-3.62.15-7.24.09-10.86.14-3.23.06-6.48.25-9.72.19-5.4-.18-10.81-.31-16.21-.55a143,143,0,0,0-25.73,1.7c-1.43.2-2.85.57-4.28.7-1.06.07-1.77-1-2.09-1.87l2-6.16a46.62,46.62,0,0,0,8.6.15c3.68-.3,7.3-1.14,11-1.41a149,149,0,0,1,23.8.89c7,.73,14.08.54,21.12.67,3.66,0,7.33.2,11,.24,5.12.06,10.24,0,15.35,0,8.43.42,16.89.56,25.33.57q13.65.63,27.32-.06c8.84-.48,17.63-1.72,26.49-1.61,3.9-.1,7.81,0,11.7.17,7,.07,14.09.29,21.11-.14,2.77-.17,5.54-.49,8.3-.68,3.48-.15,7-.4,10.46-.58,4.83-.17,9.67-.12,14.49-.36,5.07-.27,10.14-.66,15.22-.8,5.8-.11,11.6-.12,17.39-.5,14.43-.43,28.89.49,43.31-.28,8.63-.34,17.26-.93,25.89-1,3.26-.06,6.5.47,9.75.39l3.41,0a3.13,3.13,0,0,1,1.93.36,5.71,5.71,0,0,1,1.25,2A10.94,10.94,0,0,1,701.3,625.48Z"/><path d="M700.73,566.41c.09,1.77-4.85,1.73-6.1,1.9-4.85.37-9.73.23-14.59.41-5.9.34-11.77,1.12-17.68,1-5.25-.06-10.5-.62-15.74-.82-7.89-.39-15.83-.86-23.72-.24-4.75.26-9.52.48-14.27.79-4.23.19-8.49.15-12.72.16-6.39,0-12.78-.43-19.16-.73-4.36-.15-8.73-.15-13.08-.26-3.64,0-7.28-.11-10.92,0-4.64.16-9.29.51-13.94.53-4.44,0-8.9.15-13.35.15-6.65-.06-13.32-.27-20-.07-7.23.39-14.48.38-21.71.61-4.94.22-9.88.6-14.83.69-3.78.16-7.57.42-11.35.39s-7.76-.12-11.62-.36a136.29,136.29,0,0,0-16.42.14c-9.91.65-19.82,1.62-29.75,1.87-4.21.1-8.42,0-12.62-.2s-8.16-.14-12.23-.15c-8,0-15.9.85-23.86.72h-3.92a8.57,8.57,0,0,1-2.53-.24l1-6.07c11.18-2.52,22.7-2.05,34.05-1.43,5.64.28,11.25,1.08,16.88,1.34,10.93.64,21.89.53,32.83.52,7.34-.24,14.7-.43,22.05-.34,6.25.17,12.53.31,18.78,0,6.47-.4,13-1.1,19.44-1.15,9.67-.15,19.36.05,29,0,8.88,0,17.78-.33,26.66-.08,7.87.33,15.75.27,23.62.09,4.93,0,9.89-.07,14.81-.29,11-.44,22-1.36,33-1.58,11.23-.34,22.48.16,33.71-.18,5.16-.16,10.34-.38,15.51-.47,4.32-.07,8.68,0,13-.47,5.51-.52,11-1.45,16.58-1,.62,0,1.24.06,1.85.09a4.93,4.93,0,0,1,1.28.16,3.15,3.15,0,0,1,1.68,2.51A13.73,13.73,0,0,1,700.73,566.41Z"/><path d="M701.06,508c.06,1.19-1.27,1.32-2.18,1.37-3,.1-6.07.06-9.09.08q-16.63.06-33.29-.27c-5.92-.17-11.81.46-17.71.81s-11.8.55-17.7.61-12-.28-18-.72a145.53,145.53,0,0,0-14.77,0c-6.19.32-12.38.9-18.57,1.11-10.09.45-20.2.55-30.29.45-5.67-.07-11.32-.72-17-.71-9.16,0-18.33-.24-27.49-.24-3.69,0-7.39.29-11.09.29-6.69,0-13.4,0-20.09.28-5.58.16-11.16.65-16.73.92-4.21.21-8.44.15-12.65.38-11.6.55-23.2,1.37-34.81,1.86-7,.28-14,.23-20.94.27-4.86,0-9.73,0-14.58.36-5.85.53-11.69,1.28-17.57,1.32a16.31,16.31,0,0,1-2.52,0c-.81-.24-1.14-1.18-1.35-1.92,0-.17-.16-.51-.16-.68l.14-6.51c9.1,1,18.24.17,27.36.11,5.31.08,10.62-.4,15.91-.8,3.46-.12,6.93-.4,10.38-.58,4.14-.16,8.3-.14,12.44-.15,3.55,0,7.13.07,10.67-.15,6.53-.45,13.09-1.16,19.63-.6,3.88.34,7.75.87,11.64,1.08,4.7.24,9.43.16,14.14.3,20.8,1,41.62.32,62.42.43,10.39-.07,20.8.34,31.19.13,12.13-.43,24.26-1.24,36.39-1.82,5.28-.27,10.57-.64,15.86-.87,6.06-.17,12.13-.29,18.19-.42,8.34-.23,16.68-.92,25-.85,7.5,0,15,0,22.49-.4,3.51-.07,7-.3,10.52-.31,1.54,0,3.08.25,4.62.38,2,.15,4,.2,6,.2a4.16,4.16,0,0,1,1.72.2,3.35,3.35,0,0,1,1.1,1.54A11.31,11.31,0,0,1,701.06,508Z"/><path d="M702.53,449c0,1.48-1.91,1.18-2.91,1.24-2,0-4-.09-6-.06-4.38,0-8.75.37-13.13.4-7.1,0-14.21.13-21.3.62s-14.08.44-21.11.91c-10,.74-20.1,1.67-30.18,1.63-5.35-.09-10.71,0-16.05-.28-3.9-.25-7.78-.9-11.69-1.06-9.16-.26-18.35-.17-27.52-.1-5.24,0-10.5.18-15.74.3-5,.08-10,0-15,.16-7.86.33-15.72.88-23.59.85-6.15.14-12.3-.33-18.45-.5-7.49-.21-15-.1-22.47-.06-9,.07-17.94-.13-26.91.14-3.8.1-7.6.41-11.39.64-5.27.2-10.54.54-15.81.81-7.5.3-15-.19-22.53,0-6.46.18-12.87,1.15-19.3,1.67-5,.44-10.08.65-15.1,1.21-.7.06-1.44.12-2.14.16a2.75,2.75,0,0,1-1.31-.07c-.83-.46-1.08-1.5-1.38-2.33l-.09-.3-1.31-6.21c5.41.15,10.78-.71,16.18-.79a60.13,60.13,0,0,1,8.88.76c5.92.78,11.92.48,17.87.65,4.53.19,9,.93,13.56.91,4.3.12,8.57-.62,12.85-1,5-.51,10.11-.71,15.17-.76,6-.11,11.92-.84,17.88-1.14,6.49-.55,13-1.32,19.51-1.54,4.38-.16,8.78-.11,13.16-.19,3.54,0,7.09-.22,10.63-.19,4.46.05,8.89.76,13.35.92,6.61.22,13.23.05,19.84.16s13.51.66,20.28.57c4.28,0,8.58.06,12.86,0s8.44-.58,12.66-.79c10.2-.59,20.41-1.15,30.63-1.46,10.82-.36,21.65-.19,32.48-.23,5.36,0,10.73.1,16.08-.3,3.36-.15,6.74-.44,10.1-.56,4-.13,8.1-.11,12.14-.18,6.95-.29,13.91-.41,20.86-.15,3.51,0,7,.27,10.53.49.56,0,1.13,0,1.69.05a3.69,3.69,0,0,1,1.28.16,3.14,3.14,0,0,1,1.52,2.27A20.16,20.16,0,0,1,702.53,449Z"/><path d="M367.18,763.65c-.19,2.46-4.36,1.86-6.07,2.15a10.38,10.38,0,0,0-5.06,2.19,3.36,3.36,0,0,0-.86,1.77c-.27,1-.57,2-.88,3a69.17,69.17,0,0,1-2.26,6.59,8.84,8.84,0,0,1-1.44,2.36c-.71.57-1.62,0-2-.66a9.32,9.32,0,0,1-1.26-4.85,10.63,10.63,0,0,1,1-4.57,22,22,0,0,0,1.66-4.34c.43-1.9-.39-3.67-1.32-5.29a3.61,3.61,0,0,1-.64-1.69c.11-.83.95-1.35,1.61-1.75a8.94,8.94,0,0,1,2.44-.89c1.52-.18,3.05-.16,4.58-.28a7.11,7.11,0,0,0,2.24-.42,2.66,2.66,0,0,0,.89-3,12.61,12.61,0,0,0-.62-2,2,2,0,0,1,.1-2.22l7.45,1c-1.72,3-3.52,5.21-1.44,8.59A11.93,11.93,0,0,1,367.18,763.65Z"/><path d="M372.69,831.56c0,.38,0,2.57-.7,2.05a16.2,16.2,0,0,0-1.11-1.37,3.09,3.09,0,0,0-2.14-.86,2,2,0,0,0-2.5,1.33,13.91,13.91,0,0,1-2.13,4.48c-2.06,2.43-8,9.48-11.27,6.19a2.66,2.66,0,0,1-.07-3.1,5.18,5.18,0,0,1,2.76-2.78c1.54-.49,3.24-.44,4.73-1.15s2.9-1.8,2.91-3.45a4.19,4.19,0,0,0-.6-1.62,4,4,0,0,0-1.74-2c-1.5-.7-3.16-1-4.62-1.82-1.36-.6-5.51-4.15-3.73-5.62.84-.55,1.88-.05,2.78.08,2.57.45,5,1.54,7.52,2.1.72.12,1.75.2,2.07-.62a11.82,11.82,0,0,1,1-2c.52-.8,1.44-1.18,2.11-1.83,2.38-2.4,3.21-5.83,4-9,0,.76-.77,8.12-.32,8.64A93,93,0,0,1,372.69,831.56Z"/><path d="M373.83,877.23c-.07,4.51-.35,10.49-4,13.61a6.3,6.3,0,0,1-3,.87,28.94,28.94,0,0,1-5.09.38,37,37,0,0,1-7.68-1.27c-2.19-.71-4.69-1.74-5.52-4.08a17.42,17.42,0,0,1-.66-3.21,21.73,21.73,0,0,1,0-6.54c0-.6.8-3.85,1.58-3.51a5.22,5.22,0,0,1,.47,1.72,29,29,0,0,0,1.72,6.36c.73,1.7,2,3.4,3.9,3.8a12,12,0,0,0,8.68-1.86c1.67-1.08,1.94-3.09,2-4.92a42.51,42.51,0,0,1,.78-8.2c1.2-4,3-7.81,4.14-11.85.17,1.47.52,8,1.16,9.28A30.18,30.18,0,0,1,373.83,877.23Z"/><path d="M698.85,877.24c0,2.55-2,4.43-3.61,6.17s-2.2,2.32-4.56,1.9c-2.89-.41-5.5-1.82-8.32-2.47s-5.58.39-7.26-2.61c-1.39-2.7-1.52-5.86-1.68-8.84-.09-3.39-.06-6.8-.28-10.19-.26-4.32-.25-8.66-.43-13-.32-4.83-.23-9.68-.34-14.51-.34-6.19-.39-12.39-.38-18.58,0-5.13.25-10.29-.1-15.41-.62-6.29-.3-12.63-.32-19,0-3.77-.16-7.56-.11-11.34-.25-1.65,1.4-7.46,1.65-9,.15,3,.06,6.28,1.38,9.09,1.2,2.55,3.89,3.82,6.4,4.75a11.54,11.54,0,0,1,1.27.5c1,.69,0,1.82-.68,2.34a7.64,7.64,0,0,1-2.33,1.22,8.8,8.8,0,0,0-2.21.85,5,5,0,0,0-1.31,3,26.84,26.84,0,0,0-.1,6.52,33,33,0,0,0,.89,3.38,15.56,15.56,0,0,1,.48,6c-.43,3.2-1.23,6.38-1.61,9.59-.38,3.4-.53,6.84-.93,10.25-.28,4.36-.53,8.76-.45,13.13a34,34,0,0,0,.3,5.44,31.59,31.59,0,0,0,2.83,7.28c.64,1.12,1.48,2.13,2.12,3.24a4,4,0,0,1-.16,2.88c-.7,1.94-2,3.6-2.93,5.43a2.8,2.8,0,0,0-.2,1.66,6.64,6.64,0,0,0,.8,1.68,12.31,12.31,0,0,1,1.89,8c-.22,1.89-.79,3.72-1.13,5.59-.25,1.16-.58,2.56.4,3.46,1.87,1.75,4.42.16,6.2-.94a42,42,0,0,1,4.22-2.44c2-1,4.28.17,6.07,1.17,1,.57,1.92,1.19,2.87,1.79C697.93,875.74,698.88,876.24,698.85,877.24Z"/><path d="M700.09,814.25a10.68,10.68,0,0,1-2.45,6.79,8,8,0,0,1-3.12,2.79c-.72.3-1.24-.27-1.65-.79a7.92,7.92,0,0,1-1.53-2.47c-.51-1.47,1-2.47,1.94-3.3s2.51-2,2.37-3.62a14.76,14.76,0,0,0-.71-4.16c-.77-2.77-3.1-3.83-5.68-4.47a9.34,9.34,0,0,1-3.09-1.33c-.37-.3-.67-.56-.08-.87,6.54-3.73,8.36-4.24,10.76-11.77L693,797.73c.25-1.22.55-2.45.72-3.69.29-2.06.34-4.17.74-6.21.23-1.69,1.48-3.28,1.65-5a21.74,21.74,0,0,1,.68-5.41h0a8.91,8.91,0,0,1,.23,2.38c.05,1.63.1,3.29.23,4.92.28,3.78.91,7.54,1.28,11.32.34,3.48.35,7,.67,10.47C699.39,809.11,700,811.67,700.09,814.25Z"/><path d="M389.5,748.23c-.14.83-2.65,8.71-2.11,9.34.28,2.89.41,5.81.69,8.7.24,2.56.72,5.12.84,7.7.1,7,0,14-.09,21-.18,4.36,0,8.79-.77,13.09-.3,1.25-.66,2.71-1.79,3.45a13.54,13.54,0,0,1-5.49,1.38c-1.88.1-4.58.67-6.08-.71a3.74,3.74,0,0,1-.47-1.77c-.52-5.33-.66-10.7-1.06-16-.37-9.7-1.08-19.4-.91-29.11a95.28,95.28,0,0,1,.39-10.14,20.57,20.57,0,0,1,1.17-5.33A2.55,2.55,0,0,1,376,748c1.22,0,2.46.09,3.68.13C382.94,748.28,386.23,748.22,389.5,748.23Z"/><path d="M669.86,802.91a61,61,0,0,1-.49,8.65c-.22,1.14-.42,2.5-1.38,3.27a2.85,2.85,0,0,1-1.23.29,13.45,13.45,0,0,1-3-.26,8,8,0,0,1-3.53-1.42,3.81,3.81,0,0,1-.93-1.22,10.63,10.63,0,0,1-.33-1.94c-.15-1.44-.34-2.88-.47-4.32-.58-6.39-.81-12.82-1.49-19.2-.35-3.2-.82-6.39-.91-9.6-.32-4-.41-8-.66-12-.29-3.77-.48-7.57-.79-11.34a45.52,45.52,0,0,1,0-6.18,9.87,9.87,0,0,1,.8-3.77c4.22,0,8.47,0,12.69,0,.12,1,1.18,7.91,1,8.69.05,3.79.12,7.61.29,11.4C670,776.93,669.73,789.92,669.86,802.91Z"/></g><g id="レイヤー_5" data-name="レイヤー 5"><path d="M492.32,481.59c-5-6.48-14-9.21-17.37-17-3.37-2.71,1.43-7.52,3.29-3.2,5.53,3.43,12.61,3,17.95,7.05C503.94,472.87,503.26,488.44,492.32,481.59Z"/><path d="M493.36,473.46c.08-2.93,4.65-2.78,4.52.15S493.23,476.39,493.36,473.46Z"/><path d="M670.63,473.51c-3.3-1.16-2.15-14.11-1.18-16.95C677,450.14,680,476.77,670.63,473.51Z"/><path d="M665.32,485.8c-2.23-1.45-.23-3.94.3-5.79.83-2.61,4.61-2.42,4.66.47C669.52,482.65,668.58,487.42,665.32,485.8Z"/><path d="M685.52,308.27a16.11,16.11,0,0,0-1.21-2.72c-7,4.61-11.83-11.55-10.26-16.57a2.28,2.28,0,0,1,4.34,1,14.76,14.76,0,0,0,2.86,10.62c-.14-1.75.69-3.53,2.7-3.28,3.37,1.65,4.42,6.71,6,10A2.26,2.26,0,0,1,685.52,308.27Z"/><path d="M693.7,313c-3.55-.51-1.77-5.26-2.49-7.74-.06-2.14-1.49-5.86,1.64-6.34,3.43-.09,2.4,4.44,2.95,6.69C695.71,308.06,697.36,312.81,693.7,313Z"/><path d="M671.32,347.54c-3.6,0-2.62-9.09.67-8.84,2.46.15,2.31,2.67,1.78,4.42C673.66,345,673.92,347.47,671.32,347.54Z"/><path d="M674.42,321.64c.08-2.93,4.65-2.77,4.53.15S674.3,324.57,674.42,321.64Z"/><path d="M358.67,424c-4.86-1.46.05-14.62,3.3-7.5,2.18,0,6.26-.76,6.35,2.4-.26,3-3.43,2-5.47,2.08C361.93,422.47,360.76,424.59,358.67,424Z"/><path d="M389,419.82c-8.55,1.07-7.22-6.75-2.61-4.65,3.43.18,7.28.59,10.3-1.39a2.27,2.27,0,0,1,2.6,3.71C396.29,419.56,392.55,420,389,419.82Z"/><path d="M395.53,409.93c.09-2.94,4.66-2.78,4.53.15S395.41,412.86,395.53,409.93Z"/><path d="M381,492.18c-5.13-.84-6.78-6.28-9.08-10.18-2.1-.29-4.65-.1-6.32-1.58a2.28,2.28,0,0,1,1.45-3.79c2.89-.55,5.58.88,8.3.84-5.12-15.17,1.16-18.81,9.26-4.39,2.49,2.15,6.61,5.67,2.94,8.77a7,7,0,0,1-1.54,5C386.33,489.67,384.14,492.87,381,492.18Z"/><path d="M429.25,543.93c-1.43-.66-2.39-2.07-3.8-2.77-1.38,0-2.77-.85-2.71-2.41.08-1.8,1.88-2.53,3.45-2.06-.3-4.07,5.35-2.85,5.16.56C433.54,539.61,433.84,545.51,429.25,543.93Z"/><path d="M391.7,594.37c-3-14.89,8.17-12.27,4.4-7.08-1,2.76,1.69,7.49-1.69,8.79A2.28,2.28,0,0,1,391.7,594.37Z"/><path d="M503.42,595.46c.09-2.93,4.66-2.78,4.53.15S503.3,598.39,503.42,595.46Z"/><path d="M505.43,579.39c.08-2.94,4.65-2.78,4.53.15S505.31,582.31,505.43,579.39Z"/><path d="M433,660.68c-2.39-3.26-5-6.38-7.26-9.72a82.56,82.56,0,0,0,2.07,8.93A33.71,33.71,0,0,0,433,660.68Zm5,5.2c-3.21-.76-6.54-.54-9.75-1.28a2.41,2.41,0,0,1-3.83-.78c-4.44-.41-3.86-11.41-3.5-14.75-.07-2.67-1-10,3.7-8.12,3.21,3.84,5.08,8.68,8.5,12.4C434.39,656.33,445.44,665.08,438,665.88Z"/><path d="M434,664.5c-11.68-6.93-2-13.78-1.06-7a11,11,0,0,0,3.45,3.15A2.27,2.27,0,0,1,434,664.5Z"/><path d="M431.73,659.61c-5.17,1.41-7.53-11.88-.71-8.3a51.15,51.15,0,0,1,4.28,5.52A2.27,2.27,0,0,1,431.73,659.61Z"/><path d="M436.32,665.23c-8.73-3.5,3.65-6.65,6.94-7.85C437,656.29,422.7,651.17,428,643c2.49-3,5.74.93,3.23,3.55,4.86,5.27,12.06,6.72,18.93,7.16,5.46,1.22,1.67,6.37-2.15,6.78C452.9,666.21,439.38,665.25,436.32,665.23Z"/><path d="M431.08,656.5a28.43,28.43,0,0,1-1-6.81C429,652.75,427,654.83,431.08,656.5Zm8.68,5.46c-11.8,1-20.07-4.53-12.79-16.44,1-2.72,4.59-8.69,7.34-4.32.5,3.55-.06,7.15.5,10.68,1.24.78,2.08,2.12,3.21,3.06,3.07.06,6.26-.08,9.21.92,3.21-1.64,4.7,3.32,2,4.77-2,.92-3.78-1.09-5.83-1C443.43,661.64,441.46,662.4,439.76,662Z"/><path d="M425.91,662.21c-4.45-3.91.59-6.58,4.39-7.43,3-.69,5.77.67,8.45,1.73,2,1,5.43-.36,5.54,2.86a2.3,2.3,0,0,1-2.34,2.19c-4.36.56-8.26-3.93-12.45-1.74A2.26,2.26,0,0,1,425.91,662.21Z"/><path d="M385.23,662.71l-.15.21.83-.08a4.26,4.26,0,0,0-.07-.94Zm-14.47,5.94c-.79-5.61,8.8-1.48,14.57-14.09-.06-1.49-.28-3.31.87-4.47.71-4.46,5.66-2.16,4.64,1.67-.61,3.93,1.47,12.87-1.77,15.09-3.33,1-7.18.78-10.69,1.54C376.19,669.39,372.28,672,370.76,668.65Z"/><path d="M408.18,721c-20.72-1.88-9.3-12.21-7.31-6.19,6.83,2.62,14.27,1.52,21.42,1.74a2.26,2.26,0,0,1-.15,4.52C417.48,721,412.83,721.19,408.18,721Z"/><path d="M503,705q-6.4-.46-12.84-.36a2.26,2.26,0,0,1,.15-4.52c3.64.69,14.33-1.85,15,2.7A2.28,2.28,0,0,1,503,705Z"/><path d="M510.91,722c-2.46-.06-5,.06-7.36-.71a2.26,2.26,0,0,1,1.3-4.33c5.18,1.12,10.59.26,15.85.27,34.76-3.41,69.93-3.49,105-3.44a2.27,2.27,0,0,1-.15,4.53c-14.67-.07-29.35.06-44,.17-13.13,1.14-26.32.47-39.47,1C531.77,721.57,521.42,722.06,510.91,722Z"/><path d="M628.4,711.31c-1.56,0-3.12-.13-4.69-.17a2.26,2.26,0,0,1,.16-4.52c12.21.92,24.18-2.63,36.4-2.47,5.24-.1,10.63-.73,15.68,1a2.27,2.27,0,0,1-1.3,4.34C659.41,706.23,643.74,711.22,628.4,711.31Z"/><path d="M669.63,720.86a2.28,2.28,0,0,1-2.19-2.34c.74-3.87,6.23-1.59,9-2.24,2.33.15,6.56-1.59,7.16,1.75C683.2,722.7,673.11,720.18,669.63,720.86Z"/><path d="M684.89,718.6a111.16,111.16,0,0,0-2.76-13.82c5-8.76,6.72,10.28,7.26,13.39C689.69,721.08,685.14,721.53,684.89,718.6Z"/><path d="M490.85,532.74c-3.46-.82-16.56-1.29-16.38-5.55,1.25-4.69,12.94,1.89,17.11,1.08A2.26,2.26,0,0,1,490.85,532.74Z"/><path d="M425.66,530.67a2.29,2.29,0,0,1-1.22-4.13,62.86,62.86,0,0,1,17.33-.62c3.18,1.29,1.19,5.53-1.94,4.18C435.1,529.94,430.38,530.59,425.66,530.67Z"/><path d="M427.05,522c.08-2.93,4.65-2.77,4.52.15S426.92,524.92,427.05,522Z"/><path d="M432.62,537.11a2.26,2.26,0,0,1,.15-4.52c2.45.39,7.28-1.45,7.53,2.28C440.06,538.28,435,536.78,432.62,537.11Z"/><path d="M499.22,529.72c-4.57-.21-9.14-.06-13.71-.11a2.26,2.26,0,0,1,.15-4.52c4.57,0,9.14-.11,13.71.1C502.29,525.27,502.14,529.85,499.22,529.72Z"/><path d="M433.42,253.36c-3.77-3.06-13.41,2.09-14.45-3-.72-3.87,15.88-3.11,17.11-.2A2.29,2.29,0,0,1,433.42,253.36Z"/><path d="M431,259c.09-2.94,4.66-2.78,4.53.14S430.85,261.87,431,259Z"/><path d="M427.22,257.41c-1.73-.71-2.35-3.41-.66-4.48a2.4,2.4,0,0,1,.6-3.67c2.89-1.34,3.16,2.45,5.16,3.39,2.2-.11,4.89,1.85,3.16,4.1C433.79,258.52,429.34,258.27,427.22,257.41Z"/><path d="M433.9,244.91c-2.52-.79-7.55.44-7.9-3.08.08-2.24,2.49-2.47,4.21-2C433.47,237.64,439.64,243.83,433.9,244.91Z"/><path d="M366.33,254.74c-2.45-.27-4.92-.36-7.36-.75-3.65-.77-1.28-6.11,1.8-4.31,1.9.19,3.81.35,5.71.54A2.26,2.26,0,0,1,366.33,254.74Z"/><path d="M389.21,254.62c-3.55-1.06-12.32,1.21-12.79-3.67.79-3.26,4.74-1.26,7-1.28,2.16.16,4.33.26,6.49.48A2.26,2.26,0,0,1,389.21,254.62Z"/><path d="M372.17,261c.08-2.94,4.65-2.78,4.53.15S372,263.88,372.17,261Z"/><path d="M512.48,251.45c-6.61.59-7.09-5.58-2.33-4.86,5.9,1,12-.27,17.88-.64,22.1-1.62,44.15-1.3,66.27-.3a2.28,2.28,0,0,1,2.18,2.34c-.26,5.36-32.42-.44-38.54,1.11C542.77,249.6,527.63,250.88,512.48,251.45Z"/><path d="M668.15,248.4c-5.29-.09-10.79,0-15.79-2a2.27,2.27,0,0,1,1.86-4.13c4.47,1.63,9.37,1.53,14.08,1.61A2.27,2.27,0,0,1,668.15,248.4Z"/><path d="M671.31,247.34c-4.82-.33-11.88,1-14.82-3.82-1.47-3.71,2.37-4.78,5.26-5,.07-5.7,10.46-1.49,13.87-1.19,6.31,5.56-6.82,4.78-9.89,5.32,1.91.09,3.82.11,5.73.11A2.27,2.27,0,0,1,671.31,247.34Z"/><path d="M672.13,243.57c-7.91-.43-1.65-8.78,1.27-4.52,2.34.19,5.82-2.54,7.15.48C681.77,243.35,674.55,243.51,672.13,243.57Z"/><path d="M677.55,238.46c-16.13,0-7.18-11.28-4.25-5.09,2.19.73,6.45-.39,6.59,2.9A2.28,2.28,0,0,1,677.55,238.46Z"/><path d="M506.2,186.84c-3.53.86-6.61-3-2.5-4.66,2.51.65,7.29-1.32,8,2.14C511.84,187.46,508.3,186.77,506.2,186.84Z"/><path d="M473.5,188.11a2.29,2.29,0,0,1,.64-4.5,13.94,13.94,0,0,0,4.85-.3,2.27,2.27,0,0,1,1,4.42C477.87,188.07,475.63,188.55,473.5,188.11Z"/><path d="M467.89,187.61a2.27,2.27,0,0,1-.14-4.52,64.91,64.91,0,0,0,8.92-.86c4,.89,1.93,5.11-1.55,4.77C473.08,188.28,470.22,187.37,467.89,187.61Z"/><path d="M462.89,185.15c.08-2.93,4.66-2.78,4.53.15S462.77,188.08,462.89,185.15Z"/><path d="M387.58,194.38c-2-.44-4.41-1.92-3.48-4.26-2.15-.76-3.06-3.76-.61-4.78,1.52-.62,2.42.86,3.76,1.19,2.74.4,7.15,3.5,3.24,5.72A2.28,2.28,0,0,1,387.58,194.38Z"/><path d="M671.27,189.88A2.3,2.3,0,0,1,673.5,186c3.49.41,10.1-3.77,11.67.68.07,3.34-4.47,2.5-6.68,3.17C676.16,189.92,673.38,191.32,671.27,189.88Z"/><path class="cls-5" d="M686.08,151.71l-12.57,10.06c-16-.28-32,0-48-.22-11.15-.14-22.31-1.12-33.46-.43-8.19.26-16.3,1.72-24.48,2-8.39.17-16.77-.45-25.15-.56-10.09.16-20.19.13-30.27.12-10.91,0-21.84-.06-32.73-.67-6.84-.33-13.69-.81-20.54-.78-5.57,0-11.14.52-16.71.6-7.73.05-15.45.6-23.16.79s-15.69-.3-23.53-.45c-6.65,0-13.32,0-20,.31-5.37.21-10.86.95-16.15-.32-1.89-.46-4.38-1.66-4.14-3.92a9.22,9.22,0,0,1,2.67-3.68,11.89,11.89,0,0,1,3.2-2,22.87,22.87,0,0,1,4.46-1.69c4.61-.77,9.34-.32,14,.11,7.47.79,15,1.53,22.48,1.84,9.32.37,18.67.35,28-.17,2.77-.18,5.52-.59,8.27-.89,2.59-.29,5.2-.46,7.79-.7,8.26-.82,16.56-1.94,24.87-1.33,7.35.4,14.5,2.33,21.83,2.93,5.08.36,10.18.14,15.26.07,7.79-.17,15.58-.51,23.35-1.07a253.46,253.46,0,0,1,29.43-.13c3.55.17,7.11.47,10.66.55s7.31,0,11,0c4.22,0,8.46-.13,12.68-.33a91.67,91.67,0,0,0,13.54-1.29c2.74-.48,5.47-1.06,8.23-1.42,3.26-.41,6.56-.6,9.82-1,6.08-.8,12.21-.59,18.32-.81,8.56-.39,17.21-.83,25.74.34A73.29,73.29,0,0,1,686.08,151.71Z"/></g><g id="レイヤー_4" data-name="レイヤー 4"><path class="cls-6" d="M405.15,355.16a1.14,1.14,0,0,1,1.09,1.18c-.1,1.09-1.07,1.14-2,1.11-2.43,5.79-5.36,11.56-7.06,17.64-.34,1-.66,2.32-2,2.13-.84-.12-1.08-1-1.36-1.71-1.62-3.33-3-6.75-4.33-10.19-1,2.26-2.1,4.48-3.21,6.69-.9,1.31-1.52,6.88-3.9,4.63a55.24,55.24,0,0,1-2.63-6.78c-1.66-4.28-3.55-8.36-4.74-12.78H373.9c-2.15,0-1.24-3.28.57-2.25,3.27,0,6.52-.23,9.78,0a1.13,1.13,0,1,1-.07,2.26l-1-.05c0,.05,0,.11,0,.16a46.51,46.51,0,0,0,2.43,8.7c.17.47.35.91.51,1.33.39-.76.77-1.52,1.11-2.29,1.24-2.77,2.17-5.55,3.22-8.38.28-.65.34-1.43.92-1.89.86-.63,1.84.16,2,1.08,1.06,3.52,2.47,6.93,3.78,10.36.86-2.54,2.09-4.75,2.88-7.25.19-.37.34-.9.53-1.41a6.9,6.9,0,0,1-1.65-.2,1.14,1.14,0,0,1-.37-1.56c.44-.69,1.3-.59,2-.54C402.09,355.21,403.63,355.15,405.15,355.16Z"/><path class="cls-6" d="M428.75,362.72a1.1,1.1,0,0,1-.55,1.36,6.48,6.48,0,0,1-2.26.5c-3.68.09-7.37.25-11.05,0h.1l-.63,0a11,11,0,0,0,.45,2.83,20.71,20.71,0,0,0,2.57,5.18c.4.53,1.1,1.05,1.07,1.71a8.63,8.63,0,0,0,6.95-3.72,1.13,1.13,0,0,1,1.93,1.19,11,11,0,0,1-10.72,4.68c-6.55-.61-11.16-8.54-9.15-14.65,1.37-4,5.17-7.8,9.61-7.91,3.85,0,8.17,1.12,10.5,4.41A7.28,7.28,0,0,1,428.75,362.72Zm-14.27-.38c2.49.08,5,.09,7.47.07-.18-2.28-.71-5-3.08-5.82-2.59-.87-2.76.6-3.6,2.62A14.66,14.66,0,0,0,414.48,362.34Z"/><path class="cls-6" d="M440.43,372.92c1.28.64,1.53,2.36,0,2.79-1.25.49-2.52-.14-3.8,0-2,0-4,1-5.93.46-1.39-.75-.6-2.69.69-3.05,1-.19,1-.95,1.12-1.81.09-2,.26-4.09.2-6.14.08-4.18-.12-8.41-.27-12.56A22.72,22.72,0,0,0,432,347a14.4,14.4,0,0,0-1.85-.14c-1.35-.21-1.42-2.84.15-2.8a9.45,9.45,0,0,0,4.16-.43,25.72,25.72,0,0,0,2.49-1.18c.66-.36,1.4-.91,2.18-.55,1.83,1,.38,8.15.49,10.24C439.59,359.05,439.08,366.17,440.43,372.92Z"/><path class="cls-6" d="M463.43,357.85c.51,1.81-.12,4.41-2.1,5-1.82.5-3.05-1.32-2.88-3a1,1,0,0,1,.26-.68c.21-2.05-1.72-2.29-3.44-2.21-3,1.29-4,6.55-3.57,9.48a19.67,19.67,0,0,0,2.7,6.91,7.15,7.15,0,0,1,.77.91,6.49,6.49,0,0,0,5.6-2.39,1.17,1.17,0,1,1,2.24.64,8.44,8.44,0,0,1-8.56,3.91h0a8.94,8.94,0,0,1-6.88-4.45c-1.52-1.94-3.22-4.15-2.77-6.76a12.52,12.52,0,0,1,5.28-8.94,7.64,7.64,0,0,1,6.92-2.11C459.4,354.58,462.54,355.29,463.43,357.85Zm-2.62,2.8c.79-1.17.66-2,.05-2.68a9.43,9.43,0,0,1,.08,1.91,1.32,1.32,0,0,1-.22.51A.62.62,0,0,0,460.81,360.65Z"/><path class="cls-6" d="M488.36,359.89c2.43,7.47-3.51,17.65-11.82,17.37-7.53,0-12.27-8.77-10.07-15.52a11.24,11.24,0,0,1,6.72-7.53,7.37,7.37,0,0,1,3.39-.62,4.84,4.84,0,0,1,2-.24C483.14,352.93,486.71,355.72,488.36,359.89Zm-10.54,14.84c1.72-4.51,3.8-14.07-.11-17.91a3.48,3.48,0,0,0-1,.07,5.62,5.62,0,0,0-2,3c-1.83,4.64-.63,9.82,1.75,14l.06.06a1.21,1.21,0,0,1,.56,1c.25,0,.5,0,.74-.05C477.78,374.86,477.8,374.8,477.82,374.73Z"/><path class="cls-6" d="M526.82,372.39c2.28.46,2.52,1.88.59,3.11-1.48.68-3.18.34-4.74.33-1.73.09-3.29.64-5,.31a1.13,1.13,0,0,1,.34-2.23,9.91,9.91,0,0,0,1.54,0,6.62,6.62,0,0,1,.14-1.34,53.06,53.06,0,0,0-1.45-14.38c-.88-1.64-2.9-1.07-4,0-2.38,2.54-1.56,6.65-1.36,9.82a23.25,23.25,0,0,1,.56,5.29h.25a1.14,1.14,0,0,1,1.1,1.17c0,1.16-1.28,1.14-2.16,1.08a54.77,54.77,0,0,1-9.22.65,1.13,1.13,0,1,1,0-2.26,17.5,17.5,0,0,0,2.29,0,1,1,0,0,1,.09-.6c.21-1,.32-2,.46-3.05.08-2.16,0-4.57-.1-6.66-.21-1.79.05-3.88-1-5.42-1.89-.84-3.36.05-3.91,1.92a17.07,17.07,0,0,0-.91,8.08,8.46,8.46,0,0,0,1.85,5.28c.77,1.9-1.36,1.93-2.65,1.94-.77.35-2.06,0-2.86.14a35.51,35.51,0,0,1-4.11.4c-1-.09-2.61.2-2.94-1A1.13,1.13,0,0,1,491,373.6a11.5,11.5,0,0,0,2,.08,33.48,33.48,0,0,1-.28-4.9c-.13-3.63.44-7.42-.14-11a1.05,1.05,0,0,1-.88-.4c-.71,0-1.18-.35-1.19-1.28.25-1.27,1.86-.95,2.79-1.35,1.55-.48,3-1.42,4.68-1.21a2.32,2.32,0,0,1,2.76,2.12c2.85-2,7.75-2.42,9.94.71,4.16-3.2,10.37-3.44,13.72,1a16,16,0,0,1,1.53,6A90,90,0,0,1,526.82,372.39Z"/><path class="cls-6" d="M546.37,354.64c2.79,1.83,7.47,6.66,4.1,9.83-2.86,1.75-6.39.91-9.55.82-.67-.08-2.16,0-3.46-.13a17.77,17.77,0,0,0,.89,6.24,5.87,5.87,0,0,0,1.08,1.84,1.22,1.22,0,0,1,.39.78,8.31,8.31,0,0,0,3.24-.23c2.05-.76,3.53-2.35,5.07-3.82a1.13,1.13,0,0,1,1.74,1.45c-2.57,2.74-5.78,5.38-9.78,4.87-6.64-.17-11.65-7.4-10-13.72a13,13,0,0,1,6.12-7.63C539.36,353.6,543.3,352.71,546.37,354.64Zm-2,8.62c0-.65.41-1.43.32-2.07a6.56,6.56,0,0,0-2.32-4.38c-.42-.28-1-.36-1.38-.61a1.08,1.08,0,0,1-.66,1,12.47,12.47,0,0,0-2.57,5.72c1.59.19,3.21.06,4.81.2Z"/></g><g id="レイヤー_3" data-name="レイヤー 3"><path class="cls-7" d="M345,746.46a3.66,3.66,0,0,1-3.5-3.74q0-26.21,0-52.43c1.51-38.19,1.74-76.84,1.44-115-3.87-54.56-3.17-109.25-3.42-163.91-3.56-77.29-3.16-154.72-.91-232,1.32-5.37-3.17-18.23,3.82-19,6.36.32,2.58,15.13,3.4,19.66-4.49,114.3,1.89,228.58,1.49,342.91,3.74,54.52,3.82,109.22,1.44,163.82-.08,18.73,0,37.47,0,56.2A3.64,3.64,0,0,1,345,746.46Z"/><path class="cls-7" d="M472.25,753.88c-14.82.48-29.43-3.67-44.16-2.72-24.27.75-48.62,1.36-72.52-3.52-2.65-.19-5.32-.11-8-.11-4.59-.09-4.51-7.41.24-7.24,15.83-.24,31.2,5,47.13,4.09,23.73-.43,47.28-1,70.85,2.18,29.6,0,58.83-5.88,88.49-5.81,39.58-1,79.25-2.92,118.85-1,7.3,1.25,15-.1,22.15.9,2.66,1.53,2,6.09-1.1,6.62C620.19,745.16,546,746.8,472.25,753.88Z"/><path class="cls-7" d="M363.79,894.46c-26.69,1-19.64-4.9-20.6-26.64,0-33.69-.78-67.37,0-101.06,1.15-5.19-2.72-23.23,4.15-23.18a3.67,3.67,0,0,1,3.5,3.74c-1.31,46.46-.52,93-.31,139.43,7.26,1.09,15.29-.75,22.19,1.11C377.73,894.38,368.16,894.81,363.79,894.46Z"/><path class="cls-7" d="M373.44,892.35c-6.15-1.08-2.5-9.73-3.4-14.1.4-18.66.22-37.35.19-56-.22-24-.31-48-.46-72,1.28-7.09,10-2,7.15,3.46.48,29.81.46,59.61.58,89.42,0,11.24.12,22.48-.2,33.71C376.29,881.63,380.13,891.33,373.44,892.35Z"/><path class="cls-7" d="M684.86,888.7c-5.85,0-14.86-.87-15.14-8.36a308.42,308.42,0,0,1-1.52-34.93c.14-29.31-.19-58.63-1.31-87.91.83-4.92-3.58-16.62,3.37-17.42a3.67,3.67,0,0,1,3.5,3.74c2.56,45.39-.15,91,3.32,136.33A34.67,34.67,0,0,0,695,881a3.67,3.67,0,0,1,4.64,2.16C700.85,890.49,689.49,888.89,684.86,888.7Z"/><path class="cls-7" d="M696.62,889a3.66,3.66,0,0,1-2.43-4.51,3.52,3.52,0,0,1,1.09-1.68,786,786,0,0,0,0-89.24c-.08-17.22-2.23-34.32-2-51.55.09-4.64,7.41-4.48,7.24.24.94,39.52,4.19,79,3.08,118.59C701.61,867.2,706.52,891,696.62,889Z"/><path class="cls-7" d="M373.74,811.74c1-5.82,9.15-2.77,13.3-4.39-1.07-15.43-2.56-30.84-2.29-46.34.24-4.79-2.18-23.5,7-15.4,1,1.39,1.48,3.34.22,4.83,0,13.5-.14,27,1,40.5.29,6.91,2.27,14.37.66,21.11-2.52,3.28-7.44,2.3-11.08,3.2C379.37,815.52,373.78,816.5,373.74,811.74Z"/><path class="cls-7" d="M665.8,819c-3.84-1-10.56,0-9.72-6,0-10.25-.67-20.42-1.19-30.58,0-10.22-1.34-20.32-2.41-30.47-.17-3.61-2.38-10.32,3.17-10.58,5.61.87,3.05,8.72,4.32,12.72,2.37,18.91,2.69,38.06,3.36,57.06,1.71,0,3.13.86,4.81.72C675.07,812.36,671.87,821.2,665.8,819Z"/><path class="cls-7" d="M694.35,743a3.66,3.66,0,0,1,2.15-4.65l.11,0c4.21-9.64,1.12-20.86,1.94-31.11.54-25.79-1.32-51.53-1.24-77.3.67-52.21-.25-104.42-.34-156.63,1.33-61.3,2.52-122.61,2.61-183.94.41-43.69-4.05-87.19-3.4-130.88-.4-2.4,1-5.21,3.74-5.07,6.52-.2,2.42,18.95,3.5,23.62,1.25,48.16,4.35,96.28,3.4,144.53-.61,71.52-3.56,143.05-2.12,214.58.35,37.06-.29,74.51-.09,111.51,1.39,23.06,1.11,46.18,1.23,69.27-.13,8.44,1.39,17.6-3.06,25.22C701.17,745.14,696,747.09,694.35,743Z"/><path class="cls-7" d="M338.2,162.56c-.41-7,26.77-2.64,32.46-4.46,44.39-5,89,1.06,133.53-.06,50.64-1.47,101.19-3.44,151.88-2.61,10.92-.28,21.8.53,32.71.66,4.75,1,13.15-2.58,15.39,2.77,3.3,8.55-30.69,2.89-35.83,3.81-34.07.06-68.12-.91-102.12,1.12-28.07-.44-56.05,2.17-84.14,1.6-25.36-.37-50.57-2.7-76-1.81-18.63-.79-37,2.74-55.6,2.3C346.39,165.53,338.75,168.63,338.2,162.56Z"/><path class="cls-7" d="M338.08,162.77c0-3.26,3.22-5.33,4.82-7.92,2.65-2.85,4.35-10.87,9.48-7.43,3.85,4.38-2.93,9.68-5,13.52C345.12,164.62,340.15,169.47,338.08,162.77Z"/><path class="cls-7" d="M698.11,156.37a6.57,6.57,0,0,0-1.16-2.48c-2.75.56-4.68-2.09-4.29-4.63,2-8.62,12.16.11,12.52,5.51C706.24,159.32,699.13,161,698.11,156.37Z"/><path class="cls-7" d="M566.94,155.42c-18.16-.32-36.35.06-54.5-.6-14.26-.43-28.35-2.8-42.66-2.1-16.5-.23-32.79.62-49.24,1.12-23.35,0-46.72-1.79-70,.23-4.58-.1-4.53-7.42.24-7.24,15-1.53,30.15-.67,45.25-.78,24.67,1.5,49.32-.92,74-.57,17-.72,33.83,2.4,50.85,2.36,23.39.09,46.75,1.27,70-2,16.83-.8,33.65.77,50.47.85,17.48-.92,35.8-4.58,52.74,1.14,4.87.8,3.43,8.49-1.53,7.1-17.5-6-35.82-1.2-53.79-1C614.74,152.79,590.8,152.26,566.94,155.42Z"/></g></svg>